<svg transform="scale(1)" version="1.1" id="bCYa0GVPao" xmlns="http://www.w3.org/2000/svg" xmlns:xlink="http://www.w3.org/1999/xlink" x="0px" y="0px" viewBox="0 0 500 500" xml:space="preserve" class="pbimage_pbimage__wrapper__image__0LEis false"><title>Coding 5</title><style type="text/css"> .st0{fill:#FFFFFF;} .st1{fill:#000005;} .st2{fill:#59BE4C;}
 .st2{fill:#00ff96;}
 .st1{fill:#000005;}
 .st0{fill:#FFFFFF;}</style><g id="character"><path class="st0" d="M269,395.4l4.4-26.3l77.3-0.5l-3.3,44.9C347.4,413.5,273.4,401.4,269,395.4z" fill="#FFFFFF"></path><path class="st1" d="M271.5,395.2l3.8-23l0.5-3.3l-3,1.4l26.1-0.2l41.6-0.3l9.6-0.1l-1.9-0.9l-1.1,15.1l-1.8,24.3l-0.4,5.5l3.7-1.3
		c-8.4-1.4-16.8-2.9-25.1-4.4c-13.7-2.5-28-5.2-41.1-8.8c-2.6-0.7-5.2-1.5-7.7-2.5l-1.4-0.6c-0.6-0.2,0.1,0.1-0.3-0.1l-0.5-0.3
		c-0.3-0.2-0.5-0.3-0.8-0.5s-0.4-0.3-0.1,0c-0.1-0.1-0.2-0.2-0.2-0.3c-1-1.3-5.7-0.3-4.8,1c1,1.1,2.3,1.8,3.7,2.3
		c2.1,0.9,4.2,1.6,6.3,2.2c6.3,1.9,12.8,3.3,19.2,4.7c13.6,3,27.4,5.5,41.1,7.9c3.1,0.5,6.1,1.1,9.2,1.6c1,0.1,3.6,0.1,3.7-1.3
		l1.1-15.2l1.8-24.3l0.4-5.5c0-0.7-1.5-1-1.9-0.9l-26.1,0.2l-41.6,0.3l-9.6,0.1c-1,0-2.9,0.2-3,1.4l-3.8,23l-0.5,3.3
		C266.3,397,271.2,396.9,271.5,395.2z" fill="#000005"></path><path class="st0" d="M304.1,396.5c0,0,45.5-20.8,78.9-18.1s37.3,50.4,18.6,57.5s-89.9,2.2-89.9,2.2L304.1,396.5z" fill="#FFFFFF"></path><path class="st1" d="M305.7,398.1c4.5-2.1,9.2-3.9,13.9-5.6c10.6-4,21.4-7.2,32.4-9.6c6.1-1.3,12.2-2.2,18.4-2.7
		c5.5-0.4,11.3-0.6,16.8,0.5c2,0.4,3.9,1,5.7,1.8c0.5,0.2,1,0.5,1.5,0.7l0.6,0.4c0.1,0.1,0.3,0.1,0.4,0.2c0.9,0.6,1.8,1.1,2.6,1.8
		c0.7,0.6,1.4,1.2,2,1.8c0.6,0.6,1.5,1.5,1.9,2c1.3,1.6,2.5,3.2,3.5,5c3.8,6.9,5.5,14.7,4.8,22.6c-0.6,6.2-2.9,13.1-8.4,16.6
		c-2.1,1.3-5.3,2-8,2.6c-1.3,0.2-3.4,0.6-5.1,0.8c-2,0.3-4,0.5-6.1,0.6c-9.5,0.7-19,0.8-28.5,0.8c-9.1-0.1-18.1-0.3-27.1-0.8
		c-5.1-0.2-10.2-0.5-15.3-0.8h-0.7l2.9,2.4l-6.7-36.5l-1-5.1c-0.3-1.1-1.2-2-2.3-2.2c-0.6-0.2-2.5-0.4-2.3,0.8l6.7,36.5l0.9,5.1
		c0.4,1.3,1.6,2.3,3,2.4c3.8,0.3,7.5,0.5,11.3,0.6c8.9,0.5,17.7,0.8,26.6,0.9c9.9,0.2,19.9,0.2,29.8-0.4c4.3-0.2,8.5-0.6,12.8-1.2
		c3.3-0.4,6.6-1.1,9.8-2.1c6.5-2.3,10.1-8.4,11.5-14.9c1.7-8,1-16.3-2.1-23.9c-3.3-8.4-9.6-15.2-17.6-19.1c-4.8-2.1-10-3.3-15.2-3.3
		c-6.4-0.2-12.7,0.2-19,1.1c-12.2,1.9-24.3,4.8-36,8.9c-7,2.4-13.9,5-20.7,7.9l-1,0.4C300.2,395.9,304.1,398.8,305.7,398.1z" fill="#000005"></path><path class="st2" d="M235.5,378.4c0,0-35.1-27-23.2-54.5s64.5-52.6,96.8-57.8s96.7,40.3,92.9,72.1s-29.4,41.7-29.4,41.7l-25.1-28.9
		l-70.6,1.4l-21.3,27.5C255.4,379.8,245.4,383.6,235.5,378.4z" fill="#00ff96"></path><path class="st2" d="M237.9,378.7c-5.8-4.6-11-10-15.4-16c-7.6-10.3-13-23.5-8.6-36.2c2-5.7,5.6-10.8,9.6-15.3
		c4.7-5.1,9.9-9.7,15.6-13.7c12.6-8.9,26.2-16.2,40.6-21.8c6.7-2.7,13.6-4.9,20.6-6.8c5.3-1.4,10.9-2.8,16.4-2.7
		c1.3,0,2.4,0.1,3.5,0.2c0.7,0.1,1,0.1,1.5,0.2l1,0.1l0.5,0.1c0.8,0.1-0.5-0.1,0.3,0c2.5,0.5,5,1.1,7.4,1.9
		c5.9,1.9,11.6,4.3,17.1,7.2c11.9,6.2,22.7,14.1,32.3,23.5c7.9,7.8,15.6,17.3,18.4,28.3c1.4,5.5,0.9,10.8-0.4,16.3
		c-1.5,6.7-4.4,13.1-8.4,18.7c-4.8,6.8-11.2,12.3-18.7,16c-0.4,0.2-0.8,0.4-1.2,0.5l4.7,1l-22.3-25.7c-0.9-1.2-1.8-2.2-2.8-3.2
		c-1.1-0.9-3.2-1-4.6-1H344l-13.5,0.3l-42.7,0.9l-12.4,0.2c-0.8,0-1,0-1.5,0.6l-4.2,5.5l-13,16.8c-1.2,1.5-2.2,3.1-3.5,4.5
		c-0.1,0.1-0.2,0.2-0.1,0.1c-0.4,0.2-0.8,0.3-1.2,0.4c-2,0.6-4.1,0.9-6.1,0.9c-2.8,0.1-5.6-0.6-8.1-1.9c-1.1-0.5-2.2-0.7-3.3-0.8
		c-0.3,0-1.9-0.1-1,0.4c6.7,3.4,14.4,4.4,21.9,2.9c1-0.1,1.9-0.4,2.7-0.9c0.5-0.6,1-1.2,1.5-1.9l15.2-19.6l4.6-6l-0.4,0.1l24-0.5
		l37.9-0.8l8.7-0.2l-4.5-1l22,25.3l3.1,3.6c0.4,0.5,1.8,0.6,2.3,0.8c0.8,0.3,1.6,0.3,2.4,0.2c5.6-2.2,10.8-6.3,15-10.6
		c4.3-4.4,7.8-9.6,10.3-15.2c1.5-3.4,2.6-7,3.4-10.7c0.7-3,1.1-6,1-9.1c-0.5-10.8-7.2-20.8-14.1-28.7c-8.9-10.1-19.4-18.7-31-25.5
		c-11.1-6.7-23.2-12.1-36-14.4c-5.3-1.1-10.9-1.4-16.3-0.7c-6.6,1.1-13.2,2.7-19.6,4.7c-14.9,4.7-29.2,11.1-42.6,19.2
		c-11.8,7.1-23.8,15.9-31.5,27.5c-3.7,5.3-5.8,11.6-6,18.1c0.1,6.5,1.9,12.9,5.1,18.7c4.9,8.9,11.5,16.8,19.3,23.3
		c0.4,0.4,0.9,0.8,1.4,1.1c0.9,0.5,1.9,0.8,3,0.9C236.3,378.9,238.2,379,237.9,378.7z" fill="#00ff96"></path><path class="st0" d="M254,360.1c0,0,13.5-18.5,21.2-17.1s14,35.2,10.8,36.1s-38.3,5.4-38.8,0.9S247.3,372.3,254,360.1z" fill="#FFFFFF"></path><path class="st1" d="M256.1,360.7c1.9-2.6,4-5.1,6.2-7.4c1.8-2,3.7-3.8,5.7-5.5c0.9-0.7,1.8-1.4,2.8-2c0.5-0.3,1-0.5,1.5-0.8
		c0.3-0.1-0.1,0-0.1,0l0.4-0.1l0.8-0.2c-0.6,0.2,0.1,0,0.3,0h0.4c0,0-0.5,0-0.2,0h0.6c-0.6-0.1,0,0,0.1,0.1s-0.3-0.2,0,0l0.4,0.2
		c0,0,0.5,0.4,0.3,0.2s0.2,0.2,0.3,0.3c1.2,1.3,2.2,2.8,2.9,4.5c2.1,4.6,3.6,9.3,4.6,14.2c1,4.1,1.6,8.2,1.6,12.4
		c0,0.6-0.1,1.2-0.2,1.8c0.1-0.6,0.1-0.2,0,0s-0.1,0.1,0,0s0.1-0.2,0.4-0.4c-0.2,0.1-0.1,0,0.4-0.2c-0.1,0,0.8-0.3,0.5-0.2
		c-0.5,0.2,0.7-0.1,0.1,0c-0.3,0-0.5,0.1-0.8,0.1c-0.7,0.1-1.4,0.2-2,0.3c-4.5,0.7-9,1.2-13.5,1.6c-4.8,0.5-9.7,0.7-14.5,0.6
		c-0.9,0-1.9-0.1-2.8-0.2l-0.6-0.1c-0.6-0.1,0.3,0.1-0.1,0c-0.3-0.1-0.7-0.1-1-0.2l-0.4-0.1c-0.3-0.1,0.4,0.3,0.1,0
		c-0.1-0.1-0.2-0.1-0.3-0.2c-0.3-0.1,0.1,0.1,0.1,0.1c-0.2-0.4,0,0.2,0,0.1c0-0.1-0.1-0.1-0.1-0.2c0,0,0,0.4,0,0.1
		c0-0.1,0-0.2,0-0.2c0-0.2,0-0.5,0-0.7c-0.2-4.5,1.6-8.4,3.7-12.5c1-1.9,2-3.8,3-5.7c0.6-1.1-0.7-1.9-1.6-1.9
		c-1.2-0.1-2.4,0.5-3.1,1.6c-2,3.5-3.8,7.1-5.4,10.8c-0.9,2-1.4,4.2-1.6,6.4c-0.1,1.4-0.3,3.5,0.7,4.6s3.1,1.4,4.6,1.6
		c4.9,0.7,10.1,0.3,15-0.1c5.2-0.4,10.4-0.9,15.6-1.6c2.6-0.4,7.4-0.3,8.4-3.3c0.4-1.5,0.5-3.1,0.3-4.7c-0.2-2.4-0.5-4.8-0.9-7.1
		c-0.9-5.4-2.3-10.7-4.3-15.8c-1.3-3.3-3.4-8.5-7.3-9.5c-5.4-1.4-10.9,3.2-14.5,6.6c-3.6,3.3-6.8,7-9.8,10.9l-0.5,0.7
		c-0.5,0.6-0.5,1.4,0.1,1.9c0.2,0.2,0.4,0.3,0.6,0.3C253.9,362.1,255.2,361.7,256.1,360.7z" fill="#000005"></path><path class="st0" d="M366.3,359.2c0,0-13.5-18.5-21.2-17.1s-14,35.2-10.8,36.1s38.3,5.4,38.8,0.9S373.1,371.4,366.3,359.2z" fill="#FFFFFF"></path><path class="st1" d="M368.6,360c-2.2-2.9-4.5-5.7-7-8.3c-4.1-4.4-9-8.7-14.9-10.3c-1.9-0.5-3.8-0.7-5.4,0.5
		c-1.4,1.2-2.5,2.7-3.3,4.3c-2.4,4.8-4.1,9.9-5.1,15.1c-1,4.4-1.9,9-1.7,13.5c0.1,1.4,0.2,2.4,1.4,3.2c1.7,0.9,3.5,1.5,5.4,1.7
		c4.6,0.8,9.3,1.3,14,1.7c5.3,0.6,10.7,0.8,16,0.8c1.9,0,3.7-0.2,5.5-0.6c1.2-0.4,1.9-0.8,2-2.1c0.4-4.8-1.5-9.1-3.6-13.3
		C370.8,364,369.7,362,368.6,360c-0.5-0.8-1.9-1.2-2.7-1.5c-0.2-0.1-2.2-0.6-1.9,0c1.9,3.3,3.6,6.7,5.1,10.2c0.9,1.9,1.4,3.9,1.7,6
		c0.1,1,0.4,3.1-0.2,4s-2.1,0.9-3,1.1c-4.4,0.6-9,0.3-13.3,0c-4.9-0.3-9.8-0.8-14.7-1.5c-1.7-0.2-3.4-0.5-5.1-0.7l-0.8-0.1
		c-0.2,0-1-0.3-0.2,0c-0.6-0.2-0.1,0,1.2,0.6c0.5,0.2,1,0.4,1.5,0.7c0-0.2-0.2-0.4-0.2-0.5c-0.3-1.4-0.3-2.7-0.2-4.1
		c0.2-2.1,0.4-4.3,0.8-6.4c0.8-5,2.1-10,3.9-14.8c0.7-2.1,1.7-4.1,2.8-6c0.7-1.4,1.8-2.6,3.1-3.4c0.6-0.3,1.3-0.4,2-0.3
		c-0.2,0,0.5,0.1,0.3,0.1c0.2,0-0.2,0,0.1,0c-0.4,0-0.2-0.1,0,0l0,0l0.1,0.1l0.3,0.2c2.1,1.3,4.1,2.9,5.8,4.7c3.1,3,5.9,6.2,8.5,9.7
		l0.5,0.6c0.7,0.7,1.7,1.3,2.7,1.5C366.9,360,369,360.5,368.6,360z" fill="#000005"></path><path class="st1" d="M350.3,441.4l44.2-1.4l-1.3-38.1c0,0-28.4,5.8-34.7,25.5l-12.7-0.9L350.3,441.4z" fill="#000005"></path><path class="st1" d="M352.3,442.2l14.9-0.5L391,441l5.5-0.2c0.1,0,0.3,0,0.4-0.1l-1.1-33.4l-0.2-4.6c0-0.5-1.6-0.9-2-1
		c-0.9-0.4-1.8-0.5-2.7-0.4c-3.5,0.8-6.9,1.8-10.1,3.2c-6.5,2.6-12.9,6.2-17.8,11.3c-3.1,3.1-5.5,6.9-6.9,11.1l0.8-0.1l-12.7-0.9
		c0.1,0-0.9-0.1-0.8,0.1l4.6,14.9c0.2,0.7,1.7,1,2.3,1.1c0.2,0,2.6,0.5,2.5,0.2l-4.6-14.9l-0.8,0.1l12.7,0.9c0.1,0,0.7,0.1,0.8-0.1
		c4.4-13.3,18.4-20.8,31-24.5c1.2-0.4,2.4-0.7,3.6-0.9l-4.7-1.5l1.1,33.4l0.2,4.6l0.4-0.1l-14.9,0.5l-23.8,0.8l-5.5,0.2
		c-1,0,0.5,0.8,0.7,0.9C350,442,351.1,442.2,352.3,442.2z" fill="#000005"></path><path class="st0" d="M241.6,377.9c0,0-44.4,12.6-36.7,40.5s153.5,23,153.5,23l1.1-26.9C359.4,414.5,275,369.1,241.6,377.9z" fill="#FFFFFF"></path><path class="st1" d="M240,376c-4.8,1.4-9.4,3.3-13.8,5.5c-7.9,4-16.1,9.3-20.7,17.1c-2.5,4-3.7,8.7-3.5,13.4c0,3.4,1,6.7,2.9,9.6
		c3.6,5,9.4,7.9,15,10.1c7.4,2.7,15.1,4.7,22.9,5.9c9.3,1.7,18.8,2.8,28.2,3.6c9.9,0.9,19.8,1.4,29.7,1.8c9.1,0.4,18.2,0.6,27.3,0.6
		c6.9,0,13.8,0,20.8-0.1c3.4,0,6.9-0.1,10.3-0.2h0.5c0.3,0,0.8-0.1,0.8-0.5l1-23.5l0.1-3.4c0-1.3-1.3-2.4-2.3-3
		c-2.9-1.6-5.8-3-8.7-4.5c-7.3-3.6-14.6-7.1-22.1-10.5c-9.7-4.4-19.5-8.4-29.5-12c-9.9-3.7-20.1-6.7-30.4-9
		c-8.4-1.7-17.3-3-25.9-1.5C241.7,375.6,240.8,375.8,240,376c-1,0.3,0,1.9,0.4,2.3c0.6,0.7,1.8,1.7,2.8,1.4c7.8-2,16.2-1,24,0.4
		c10.1,2,20.1,4.7,29.8,8.3c9.9,3.5,19.6,7.4,29.2,11.6c7.7,3.4,15.3,7,22.9,10.7c3.5,1.8,7,3.7,10.5,5.4l0.1,0.1l-2.3-3l-1,23.5
		l-0.1,3.4l0.8-0.5c-2.3,0.1-4.6,0.1-6.9,0.2c-6,0.1-12,0.2-18,0.2c-8.5,0-16.9-0.1-25.4-0.3c-9.6-0.3-19.3-0.7-28.9-1.4
		s-19.2-1.6-28.7-2.9c-8.2-1-16.2-2.7-24.2-4.9c-1.7-0.5-3.3-1-5-1.6l-1.1-0.4l-0.6-0.2c-0.5-0.2,0.2,0.1-0.3-0.1
		c-0.7-0.3-1.4-0.6-2.1-0.9s-1.4-0.6-2-1l-0.9-0.5l-0.4-0.2c-0.5-0.3,0.4,0.2-0.1,0s-1.1-0.7-1.6-1c-0.2-0.2-0.5-0.4-0.7-0.5
		c-0.4-0.3,0.1,0.1,0.1,0.1l-0.4-0.3l-0.6-0.5c-0.2-0.2-0.8-0.8-0.2-0.2c-0.4-0.4-0.7-0.8-1.1-1.2c0.5,0.5,0,0.1-0.1-0.2
		s-0.3-0.4-0.4-0.7s0.2,0.4,0,0.1l-0.2-0.3c-0.1-0.2-0.2-0.5-0.3-0.7l-0.1-0.3c-0.1-0.4,0.1,0.3,0,0c-0.2-0.6-0.3-1.2-0.4-1.8
		c-0.3-1.2-0.4-2.4-0.5-3.7c-0.1-2.2,0.2-4.5,0.8-6.6c2.5-8.6,10.1-15,17.5-19.4c5.6-3.3,11.6-6,17.8-8c0.3-0.1,0.7-0.2,1-0.3
		C244.8,379.2,241.6,375.6,240,376z" fill="#000005"></path><path class="st0" d="M292.3,309c-2.4-5.1-4.9-10.1-7.8-15c-0.6-0.8-1.4-1.5-2.3-2.1c-0.4-0.3-0.8-0.6-1.2-0.8c-0.1,0-0.5-0.2-0.3,0
		c2.8,4.9,5.4,9.9,7.7,15c0.2,0.3,0.5,0.6,0.8,0.9c0.5,0.4,1,0.9,1.5,1.2c0.4,0.3,0.8,0.6,1.2,0.8C292,309.1,292.4,309.3,292.3,309
		L292.3,309z" fill="#FFFFFF"></path><path class="st0" d="M310.6,307.6v-14.5c0-1-4.8-0.1-4.8,1.5v14.5C305.8,310.2,310.6,309.2,310.6,307.6z" fill="#FFFFFF"></path><path class="st2" d="M310.4,282.8v-1.3c0-0.1-0.1-0.3-0.2-0.3c-0.1-0.1-0.3-0.3-0.5-0.3c-0.3-0.1-0.5-0.2-0.8-0.3
		c-0.3-0.1-0.6-0.2-0.9-0.2l-0.7,0c-0.4,0-0.7,0-1.1,0.1l-0.4,0.1c-0.2,0-0.3,0.2-0.4,0.4v1.3c0,0.1,0.1,0.3,0.2,0.3
		c0.1,0.1,0.3,0.3,0.5,0.3c0.2,0.1,0.5,0.2,0.8,0.3c0.3,0.1,0.6,0.1,1,0.2l0.7,0.1c0.4,0,0.8,0,1.1-0.1l0.4-0.1
		C310.2,283.1,310.3,283,310.4,282.8L310.4,282.8z" fill="#00ff96"></path><path class="st0" d="M328.2,309.5c1.8-3.5,3.5-7.1,5.2-10.7c0.1-0.3,0-0.6-0.1-0.8c-0.4-1.1-1-2.1-1.8-3.1c0-0.1-0.6-0.6-0.6-0.5
		c-1.7,3.6-3.4,7.2-5.2,10.7c-0.1,0.2,0,0.6,0.1,0.8c0.4,1.1,1,2.1,1.8,3.1C327.6,309.1,328.1,309.7,328.2,309.5z" fill="#FFFFFF"></path><path class="st0" d="M368.4,372.7c0,0,17-20.6,12.8-24.6s-17.7,10.3-17.7,10.3" fill="#FFFFFF"></path><path class="st1" d="M370.5,374c4.5-5.5,9.1-11.4,12.1-17.9c1.5-3.1,2.8-7-0.8-9.2c-4.2-2.6-8.9,0.4-12.3,3
		c-2.9,2.2-5.7,4.7-8.2,7.3c-1.4,1.5,3,3.8,4.2,2.5c1.8-1.9,3.8-3.8,5.9-5.5c1.6-1.4,3.4-2.7,5.2-3.8c0.8-0.5,1.6-0.8,2.4-1.1
		l0.5-0.2c0.1,0,0.5-0.1,0.2-0.1c0.2,0,0.4-0.1,0.6-0.1c0.5,0-0.1-0.1,0.1,0c-0.4-0.1-0.7-0.2-1-0.5c0.2,0.1-0.4-0.3,0,0
		c-0.1-0.1,0-0.3,0,0.1s0,0,0,0c0,0.1,0,0.2,0.1,0.4c0,0.3,0,0.6,0,0.9c-0.3,1.5-0.8,3-1.5,4.4c-1.9,3.8-4.2,7.4-6.7,10.8
		c-1.6,2.2-3.2,4.3-4.9,6.4C365,373,369.4,375.3,370.5,374L370.5,374z" fill="#000005"></path><polygon class="st1" points="257.6,321.8 360,320.5 348.3,380.9 270.3,382.2 	" fill="#000005"></polygon><path class="st1" d="M255.9,322.3l10.2-0.1l24.4-0.3l29.6-0.4l25.6-0.3l8.4-0.1c1.3,0.1,2.7,0.1,4,0h0.2l-0.8-0.2l-4,20.5
		l-6.3,32.6l-1.4,7.4l4.2-0.8l-26.4,0.5l-42,0.7l-9.6,0.2l0.8,0.2l-4.3-20.5l-6.8-32.4l-1.6-7.5c-0.1-0.6-5.1,0.2-5,0.6l4.3,20.5
		l6.8,32.5l1.6,7.5c0,0.2,0.7,0.2,0.8,0.2l26.4-0.5l42-0.7l9.6-0.2c0.9,0,1.8-0.1,2.7-0.3c0.3,0,1.4-0.2,1.5-0.5l4-20.5l6.3-32.6
		l1.4-7.4c0-0.2-0.8-0.2-0.8-0.2l-10.2,0.1l-24.4,0.3l-29.6,0.4l-25.6,0.3c-4.2,0.1-8.3,0.1-12.5,0.2h-0.2c-1.2,0-2.4,0.1-3.5,0.5
		C255.1,322,255,322.3,255.9,322.3z" fill="#000005"></path><path class="st0" d="M306.8,348.4c0.6-0.2,1.3-0.4,1.9-0.5c-0.9,0.2-0.3,0,0,0l0.5-0.1c0.3,0,0.7-0.1,1-0.1h0.5
		c0.4,0-0.6-0.1-0.3,0h0.3l0.4,0.1l0.2,0.1c0.2,0.1,0.6,0.3-0.2-0.1l0.5,0.2l0.2,0.1c0.2,0.1,0.3,0.3-0.3-0.2l0.4,0.2
		c0.1,0.1,0.1,0.1,0.2,0.2c-0.6-0.4-0.4-0.4-0.2-0.1s0.2,0.3,0.4,0.5c-0.5-0.7-0.1-0.1,0,0.1l0.1,0.2c0.1,0.2,0.1,0.5,0-0.1
		c0.1,0.3,0.2,0.6,0.3,0.9c0,0.1,0,0.3,0.1,0.4c0.1,0.5,0-0.5,0-0.1c0,0.2,0,0.5,0,0.7c0,0.2-0.2,0.8,0,0.1
		c-0.1,0.2-0.1,0.5-0.2,0.7l-0.1,0.3c-0.1,0.2-0.3,0.4,0.1-0.1c-0.1,0.1-0.2,0.3-0.3,0.5s-0.3,0.3-0.4,0.5c-0.3,0.3,0.4-0.4,0.1-0.1
		l-0.3,0.3c-0.2,0.2-0.4,0.3-0.6,0.4l-0.2,0.1c0.6-0.4,0.2-0.1,0,0c-0.2,0.1-0.5,0.2-0.7,0.2c-0.1,0-0.2,0-0.3,0.1
		c0.6-0.2,0.2,0,0,0s-0.5,0-0.7,0h-0.4c-0.4,0,0.6,0.1,0,0c-0.3,0-0.6-0.1-0.9-0.2c-0.1,0-0.3-0.1-0.4-0.1l0.2,0.1l-0.2-0.1
		c-1-0.4-2.6-0.3-3,1c-0.3,1.3,0.4,2.5,1.6,3c2.6,1.1,5.6,0.9,8.1-0.4c2.1-1.2,3.4-3.5,3.4-6c0-2.8-1.4-5.4-3.8-6.9
		c-1.7-1-3.8-1.3-5.7-1.1c-1.2,0.1-2.3,0.4-3.4,0.8c-1,0.4-1.5,1.6-1.1,2.6c0,0.1,0.1,0.2,0.1,0.2
		C304.3,348.1,305.6,348.7,306.8,348.4L306.8,348.4z" fill="#FFFFFF"></path><path class="st0" d="M250.9,375.3c0,0-14.8-20.2-10.2-24.5s16.5,9.7,16.5,9.7" fill="#FFFFFF"></path><path class="st1" d="M253.1,374.3c-3.7-4.8-6.8-10.1-9.2-15.6c-0.7-1.6-1.2-3.2-1.6-4.9c-0.1-0.5-0.1-1,0-1.5
		c0-0.3,0.1-0.5,0.2-0.8c-0.1,0.2,0.3-0.7,0.1-0.2c0.2-0.4,0.3,0,0-0.1l0.1-0.1c-0.2,0.1-0.4,0.2-0.6,0.3c0.5-0.2-0.6,0.1,0,0
		c-0.6,0.1,0.1,0.1-0.3,0c0.7,0.1,1.4,0.3,2.1,0.6c1.7,0.8,3.3,1.9,4.7,3.2c2.3,1.9,4.5,4.1,6.5,6.4c1,1.2,5.6-0.7,4.4-2.1
		c-1.9-2.2-4-4.3-6.2-6.1c-3.2-2.7-7.3-5.7-11.7-4.4c-1.9,0.4-3.4,1.8-4,3.7c-0.2,1.6-0.1,3.2,0.5,4.7c1.4,4.1,3.3,8,5.7,11.6
		c1.6,2.5,3.2,5,4.9,7.4C249.6,377.6,254.2,375.8,253.1,374.3L253.1,374.3z" fill="#000005"></path><path class="st0" d="M279.6,255.8c11.1,13.5,20.4,11.6,17.3,22.2c0,0,21.3,12.9,31.1-5.5c1.5-2.9,13.7-24.7-4-45.8
		c0,0-10.5-11.2-3.2-22.4c0,0-12.9,6.4-22.3,2.2s-26.4-15.2-32.4-6.6s5.4,17.2,14.1,19l-4.4,14.5c8.1,5.8,15.6-2.3,15.6-2.3
		s2.5,11.1-0.9,14.3s-13,0.8-13,0.8C276.5,249.4,277.3,253.1,279.6,255.8z" fill="#FFFFFF"></path><path class="st1" d="M279.4,257.4c3.9,4.7,8.6,8.3,13.5,11.9c0.4,0.3,0.8,0.6,1.2,0.9l0.5,0.4c0.1,0,0.6,0.5,0.3,0.3
		c0.3,0.3,0.6,0.6,0.8,0.9c-0.3-0.3,0,0,0.1,0.1c-0.3-0.7,0,0,0,0.1c-0.2-0.7,0,0,0,0.1c-0.1-0.6,0,0.1,0,0.1c0-0.3,0.1,0.6,0.1,0.6
		c0,1.1-0.2,2.2-0.5,3.3c-0.4,1.5,0.8,3.4,2,4.1c3.7,2.2,7.8,3.6,12.1,4.2c3.4,0.6,6.9,0.2,10.2-0.9c3.9-1.6,7.1-4.4,9.1-8.1
		c2.9-5,4.8-10.5,5.7-16.1c1.5-10.7-1.2-21.5-7.4-30.2c-0.9-1.3-1.9-2.6-3-3.9l-0.2-0.2c-0.4-0.5,0.3,0.4-0.1-0.1s-0.8-1-1.1-1.6
		c0-0.1-0.4-0.7-0.1-0.2l-0.4-0.6c-0.3-0.4-0.5-0.9-0.8-1.4c-0.4-0.9-0.8-1.7-1-2.6c-0.4-1.2-0.6-2.4-0.6-3.6c-0.1-3,0.8-6,2.4-8.5
		c0.6-1-1.3-4.8-2.7-4.1c-4.1,2-8.6,3.2-13.1,3.6c-3.3,0.3-6.6-0.4-9.7-1.8c-2.8-1.3-5.5-2.8-8.3-4.1c-2.9-1.5-5.9-2.7-9-3.8
		c-2.7-1-5.6-1.5-8.5-1.5c-2.4,0.1-4.7,1.3-6.2,3.2c-1.9,2.6-2.4,6-1.4,9c2.4,7.6,10.2,12.8,17.7,14.5l-2.4-4.2l-4.4,14.5
		c-0.4,1.3,0.6,3.1,1.6,3.9c3.3,2.5,7.6,3,11.4,1.4c1.9-0.8,3.7-2,5.2-3.5l-2.6-2.8c0.1,0.5-0.1-0.3,0,0s0.1,0.8,0.2,1.2
		c0.2,1.2,0.4,2.5,0.5,3.7c0.2,2.4,0.4,5.4-1.1,7.4s-5.1,2.1-7.4,1.9c-1.9-0.1-3.8-0.4-5.7-0.8c-0.2,0-0.4,0.1-0.5,0.3
		c-1.4,4.4,0.3,9.4,3,12.8c0.4,0.5,1.4,1.7,2,0.9s-0.4-2.5-0.9-3c-1-1.3-1.6-2.9-1.6-4.5c0-0.6,0.1-1.2,0.2-1.7
		c0.1-0.2,0.1-0.3,0.1-0.5c0-0.1-0.1,0.3,0,0.1l-0.5,0.3c3.6,0.9,7.9,1.5,11.4,0.2c4.6-1.6,4.1-8,3.7-12c-0.2-1.6-0.4-3.3-0.8-4.9
		c-0.1-0.5-1.8-3.7-2.6-2.8c-3.7,4-9.9,5.9-14.6,2.6l1.6,3.9l4.4-14.5c0.4-1.4-0.9-3.9-2.4-4.2c-3.1-0.7-6-2-8.5-3.8
		c-1.2-0.8-2.3-1.8-3.2-2.9c-0.7-0.7-1.2-1.6-1.4-2.6c-0.4-2.6,0.5-5.2,2.5-6.8c1.8-1.4,4.1-1.9,6.4-1.6c5.8,0.4,11.2,3.4,16.3,5.9
		c2.5,1.2,5,2.6,7.5,3.7c2.9,1.3,6.1,1.8,9.3,1.6c4.8-0.3,9.5-1.6,13.9-3.7l-2.7-4.1c-5,8-2,17.8,3.5,24.6c2.7,3.2,5,6.7,6.7,10.5
		c1.8,4.5,2.7,9.3,2.5,14.1c-0.3,6.3-2,12.5-4.9,18.1c-1.5,3.2-3.9,6-6.8,8c-3,1.8-6.4,2.6-9.9,2.4c-4.9-0.3-9.8-1.7-14-4.3l2,4.1
		c0.8-2.3,0.9-4.7,0.3-7.1c-0.8-2.4-2.4-4.6-4.4-6.1c-2-1.6-4.1-3-6.2-4.5c-3-2.3-5.8-5-8.2-7.9c-0.5-0.6-1.5-1.1-1.7-0.1
		S278.8,256.6,279.4,257.4z" fill="#000005"></path><path class="st1" d="M334.6,268.2c0,0,9.4,11.1,15.7,6.2s-2.2-8.7-2.2-8.7s17.5-6.8,7.4-17.4c0,0,16.6-2.8,15.2-17.3
		s-20.8-19.4-20.8-19.4s10.2-13.6-3-20.3s-16.2,3.8-16.2,3.8s-8.4-4.4-12,0.3s0.9,10.6,0.9,10.6s-7.4,15.2,4.4,20.6l-2,24.3
		c0,0-8,3.8-8.6,12.9C312.7,273,328.9,277.5,334.6,268.2z" fill="#000005"></path><path class="st1" d="M332.5,269.6c2.5,3,5.9,6,9.7,7.2c3,0.9,6.2,0.3,8.6-1.7c2.2-1.6,5.1-4.4,3.5-7.3c-1-1.6-2.5-2.8-4.2-3.5
		l-2.6,2.7c2.5-1,4.8-2.3,7-3.9c3-2.1,6.4-5.3,6.4-9.2c0-2.7-1.4-5-3.2-6.8l-3.7,2.8c6.9-1.2,14.6-5.5,17.6-11.9
		c2.2-4.9,1.8-10.6-1-15.2c-2.5-4.1-6.5-7.1-10.6-9.3c-2.5-1.4-5.2-2.5-8-3.2l-0.1,1c3.1-4.2,5.4-10.3,3.2-15.4
		c-1.9-4.4-7.2-7.1-11.7-7.9c-4.1-0.7-8.3,0.5-11.3,3.3c-1.6,1.3-2.8,3.1-3.4,5.1l4.1-2.6c-4.1-2.1-9-2.7-13.1-0.1
		c-2.9,1.9-4.8,4.9-4.3,8.4c0.3,1.9,1,3.8,2.2,5.4l0.1-0.5c-1.3,2.7-2.1,5.7-2.4,8.7c-0.2,2.4,0.1,4.7,1,6.9
		c1.2,2.5,3.3,4.5,5.9,5.6l-0.2-0.4l-1.8,21.2l-0.2,3l2.3-2.1c-5.7,2.7-10.5,8.6-10.9,15.1c-0.4,7.1,7.8,10.5,13.8,9.7
		c4.7-0.6,9-3.3,11.6-7.3c0.6-0.9-1-0.6-1.3-0.4c-1.1,0.4-2.1,1.1-2.7,2.1c-0.3,0.5-0.7,0.9-1.1,1.3c-0.2,0.3-0.5,0.5-0.9,0.6
		c-1,0.4-2.1,0.7-3.2,0.8c-2.7,0.2-5.4-0.4-7.7-1.8c-2.1-1.2-3.7-3.2-4.2-5.6c-0.5-3,0.7-6.5,2.4-9c0.4-0.5,0.8-1,1.3-1.5l0.4-0.4
		c0.1-0.1,0.8-0.7,0.5-0.4l0.5-0.4c0.1-0.1,0.7-0.5,0.4-0.3s1-0.6,0.5-0.3s0.1,0,0.2-0.1c0.8-0.4,1.4-0.9,2-1.5
		c0.3-0.4,0.4-0.8,0.4-1.3l1-12.3l0.9-11.4c0-0.1,0-0.3-0.2-0.3c0,0,0,0,0,0c-4.9-2.2-6.9-6.9-6.4-12c0.2-2.7,0.9-5.4,2.1-7.9
		c0.1-0.1,0.1-0.3,0.1-0.5c-0.8-1.1-1.4-2.4-1.8-3.7c-0.4-1.2-0.5-2.4-0.3-3.6c0.1-0.6,0.3-1.2,0.6-1.8l0.6-0.8c0,0-0.4,0.1-0.4,0.3
		c0.1-0.2,1.9-0.2,2.2-0.2c1,0.1,2.1,0.3,3.1,0.6c1.1,0.3,2.1,0.7,3.1,1.2c0.6,0.3,1.9-0.5,2.3-0.8c0.8-0.4,1.4-1,1.7-1.8
		c0-0.1,0.1-0.2,0.1-0.3c-0.1,0.4,0.1-0.4,0.2-0.5c0.2-0.3,0.4-0.7,0.5-1c0.1-0.1,0.1-0.2,0.2-0.3c-0.2,0.3,0,0.1,0,0
		c0.2-0.2,0.4-0.5,0.6-0.7c-0.4,0.4,0.4-0.4,0.1-0.1s0.1-0.1,0.2-0.1c-0.5,0.2-0.3,0.2-0.1,0.1c0.5-0.3-0.5,0.2,0.1,0l0,0
		c0.2-0.1,0.5-0.2,0.8-0.3c1.6-0.3,3.3-0.2,4.9,0.2c4.1,1,8.6,3.4,10.4,7.5c1.1,2.9,1,6-0.2,8.8c-0.5,1.2-1,2.4-1.7,3.5
		c-0.2,0.4-0.5,0.8-0.7,1.1s0.1-0.1-0.1,0.1s-0.7,0.9-0.1,1c6.1,1.5,11.7,4.7,16.1,9.3c3.4,3.7,5,8.7,4.4,13.7
		c-0.3,2.1-1.1,4.1-2.4,5.8c-0.2,0.2-0.6,0.8-0.7,0.8s-0.4,0.4-0.6,0.6s-0.6,0.5-0.3,0.3l-0.5,0.4c-0.1,0.1-0.5,0.4-0.2,0.1
		l-0.6,0.4c-0.2,0.1-0.7,0.4-0.2,0.1c-0.4,0.2-0.9,0.5-1.3,0.7s0.1,0-0.2,0.1l-0.6,0.2c-0.4,0.2-0.8,0.3-1.2,0.5s0.3-0.1-0.2,0.1
		l-0.5,0.1c-0.5,0.2-1.1,0.3-1.6,0.4c-0.3,0.1-0.9,0.2-0.2,0.1c-0.6,0.1-4.6,1.9-3.7,2.8c1.7,1.8,3.3,4.2,3.1,6.8
		c-0.2,1.8-1,3.4-2.3,4.6c-0.2,0.2-0.4,0.3-0.5,0.5s-0.2,0.2,0,0l-0.3,0.3l-0.5,0.4c-0.6,0.4,0.1,0-0.3,0.2l-1.1,0.7
		c-0.5,0.3,0.4-0.2,0,0l-0.6,0.3l-0.9,0.5c-0.7,0.4,0.3-0.1-0.3,0.1l-0.7,0.3c-0.5,0.2-3.8,2.2-2.6,2.7c1.1,0.5,2.1,1.2,2.9,2
		c0.7,0.6,1.1,1.4,1.4,2.3c0.1,0.4,0,0.9-0.1,1.3c-0.2,0.5-0.7,0.8-0.9,1.2c-0.1,0.2-0.1,0,0.2,0c0.1,0-0.2,0.1-0.3,0.1
		c-0.4,0.1-0.9,0.1-1.4,0.1c-1-0.1-2.1-0.4-3-0.8c-2-1-3.9-2.2-5.5-3.8c-1-0.9-1.9-1.8-2.7-2.7C335.9,265.9,331.9,268.8,332.5,269.6
		z" fill="#000005"></path><path class="st0" d="M320.3,228c0,0,8.2-8.2,13.6-1.6s-6.9,29.5-18.4,20.4" fill="#FFFFFF"></path><path class="st1" d="M322.3,229.5c1.7-1.8,3.9-3.1,6.3-3.8c0.9-0.3,1.8-0.4,2.7-0.3c0.4,0,0.9,0.1,1.3,0.2c0.2,0.1,0.4,0.2,0.6,0.2
		s1.8,1.3-0.6-0.5c-1.3-0.9-0.7-0.6-0.5-0.3c0.7,1,1.1,2.2,1.2,3.4c0.1,3.2-0.7,6.4-2.2,9.2c-1.5,3.1-3.7,5.8-6.5,7.8
		c-1.4,1-3,1.6-4.8,1.8c-0.9,0.1-1.7,0-2.6-0.2c-0.4-0.1-0.8-0.3-1.2-0.4l-0.5-0.2c0,0,0.7,0.5,0.2,0.1c-0.2-0.1-2-1.5-2.2-1.3
		s1.7,1.7,1.8,1.8c3.4,2.6,7.2,4.4,11.3,2.6c3.5-1.5,6.1-4.8,7.9-8c1.7-3.1,3-6.9,2.6-10.4c-0.2-1.6-0.9-3-2-4.1
		c-1.9-2-4.8-4.4-7.7-4.7c-3.4-0.3-6.9,1.9-9.2,4.2C318.2,226.7,321.9,230.1,322.3,229.5L322.3,229.5z" fill="#000005"></path><path class="st1" d="M306.7,216c-1-0.3-2.1,0.2-2.4,1.2c0,0.1-0.1,0.2-0.1,0.3c-0.4,2.1,2.1,2.5,3,0.9c0.5-0.7,0.4-1.7-0.3-2.2
		C306.8,216.1,306.7,216,306.7,216z" fill="#000005"></path></g><g id="cat"><path class="st1" d="M211,433.2c0,0-130.1,2.7-133.7-1.3s8-21.6,20.3-19.3c0,0,3-9.6,4.9-9.6s6.7,9.3,6.7,9.3s19.4-20,44.8-25
		S222.6,408.9,211,433.2z"></path><path class="st1" d="M132.5,434.6c-28.4,0-53.9-0.5-55.6-2.4c-1.4-1.5-1-4.6,1-8.2c3.1-5.6,10.7-13.2,19.3-12
		c1-3.2,3.3-9.6,5.2-9.6s5.4,6.3,6.8,9c3.2-3.1,21.5-20.1,44.6-24.6c16.8-3.3,41.8,7,53.5,22.1c6.4,8.3,7.9,16.8,4.2,24.5l-0.1,0.3
		H211C203.8,433.9,166.1,434.6,132.5,434.6z M95.3,412.9c-7.3,0-13.8,6.6-16.5,11.6c-1.8,3.2-2.2,6-1.2,7.1
		c2.8,2.8,81,2.2,133.1,1.2c4.2-9.2,0-17.7-4.2-23.2c-11.5-14.8-36-25-52.5-21.8c-24.9,4.9-44.3,24.6-44.5,24.8l-0.5,0.5l-0.3-0.6
		c-2.3-4.4-5.4-9-6.3-9s-2.8,4.4-4.4,9.3l-0.1,0.4l-0.4-0.1C96.7,413,96,412.9,95.3,412.9z"></path><path class="st1" d="M206.3,432.5c-0.9,0.1,0.7,0,0.7,0c0.5,0,0.9,0,1.4,0c0.8,0,1.5,0,2.3,0.1c0.8,0.1,1.6,0.2,2.4,0.3l1.4,0.3
		l0.9,0.2c0.5,0.1,0.6,0.1,0.3,0.1c2.3,0.7,4.6,2.1,4.3,4.9c-0.1,1.3-0.6,2.5-1.5,3.4c0.2-0.2,0.3-0.2-0.1,0
		c-1.1,0.7,0.7-0.2-0.5,0.3s0.6-0.6-0.4,0.2c-0.5,0.2-0.5,0.2,0.1,0c-0.3,0.1-0.5,0.2-0.8,0.2s-1.5,0.5-0.3,0.1
		c-0.3,0.1-0.5,0.1-0.8,0.2c-0.9,0.2-1.8,0.3-2.7,0.5c-1.9,0.3-3.9,0.6-5.8,0.9c-1,0.1-1.9,0.2-2.9,0.3l-0.7,0.1l-1,0.1
		c-2.1,0.1-4.2,0.2-6.4,0.3c-3.6,0.1-7.2,0-10.8-0.2c-7.1-0.4-14.4-0.7-21.4,0.8c-4.6,1-9.2,2.5-12.9,5.4c-2.8,2.2-5.4,5.7-4.2,9.5
		c0.6,1.9,4.2,1.3,5.5,0.8s4.7-1.8,4.1-3.7c-0.4-1.2-0.2-2.5,0.5-3.5c0.3-0.5,0.6-0.9,1.1-1.3c0.1-0.1,1.1-0.8,0.3-0.3
		c0.2-0.1,1.6-0.9,0.5-0.4c0.4-0.2,0.8-0.4,1.1-0.5c0.1-0.1,1.5-0.6,0.4-0.2c0.8-0.3,1.7-0.5,2.5-0.8c1.4-0.4-1,0.2,0.4-0.1l0.9-0.2
		c1-0.2,2-0.3,3-0.4c1.4-0.2-0.9,0,0.5,0l1.3-0.1c0.9,0,1.8-0.1,2.6-0.1c1.9,0,3.9,0,5.8,0.1c3.6,0.1,7.2,0.4,10.8,0.5
		c8.2,0.1,16.5-0.6,24.6-2c6.8-1.2,17.4-4.4,16.7-13.2c-0.3-4.1-4.1-5.9-7.6-6.8c-4.8-1.1-9.7-1.4-14.5-0.9c-1.7,0.2-5,1.4-5.4,3.4
		C201.7,432.9,205.1,432.6,206.3,432.5L206.3,432.5z"></path><path class="st0" d="M87.1,419.7c-0.1,0.5,0,0.9,0.2,1.4c0.4,0.5,0.9,0.7,1.5,0.8c1.3,0.1,2.6-0.3,3.6-1.2c0.2-0.1,0.3-0.4,0.3-0.6
		c0-0.2-0.1-0.4-0.3-0.4c-0.6-0.1-1.2,0.1-1.6,0.5l0.1-0.1l-0.1,0.1c-0.2,0.1,0.3-0.1,0.1-0.1l-0.1,0.1l-0.1,0l0.2-0.1
		c0,0-0.1,0-0.2,0h-0.2c0.3-0.1,0.2,0,0.1,0h-0.2c-0.2,0,0.2,0,0.1,0h-0.3c0,0-0.2,0-0.1,0s0,0-0.1,0c-0.1,0-0.2-0.1-0.3-0.1
		l0.2,0.1c-0.1-0.1-0.3-0.2-0.4-0.3l0.1,0.1c-0.1-0.1-0.2-0.3-0.2-0.5v0.2c0-0.3,0-0.5,0-0.8c0-0.2-0.2-0.3-0.3-0.4
		c-0.3-0.1-0.5-0.1-0.8,0c-0.3,0.1-0.6,0.3-0.8,0.5C87.2,419.2,87.1,419.4,87.1,419.7L87.1,419.7z"></path></g><g id="screen"><path class="st2" d="M65.4,125.5h113.5c5.7,0,10.3,4.6,10.3,10.3v87c0,5.7-4.6,10.3-10.3,10.3H65.4c-5.7,0-10.3-4.6-10.3-10.3v-87
		C55.1,130.1,59.7,125.5,65.4,125.5z"></path><path class="st2" d="M179.4,230.9H67.8c-1.8,0.1-3.5-0.1-5.2-0.6c-3.6-1.5-5-5-5-8.6v-83.8c0-2-0.1-3.9,0.8-5.8
		c0.7-1.4,1.7-2.6,3-3.4c0.6-0.4,1.3-0.6,2-0.8c0.3-0.1,0.5-0.1,0.8-0.2c0.2,0,1.5-0.1,0.7-0.1h109c1.4,0,2.8,0,4.3,0
		c4.7-0.1,8.5,3.6,8.6,8.2c0,0.1,0,0.1,0,0.2c0.1,4.2,0,8.5,0,12.8v58c0,5.3,0,10.6,0,15.9c0.1,4.4-3.3,8-7.7,8.1
		c-0.1,0-0.2,0-0.3,0c-1.3,0.1-2.3,1.2-2.4,2.5c0.1,1.4,1.4,1.9,2.6,1.9c7-0.2,12.6-5.9,12.7-12.9c0-1.5,0-3.1,0-4.6v-78.7
		c0-1.2,0-2.4,0-3.6c-0.2-6.7-5.6-12.1-12.3-12.2c-4,0-8,0-12.1,0H66.6c-4.5,0-8.7,1.5-11.5,5.2c-2,2.8-2.5,5.8-2.5,9.1v84.4
		c-0.2,4.2,1.8,8.3,5.2,10.8c4.2,3,9.7,2.3,14.5,2.3h106c1.3,0.1,2.5-0.7,2.9-1.9c0.2-1.1-0.4-2.1-1.5-2.4
		C179.7,230.9,179.5,230.9,179.4,230.9z"></path><rect class="st0" x="67.1" y="161.2" width="4.2" height="3.3"></rect><rect class="st0" x="81.7" y="161.1" width="35" height="3.3"></rect><rect class="st1" x="127.2" y="160.8" width="10.8" height="3.3"></rect><rect class="st0" x="146.3" y="161" transform="matrix(0.9998 -1.902294e-02 1.902294e-02 0.9998 -3.0658 2.9943)" width="19.1" height="3.3"></rect><rect class="st0" x="67.1" y="170.9" width="4.2" height="3.3"></rect><rect class="st1" x="81.8" y="170.8" width="21.9" height="3.3"></rect><rect class="st0" x="110.2" y="170.5" width="6.8" height="3.3"></rect><rect class="st0" x="122.2" y="170.6" transform="matrix(0.9999 -1.657987e-02 1.657987e-02 0.9999 -2.838 2.2686)" width="26.4" height="3.3"></rect><rect class="st0" x="67.1" y="181.3" width="4.2" height="3.3"></rect><rect class="st0" x="81.8" y="181.2" width="23.5" height="3.3"></rect><rect class="st1" x="112.3" y="180.9" width="7.3" height="3.3"></rect><rect class="st0" x="125.2" y="181" transform="matrix(0.9996 -2.792164e-02 2.792164e-02 0.9996 -5.0503 3.7469)" width="12.9" height="3.3"></rect><rect class="st0" x="67.2" y="191" width="4.2" height="3.3"></rect><rect class="st1" x="81.8" y="190.9" width="27.2" height="3.3"></rect><rect class="st0" x="117.1" y="190.6" width="8.4" height="3.3"></rect><rect class="st0" x="107.1" y="207.1" width="4.2" height="3.3"></rect><rect class="st1" x="121.8" y="207.1" width="23.5" height="3.3"></rect><rect class="st0" x="152.3" y="206.7" width="7.3" height="3.3"></rect><rect class="st0" x="165.2" y="206.9" transform="matrix(0.9996 -2.792164e-02 2.792164e-02 0.9996 -5.7569 4.8729)" width="12.9" height="3.3"></rect><rect class="st0" x="107.1" y="216.8" width="4.2" height="3.3"></rect><rect class="st0" x="121.8" y="216.8" width="27.2" height="3.3"></rect><rect class="st1" x="157.1" y="216.4" width="8.4" height="3.3"></rect><path class="st1" d="M72.1,139.6l-5.5,4.7c-0.5,0.4-0.5,0.7-0.1,1.1c1.7,2.2,3.9,3.9,6.4,5.1c1.1,0.6,2.4,0.7,3.5,0.3
		c0.3-0.1,0.8-0.3,0.8-0.7s-0.4-0.7-0.7-0.9c-0.6-0.3-1.1-0.6-1.7-0.9l-0.4-0.3c0,0-0.4-0.3-0.2-0.1c-0.3-0.2-0.5-0.4-0.8-0.6
		c-1-0.8-1.9-1.7-2.7-2.7l-0.1,1.1l5.5-4.7c0.3-0.2,0.5-0.5,0.3-0.8c-0.3-0.4-0.6-0.7-1.1-0.8c-0.6-0.2-1.3-0.3-1.9-0.3
		C73.1,139.2,72.6,139.3,72.1,139.6L72.1,139.6z"></path><path class="st1" d="M86.6,138.6c-2.4,4-4.4,8.1-6,12.5c-0.2,0.9,0.3,1.8,1.2,2.1c0.2,0,0.3,0.1,0.5,0.1c1.3,0.1,2.5-0.6,3-1.8
		c0.8-2,1.6-4.1,2.5-6c0.1-0.1,0.1-0.1,0,0L88,145c0.1-0.3,0.3-0.5,0.4-0.8c0.2-0.5,0.5-0.9,0.7-1.4c0.5-1,1.1-1.9,1.7-2.9
		c0.5-0.7,0.4-1.8-0.4-2.3c-0.2-0.1-0.3-0.2-0.5-0.2C88.7,137.1,87.3,137.6,86.6,138.6L86.6,138.6z"></path><path class="st1" d="M93.2,142.1l2.5,2.1l1.2,1.1c0.2,0.2,0.9,0.6,1,0.9c0,0.1-0.3,0.4-0.4,0.5l-0.5,0.7l-1,1.3l-2.1,2.6
		c-0.7,0.9,0.8,0.6,1.2,0.5c1.1-0.3,2.2-0.8,3-1.7l2.2-2.8l1.1-1.4c0.3-0.4,0.9-0.9,1-1.4s-0.4-0.8-0.8-1.1l-1.5-1.2l-2.8-2.3
		c-0.2-0.2-1,0-1.2,0.1c-0.6,0.2-1.2,0.4-1.8,0.8C94,140.7,92.6,141.5,93.2,142.1L93.2,142.1z"></path><circle class="st1" cx="178.3" cy="133.8" r="1.8"></circle><path class="st1" d="M177.7,134.2c0,0.2,0,0.5-0.1,0.7l0.1-0.4c-0.1,0.2-0.2,0.3-0.3,0.4l0.3-0.4c-0.1,0.1-0.2,0.2-0.3,0.3l0.4-0.3
		c-0.1,0.1-0.2,0.1-0.3,0.2l0.5-0.3c-0.1,0-0.1,0.1-0.2,0.1l0.6-0.2l-0.3,0.1l0.6-0.1h-0.2l0.6-0.1H179h0.6c-0.1,0-0.3,0-0.4-0.1
		l0.4,0.1c-0.2-0.1-0.3-0.1-0.5-0.2l0.3,0.2c-0.2-0.2-0.4-0.3-0.5-0.6l0.2,0.3c-0.1-0.3-0.2-0.5-0.2-0.8v0.4c0-0.3,0-0.5,0.1-0.8
		l-0.1,0.4c0.1-0.2,0.1-0.3,0.2-0.4l-0.3,0.4c0.1-0.1,0.2-0.2,0.3-0.3l-0.4,0.4l0.3-0.2l-0.5,0.3l0.2-0.1l-0.6,0.2
		c0.1,0,0.2-0.1,0.3-0.1l-0.6,0.1h0.2l-0.6,0.1h0.3l-0.5-0.1c0.1,0,0.3,0,0.4,0.1l-0.4-0.1c0.2,0.1,0.3,0.1,0.5,0.2l-0.3-0.2
		c0.2,0.1,0.4,0.3,0.5,0.6l-0.2-0.3c0.1,0.2,0.2,0.5,0.2,0.8V134L177.7,134.2c-0.1,0.1,0,0.3,0.1,0.5c0.1,0.2,0.2,0.3,0.4,0.4
		c0.5,0.2,1.1,0.2,1.6,0.1c0.6-0.1,1.3-0.3,1.8-0.7l0.4-0.4c0.2-0.2,0.4-0.5,0.4-0.8c0-0.3,0-0.6-0.1-0.9c-0.1-0.3-0.3-0.6-0.4-0.8
		c-0.1-0.2-0.3-0.3-0.4-0.4c-0.2-0.2-0.5-0.4-0.8-0.5c-0.5-0.2-1-0.3-1.5-0.3c-0.6,0-1.2,0.1-1.8,0.3c-0.6,0.2-1.1,0.4-1.6,0.8
		c-0.2,0.1-0.4,0.3-0.6,0.5l-0.2,0.2c-0.5,0.5-0.8,1.1-0.9,1.7c0,0.3,0,0.6,0.1,0.9c0.1,0.3,0.2,0.6,0.4,0.8
		c0.1,0.2,0.2,0.3,0.4,0.4c0.2,0.2,0.5,0.4,0.8,0.5c0.8,0.3,1.8,0.4,2.6,0.2c0.3-0.1,0.7-0.1,1-0.2c0.5-0.2,0.9-0.4,1.4-0.6l0.3-0.2
		c0.2-0.2,0.4-0.3,0.6-0.5c0.5-0.5,0.8-1.2,0.9-1.9c0.1-0.2,0-0.4-0.1-0.5c-0.1-0.2-0.2-0.3-0.4-0.4c-0.5-0.2-1.1-0.3-1.6-0.1
		c-0.6,0.1-1.3,0.3-1.8,0.7l-0.4,0.3C177.9,133.6,177.7,133.9,177.7,134.2z"></path><path class="st2" d="M237.4,69.2c-10.8-0.8-22.2,5.3-26.1,15.7c-1.9,5-1.6,11.5,3,14.9c3.6,2.7,9.7,3.4,13.2,0.1
		c1.9-1.7,2.6-4.7,0.6-6.7s-5.5-2.5-8.2-2.1c-5.5,0.9-10,5.1-11.1,10.6c-1.4,6.3,0.9,12.6,3.7,18.1c3,5.9,6.3,11.4,7.9,17.9
		s2.3,14-1,20c-2.2,4-8.1,8.2-12.6,5.2c-1-0.8-2.3-0.9-3.4-0.3c-1,0.7-0.5,1.8,0.3,2.3c4.2,2.8,9.7,3,14.1,0.6
		c4.6-2.3,7.3-6.9,8.3-11.8c1.1-5.4,0.4-11.2-1-16.5c-1.6-5.9-4.4-11.1-7.2-16.5c-2.7-5-5.2-10.7-4.4-16.6c0.6-4.4,3.6-9.1,8.3-9.8
		c0.8-0.1,1.6-0.1,2.4,0.1c0.5,0.1,0.3,0.3,0.2,0c0.1,0.1,0.2,0.3,0.2,0.4c0,0.6-0.1,1.2-0.4,1.7c-0.8,1.3-2.3,2.1-3.8,2
		c-1.4,0-2.6-0.6-3.5-1.7c-1.4-1.9-1.9-4.3-1.6-6.6c1-10.8,12.4-18.8,22.8-18c0.9,0.1,2.3-0.3,2.2-1.4S238.3,69.2,237.4,69.2
		L237.4,69.2z"></path></g><g id="code"><path class="st1" d="M267.5,41.2h74.2c3,0,5.4,2.4,5.4,5.4v47.1c0,3-2.4,5.4-5.4,5.4h-74.2c-3,0-5.4-2.4-5.4-5.4V46.5
		C262.1,43.6,264.5,41.2,267.5,41.2z"></path><path class="st1" d="M341.7,99.6h-74.2c-3.2,0-5.9-2.6-5.9-5.9V46.5c0-3.2,2.6-5.9,5.9-5.9h74.2c3.2,0,5.9,2.6,5.9,5.9v47.2
		C347.5,96.9,344.9,99.6,341.7,99.6z M267.5,41.7c-2.7,0-4.9,2.2-4.9,4.9v47.1c0,2.7,2.2,4.9,4.9,4.9h74.2c2.7,0,4.9-2.2,4.9-4.9
		V46.5c0-2.7-2.2-4.9-4.9-4.9L267.5,41.7z"></path><path class="st0" d="M289.1,51.8c-3-1.5-6.2,0.6-7.3,3.5c-1.5,3.9,0.1,8.1-0.4,12.1c-0.2,1.8-1,3.9-2.7,4.8
		c-0.2,0.1-0.5,0.2-0.7,0.3c-0.2,0-0.4,0-0.6,0l0.8,1c0.5,1.2,0.8,1.4,1,0.6c0.1-0.1,0.2-0.2,0.4-0.3c0.4-0.3,0.8-0.4,1.3-0.4
		c0.4,0,0.8,0.2,1.2,0.3c-0.2,0.3-0.6-1.4-0.7-0.8c0,0.2,0.2,0.5,0.2,0.6c0.1,0.5,0.1,1,0.1,1.5c-0.1,1.1-0.2,2.1-0.5,3.1
		c-0.6,1.8-0.9,3.7-0.8,5.6c0.3,2.2,1.3,4.2,2.9,5.7c1.5,1.6,3.6,2.6,5.9,2.8c0.8,0.1-0.4-1.7-0.5-1.8c-0.5-0.7-1.4-2-2.3-2.1
		c-1.1-0.2-2.1-0.5-3.1-0.8c0.2-0.3,0.6,1.7,0.7,0.7c0-0.2-0.1-0.4-0.1-0.7c-0.1-0.5-0.1-1-0.1-1.4c0.1-2.3,1-4.4,1.3-6.6
		c0.3-2.1-0.3-4.3-1.6-6.1c-1.1-1.7-2.9-3.8-5-4c-0.8-0.1-1.6,0.2-2.2,0.8c-0.6,0.9-0.2,1.9,0.2,2.7c1,1.7,3,4.2,5.2,3.3
		c1.8-0.7,2.7-3,3-4.7c0.3-2.2,0.3-4.4,0-6.6c-0.2-2.5-0.3-5.3,1.3-7.4c1.2-1.6,3.5-2.9,5.5-2c1,0.5,0.3-0.9,0.1-1.2
		C290.9,53.1,290.1,52.3,289.1,51.8L289.1,51.8z"></path><path class="st0" d="M301.7,91.4l2.2-2.1c0.2-0.1,0.3-0.4,0.3-0.6c0.1-0.2,0.1-0.4,0-0.7c-0.1-0.2-0.2-0.4-0.4-0.6
		c-0.2-0.2-0.4-0.4-0.7-0.5c-0.6-0.3-1.3-0.4-1.9-0.3c-0.6,0-1.1,0.3-1.5,0.6l-2.2,2.1c-0.2,0.1-0.3,0.4-0.3,0.6
		c-0.1,0.2-0.1,0.4,0,0.7c0.1,0.2,0.2,0.4,0.4,0.6c0.2,0.2,0.4,0.4,0.7,0.5c0.6,0.3,1.3,0.4,1.9,0.3C300.8,92,301.3,91.8,301.7,91.4
		z"></path><path class="st0" d="M311.3,92l0.6-0.6c0.2-0.2,0.3-0.4,0.4-0.6c0.1-0.2,0.1-0.5,0.1-0.7c0-0.3-0.2-0.5-0.3-0.7
		c-0.2-0.2-0.4-0.4-0.6-0.6l-0.6-0.3c-0.4-0.2-0.9-0.2-1.3-0.2l-0.6,0.1c-0.4,0.1-0.7,0.3-1,0.5l-0.6,0.6c-0.2,0.2-0.3,0.4-0.4,0.6
		c-0.1,0.2-0.1,0.5-0.1,0.7c0,0.3,0.2,0.5,0.4,0.7c0.2,0.2,0.4,0.4,0.6,0.6l0.6,0.3c0.4,0.2,0.9,0.2,1.3,0.2l0.6-0.1
		C310.6,92.4,311,92.2,311.3,92L311.3,92z"></path><path class="st0" d="M320.9,54.7c0.8-0.4,2.5,1.4,2.9,2.1c1.1,1.9,0.9,4.4,0.8,6.5c-0.3,4-0.8,9.4,3.2,12c2.2,1.3,5.1,0.8,6.6-1.3
		c1.6-2.2-0.3-4.4-2.6-4.8c-4.8-0.7-8.1,4.1-7.6,8.5c0.3,2.4,1.4,4.7,1.3,7.2c0,0.9-0.2,1.7-0.7,2.4c-0.6,0.7-1.7,0.7-2.6,0.8
		c-1.1,0.2-2.5,0.9-2.5,2.2s1.4,1.7,2.4,1.5c2.1-0.2,4.2-0.9,5.9-2.2c1.3-1.2,2.2-2.8,2.4-4.6c0.1-1.8-0.1-3.6-0.6-5.4
		c-0.5-1.8-1.1-3.8-0.4-5.7c0.2-0.4,0.4-0.8,0.7-1.1c0,0,0-0.1,0,0l0.1,0.1l0.1-0.3c0.3-0.2,1.2-0.3,1-0.6s-0.6-0.6-0.8-0.8
		c-0.3-0.3-0.5-0.7-0.6-1.1c-0.3-0.8-0.5-1.7-0.6-2.6c-0.3-4,1.1-8.1-0.5-12c-1.6-3.8-5.9-5.6-9.7-4.1c-0.2,0.1-0.4,0.2-0.5,0.2
		c-0.9,0.5-1.6,1.7-0.9,2.7S320,55.1,320.9,54.7L320.9,54.7z"></path><path class="st1" d="M386.3,130.2h53.2c3,0,5.4,2.4,5.4,5.4v31c0,3-2.4,5.4-5.4,5.4h-53.2c-3,0-5.4-2.4-5.4-5.4v-31
		C381,132.6,383.4,130.2,386.3,130.2z"></path><path class="st1" d="M439.5,172.5h-53.2c-3.2,0-5.9-2.6-5.9-5.9c0,0,0,0,0,0v-31c0-3.2,2.6-5.9,5.9-5.9l0,0h53.2
		c3.2,0,5.9,2.6,5.9,5.9v31C445.4,169.9,442.8,172.5,439.5,172.5z M386.3,130.7c-2.7,0-4.9,2.2-4.9,4.9v31c0,2.7,2.2,4.9,4.9,4.9
		h53.2c2.7,0,4.9-2.2,4.9-4.9v-31c0-2.7-2.2-4.9-4.9-4.9H386.3z"></path><path class="st0" d="M394.7,143.5c-2.2,2.1-4.4,4.2-6.5,6.4c-1.1,1.2-0.5,2.5,0.8,3.2l10.2,6.3c1.1,0.6,2.5,0.4,3.3-0.6
		c0.7-1.2-0.1-2.2-1.1-2.8l-10.2-6.3l0.7,3.2c2.1-2.2,4.3-4.3,6.5-6.4C400.6,144.5,396.6,141.7,394.7,143.5L394.7,143.5z"></path><path class="st0" d="M414.5,139.3c-1.4,7.8-3.2,15.6-5.4,23.2c-0.3,1.1,0.3,2.2,1.4,2.5c0.1,0,0.2,0.1,0.3,0.1
		c1.3,0.1,2.6-0.7,2.9-2c2.3-7.6,4.1-15.4,5.5-23.2C419.7,136.7,415,136.4,414.5,139.3L414.5,139.3z"></path><path class="st0" d="M426.2,146.3c1.4,0.9,2.8,1.9,4.1,2.9c0.1,0.1,0.3,0.2,0.1,0.1l0.5,0.4l1,0.8l1,0.8l0.4,0.3
		c0.3,0.3,0,0-0.1-0.2c-0.1-0.5-0.1-0.9,0.1-1.4c0.1-0.1,0.2-0.1,0,0l-1.1,0.8l-2.2,1.6l-4.3,3.2c-1,0.8-1.2,2.2-0.5,3.3
		c0.6,0.9,2.1,1.7,3.2,0.9l5.2-3.9c0.8-0.6,1.6-1.2,2.5-1.8c1.2-0.8,1.7-2.2,1.4-3.6c-0.5-2.1-2.6-3.4-4.3-4.7s-3.4-2.5-5.2-3.7
		c-0.9-0.6-2.1-0.4-2.8,0.5c-0.1,0.1-0.2,0.2-0.2,0.4C424.5,144.2,425,145.6,426.2,146.3L426.2,146.3z"></path><path class="st2" d="M367.6,77.9c7.9,3.4,14.3,9.5,17.9,17.3c0.6,1,1.9,1.4,3,0.8c0.9-0.3,2.3-1.4,1.8-2.5
		c-4.1-8.7-11.3-15.5-20.1-19.2C368,73.5,364.8,76.7,367.6,77.9z"></path><path class="st2" d="M389.1,106.5v3c0,0.3,0,0.6,0.1,0.8c0.1,0.3,0.2,0.5,0.5,0.7c0.2,0.2,0.5,0.4,0.8,0.4c0.3,0.1,0.6,0.2,0.9,0.2
		c0.7,0,1.3-0.2,1.8-0.6l0.4-0.4c0.2-0.3,0.4-0.6,0.4-1v-3c0-0.3,0-0.6-0.1-0.8c-0.1-0.3-0.2-0.5-0.5-0.7c-0.2-0.2-0.5-0.4-0.8-0.4
		c-0.3-0.1-0.6-0.2-0.9-0.2c-0.7,0-1.3,0.2-1.8,0.6l-0.4,0.4C389.3,105.7,389.2,106.1,389.1,106.5L389.1,106.5z"></path></g></svg>