<svg transform="scale(1)" id="qkHBWEzt4R" xmlns="http://www.w3.org/2000/svg" viewBox="0 0 500 500" class="pbimage_pbimage__wrapper__image__0LEis false"><title>Coding 4</title><defs><style> .cls-1{fill:#fff;} .cls-2{fill:#f5d94a;} .cls-3{opacity:.22;} .cls-4{opacity:.44;} .cls-5{fill:#231f20;}
 .cls-5{fill:#231F20;}
 .cls-2{fill:#00ff96;}
 .cls-1{fill:#FFFFFF;}</style></defs><g id="laptop"><g><path class="cls-5" d="M394.53,132.1c-1.58-1.71-3.92-2.16-6.1-2.53-16.59-2.8-263.07-2.8-279.66,0-2.18,.37-4.51,.83-6.1,2.53-2.11,2.28-2.19,5.96-2.12,9.23,.89,43.36,1.78,86.73,2.67,130.09,.44,21.49,.89,43.03,3.16,64.38,.44,4.16,1.28,8.89,4.54,11.01,2.08,1.35,5.81,1.64,8.22,1.77,19.03,1.06,239.88,1.06,258.91,0,2.4-.13,6.14-.42,8.22-1.77,3.26-2.12,4.1-6.85,4.54-11.01,2.28-21.35,2.72-42.88,3.16-64.38,.89-43.36,1.78-86.73,2.67-130.09,.07-3.27,0-6.95-2.12-9.23Z"></path><path class="cls-5" d="M395.87,131.49c-2.79-2.78-7.16-3.02-10.93-3.27-3.19-.21-6.38-.33-9.57-.45-10.39-.36-20.78-.54-31.17-.69-14.22-.21-28.44-.33-42.66-.42-16.2-.1-32.41-.15-48.61-.15-16.34,0-32.69,.03-49.03,.11-14.72,.08-29.45,.19-44.17,.38-11.08,.14-22.16,.32-33.24,.64-5.71,.17-11.59,.09-17.25,.92-1.97,.29-4,.69-5.76,1.67-2.39,1.32-3.68,3.61-4.14,6.24-.58,3.36-.2,6.92-.13,10.31,.08,3.94,.16,7.88,.24,11.83,.32,15.47,.64,30.95,.95,46.42,.64,30.96,.96,61.95,2.04,92.91,.27,7.6,.62,15.2,1.15,22.78,.27,3.8,.58,7.59,.94,11.38,.31,3.18,.48,6.47,1.38,9.55,.68,2.36,1.88,4.71,4.05,6.02s5.05,1.6,7.56,1.79c1.21,.09,2.42,.13,3.64,.17,7.82,.24,15.64,.28,23.46,.35,13.1,.12,26.21,.18,39.31,.23,15.98,.06,31.96,.09,47.95,.1,16.8,.01,33.61,0,50.41-.02,15.21-.03,30.43-.07,45.64-.15,11.43-.06,22.85-.13,34.28-.27,3.69-.05,7.37-.1,11.06-.19,4.17-.1,8.78,.06,12.64-1.62,5.24-2.28,5.98-8.58,6.49-13.58,.79-7.67,1.36-15.37,1.77-23.07,.83-15.34,1.08-30.7,1.39-46.06,.64-31.14,1.28-62.29,1.92-93.43,.15-7.49,.31-14.98,.46-22.47,.07-3.43,.25-6.89,.18-10.32-.06-2.72-.41-5.51-2.25-7.65-.76-.89-3.54,.21-2.67,1.21,2.07,2.4,2.05,5.77,2,8.76-.07,3.75-.15,7.49-.23,11.23-.16,7.69-.32,15.37-.47,23.06-.31,15.28-.63,30.55-.94,45.83s-.63,30.55-.94,45.83-.58,30.51-1.44,45.75c-.42,7.5-.98,15-1.78,22.48-.29,2.76-.63,5.7-1.96,8.18s-3.7,3.27-6.48,3.59c-2.88,.33-5.8,.35-8.69,.41-8.95,.19-17.79,.25-26.8,.32-13.67,.1-27.34,.16-41.01,.2-16.14,.05-32.27,.07-48.41,.08-16.38,0-32.77,0-49.15-.04-14.54-.03-29.07-.08-43.61-.17-10.57-.06-21.14-.13-31.7-.29-3.09-.05-6.19-.09-9.28-.19-.99-.03-1.98-.07-2.97-.12-2.48-.15-5.52-.24-7.58-1.8-2.26-1.71-3.04-4.79-3.51-7.44-1.22-7-1.49-14.27-1.95-21.35-.49-7.62-.81-15.25-1.05-22.88-.48-15.31-.71-30.62-1.03-45.93-.63-30.55-1.26-61.1-1.88-91.65-.08-3.84-.16-7.69-.24-11.53-.07-3.17-.44-6.58,.34-9.7,.81-3.22,3.14-4.34,6.22-4.83,.33-.05,.66-.09,.99-.13,2.29-.26,4.6-.36,6.9-.47,8.91-.42,17.83-.59,26.74-.75,13.12-.24,26.24-.38,39.35-.49,15.56-.13,31.13-.2,46.69-.23,16.24-.03,32.48-.02,48.72,.03,15.2,.05,30.4,.14,45.6,.29,12.34,.12,24.67,.28,37.01,.55,7.68,.17,15.38,.31,23.05,.81,3.16,.21,7.17,.28,9.5,2.59,.83,.83,3.58-.3,2.67-1.21Z"></path></g><g><path class="cls-1" d="M383.57,155.88c-1.46-1.33-3.62-1.68-5.64-1.97-15.34-2.18-243.32-2.18-258.66,0-2.02,.29-4.18,.64-5.64,1.97-1.95,1.77-2.02,4.62-1.96,7.16,.82,33.66,1.65,67.33,2.47,100.99,.41,16.69,.82,33.4,2.93,49.98,.41,3.23,1.19,6.9,4.2,8.55,1.92,1.05,5.38,1.27,7.6,1.38,17.6,.82,221.86,.82,239.46,0,2.22-.1,5.68-.33,7.6-1.38,3.01-1.65,3.79-5.32,4.2-8.55,2.11-16.58,2.52-33.29,2.93-49.98,.82-33.66,1.65-67.33,2.47-100.99,.06-2.54,0-5.39-1.96-7.16Z"></path><path class="cls-1" d="M384.7,155.06c-2.63-2.19-6.57-2.28-9.89-2.47-2.79-.16-5.59-.25-8.39-.33-9.06-.27-18.12-.41-27.18-.52-12.47-.16-24.94-.26-37.41-.33-14.34-.08-28.67-.13-43.01-.14-14.64-.01-29.27,0-43.91,.05-13.47,.05-26.93,.12-40.39,.24-10.8,.1-21.61,.22-32.41,.44-6.56,.13-13.14,.23-19.69,.63-4.03,.25-9.15,.57-11.24,4.53-1.27,2.4-.97,5.31-.91,7.92,.08,3.46,.17,6.91,.25,10.37,.17,6.82,.33,13.65,.5,20.47,.68,27.59,1.16,55.19,2.07,82.77,.22,6.73,.53,13.45,1.02,20.17,.25,3.4,.54,6.8,.9,10.19,.3,2.86,.48,5.85,1.22,8.64,.58,2.16,1.66,4.28,3.6,5.5,2.05,1.29,4.71,1.53,7.08,1.69,1.19,.08,2.38,.12,3.57,.16,6.81,.18,13.62,.22,20.42,.27,11.36,.09,22.72,.14,34.07,.18,14.11,.05,28.22,.07,42.33,.09,14.89,.01,29.78,.01,44.68,0,14.01-.02,28.02-.04,42.03-.09,11.16-.04,22.32-.09,33.48-.18,6.42-.05,12.84-.08,19.25-.27,2.2-.07,4.41-.17,6.58-.59,2.35-.45,4.51-1.42,5.95-3.4,1.35-1.86,1.9-4.17,2.22-6.42,1.95-13.36,2.37-26.99,2.76-40.47,.79-27.61,1.37-55.22,2.04-82.83,.16-6.55,.32-13.1,.48-19.65,.08-3.18,.22-6.36,.23-9.55,0-2.47-.26-5.04-2.11-6.86-.91-.89-3.65,.28-2.66,1.26,2.08,2.05,1.86,5.04,1.8,7.74-.08,3.37-.16,6.73-.25,10.1-.17,6.82-.33,13.65-.5,20.47-.33,13.65-.67,27.3-1,40.94-.33,13.5-.6,27-1.02,40.5-.21,6.73-.48,13.46-.93,20.17-.43,6.37-.82,12.85-1.89,19.15-.38,2.21-1.06,4.93-3.15,6.15-1.94,1.13-4.68,1.07-6.85,1.17-.8,.04-1.6,.06-2.4,.08-2.72,.07-5.44,.11-8.16,.14-9.23,.12-18.45,.17-27.68,.22-12.77,.07-25.54,.1-38.31,.13-14.53,.03-29.07,.04-43.6,.04-14.47,0-28.94-.01-43.41-.04-12.76-.03-25.53-.07-38.29-.13-9.01-.05-18.34-.1-27.11-.22-2.67-.04-5.33-.07-8-.14-1.06-.03-2.12-.06-3.18-.13-2.39-.15-5.35-.24-7.16-2.03-1.64-1.63-2.17-4.09-2.5-6.29-1.98-13.14-2.37-26.59-2.75-39.85-.4-13.6-.68-27.2-1.02-40.79-.33-13.65-.67-27.3-1-40.94-.16-6.73-.33-13.47-.49-20.2-.08-3.41-.2-6.82-.25-10.23-.03-2.43,.04-5.52,2.54-6.74,2.2-1.07,5.26-1.04,7.7-1.17,2.87-.15,5.74-.24,8.61-.33,9.04-.26,18.08-.39,27.12-.51,12.36-.16,24.72-.25,37.08-.32,14.07-.08,28.13-.12,42.2-.14,14.45-.01,28.9,0,43.34,.05,13.33,.05,26.65,.12,39.98,.24,10.65,.1,21.3,.22,31.96,.42,6.7,.13,13.42,.23,20.11,.61,2.87,.16,6.4,.18,8.66,2.06,.96,.8,3.51-.59,2.24-1.64Z"></path></g><g class="cls-3"><path class="cls-1" d="M269.13,137.26c-1.46-.44-3.18,.21-3.98,1.51-.43,.69-.6,1.51-.69,2.32-.05,.41-.07,.83,.07,1.21,.17,.46,.57,.8,.99,1.06,1.73,1.03,4.18,.69,5.48-.84,.19-.23,.36-.48,.46-.76,.1-.31,.11-.64,.12-.96,.02-.77,.04-1.56-.26-2.27s-1.01-1.3-1.77-1.21"></path><path class="cls-1" d="M270.01,136.45c-1.91-.54-4.32,.12-5.67,1.59-.65,.7-1.04,1.57-1.22,2.5s-.31,2,.34,2.8c1.1,1.37,3.31,1.66,4.93,1.39,1.02-.17,2.04-.52,2.89-1.13,.79-.57,1.58-1.35,1.73-2.36,.08-.52,.06-1.07,.05-1.6s-.08-1.1-.31-1.59c-.56-1.19-1.71-1.67-2.99-1.57-.55,.04-1.52,.38-1.64,1.01-.13,.67,.86,.71,1.27,.67-.11,0-.18,0-.28-.01,.29,.05-.09-.06,.07,.01s.2,.1,.28,.17c.23,.2,.39,.43,.49,.7,.25,.67,.23,1.41,.2,2.12-.01,.3-.05,.65-.16,.86-.07,.13-.16,.25-.25,.37,.11-.14,0,0-.02,.02-.07,.07-.14,.14-.21,.21-.05,.04-.1,.08-.15,.13,.18-.17,.09-.06,.03-.02-.07,.04-.13,.09-.2,.13-.05,.03-.22,.15-.05,.04s0,0-.06,.02c-.07,.03-.15,.06-.23,.1-.21,.09,.06-.07,.1-.03-.01-.01-.21,.06-.24,.07-.28,.07-.01-.06,.06,0,0,0-.2,.03-.19,.03-.07,0-.13,.01-.2,.02-.25,.03,.03,0,.07,0-.12-.02-.27,0-.39,0,0,0-.33-.02-.13,0,.18,.01-.09-.02-.13-.02-.15-.03-.29-.06-.43-.1-.03,0-.22-.07-.1-.03,.15,.05-.15-.06-.14-.06-.25-.11-.53-.27-.68-.39-.53-.44-.59-.95-.51-1.62s.2-1.36,.52-1.93c.09-.15,.18-.29,.29-.43-.12,.15-.02,.02,.01,0,.07-.07,.14-.14,.22-.2,.04-.04,.19-.14-.03,.01,.08-.06,.16-.11,.25-.17,.05-.03,.13-.06,.17-.1-.21,.18-.1,.06,.03,0,.22-.1-.08,.06-.1,.03,0,0,.29-.09,.29-.08s-.39,.05-.1,.02c.08,0,.16-.02,.25-.03,.2-.03-.34-.02-.02,0,.08,0,.17,.01,.25,.01,.19,0-.28-.07,.02,0,.1,.03,.19,.04,.29,.07,.66,.19,1.56-.08,2.05-.55s.3-.92-.29-1.09h0Z"></path></g><g class="cls-3"><path class="cls-1" d="M225.73,140.43c9.87-.61,19.77-.62,29.64-.03"></path><path class="cls-1" d="M225.62,141.55c9.75-.59,19.52-.62,29.27-.05,.69,.04,1.6-.19,1.88-.91,.25-.64-.23-1.27-.91-1.3-10-.58-20.02-.59-30.02,.02-1.68,.1-2.2,2.36-.22,2.24h0Z"></path></g><g><path class="cls-5" d="M463.2,451.21c-1.51-7.05-6.34-13.09-11.05-18.87-16.84-20.68-33.69-41.36-50.53-62.05-2.8-3.44-5.6-6.87-8.61-10.16-3.86-4.21-8.3-8.3-14.03-10.03-3.88-1.17-8.07-1.16-12.16-1.14-39.31,.2-196.47,.2-235.78,0-4.1-.02-8.28-.03-12.16,1.14-5.73,1.73-10.18,5.82-14.03,10.03-3.01,3.28-5.81,6.72-8.61,10.16-16.84,20.68-33.69,41.36-50.53,62.05-4.71,5.78-9.54,11.82-11.05,18.87-.29,1.38,4.96,13.65,5.45,14.98,1.31,3.59,6.31,4.58,10.46,4.97,31.74,2.96,364.99,2.96,396.73,0,4.16-.39,9.15-1.38,10.46-4.97,.49-1.33,5.74-13.61,5.45-14.98Z"></path><path class="cls-5" d="M464.65,450.82c-1.49-6.46-5.41-11.86-9.49-16.95-4.8-6-9.7-11.92-14.55-17.88-9.77-11.99-19.53-23.98-29.3-35.97-4.87-5.99-9.65-12.08-14.72-17.9-4.09-4.7-8.55-9.46-14.42-11.88-7.15-2.95-15.66-1.89-23.28-1.86-14.04,.05-28.09,.07-42.13,.08-18.47,.02-36.94,.03-55.41,.03-19.2,0-38.39,0-57.59-.01-16.16-.01-32.32-.03-48.49-.06-5.88-.01-11.76-.03-17.64-.05-8.83-.03-17.82-.62-25.59,4.35-5.64,3.6-10.01,9.03-14.22,14.13-4.95,5.99-9.82,12.04-14.72,18.06-9.77,11.99-19.53,23.98-29.3,35.97-4.7,5.78-9.63,11.44-14.03,17.45-1.85,2.52-3.56,5.16-4.84,8.02-.8,1.78-2.01,4.15-1.61,6.15,.71,3.54,2.47,7.04,3.83,10.37,1.36,3.35,2.24,6.17,5.94,7.59,3.52,1.36,7.51,1.44,11.26,1.64,3.07,.16,6.14,.27,9.21,.36,9.35,.3,18.71,.47,28.07,.62,12.78,.2,25.56,.34,38.34,.46,15.21,.14,30.42,.23,45.63,.3,16.64,.08,33.29,.12,49.93,.15,17.08,.02,34.16,.02,51.24,0,16.45-.03,32.9-.08,49.34-.16,14.95-.08,29.9-.18,44.86-.32,12.45-.12,24.91-.26,37.36-.48,8.92-.15,17.84-.32,26.76-.63,2.81-.1,5.63-.21,8.44-.37,4.83-.29,11.04-.43,14.5-4.19,1.89-2.06,2.75-5.72,3.76-8.26,.74-1.85,1.47-3.71,2.11-5.59,.32-.93,.88-2.13,.77-3.15-.07-.61-2.99-.04-2.9,.78,.12,1.11-.63,2.59-.99,3.6-.68,1.92-1.43,3.81-2.19,5.7-1.29,3.21-2.18,7.4-5.76,8.7-3.08,1.12-6.75,1.11-10.02,1.27-7.18,.36-14.37,.52-21.55,.67-10.98,.24-21.96,.4-32.95,.53-13.74,.17-27.49,.28-41.24,.38-15.67,.11-31.34,.18-47.01,.23-16.57,.05-33.15,.08-49.72,.08-16.66,0-33.32-.02-49.97-.07-15.65-.05-31.31-.12-46.96-.22-13.8-.09-27.6-.21-41.4-.37-11.02-.13-22.03-.29-33.05-.52-7.3-.16-14.61-.32-21.9-.67-2.83-.14-5.72-.23-8.5-.76-2.56-.49-5.51-1.39-6.79-3.86-.56-1.08-.95-2.32-1.41-3.45-1.42-3.47-3.02-6.98-4-10.6-.53-1.95,.4-3.9,1.15-5.71,1.35-3.22,3.26-6.18,5.34-8.97,4.38-5.89,9.22-11.48,13.85-17.17,9.59-11.77,19.17-23.54,28.76-35.31,4.73-5.81,9.44-11.63,14.2-17.43,4.33-5.27,8.79-11.06,14.62-14.77,7.13-4.55,16.4-3.27,24.55-3.24,13.63,.05,27.26,.06,40.9,.08,17.96,.02,35.91,.03,53.87,.03,18.91,0,37.82,0,56.73-.01,16.23-.01,32.45-.03,48.68-.06,6.06-.01,12.12-.03,18.18-.05,7.76-.03,16.63-1.2,23.74,2.29,5.92,2.91,10.4,8.16,14.59,13.11,4.82,5.69,9.46,11.54,14.17,17.32,9.59,11.77,19.17,23.54,28.76,35.31,4.59,5.64,9.22,11.25,13.78,16.92,4.11,5.11,8.05,10.51,9.55,17.01,.16,.68,3.07-.04,2.9-.78Z"></path></g><path class="cls-1" d="M43.07,454.92c53.32-.26,106.63-.52,159.95-.78s107.13-.47,160.7-.07c30.13,.22,60.26,.64,90.38,1.35,1.3,.03,3-1.91,1.04-1.95-53.67-1.26-107.36-1.6-161.05-1.57-53.5,.03-107,.37-160.5,.63-30.07,.15-60.14,.29-90.21,.44-1.59,0-2.28,1.96-.3,1.95h0Z" fill="#FFFFFF"></path><path class="cls-1" d="M127.21,350.3c32.04-.26,64.08-.52,96.12-.78,32.04-.26,64.09-.46,96.13-.07,18.14,.22,36.28,.64,54.41,1.35,.67,.03,1.6-.18,1.89-.89,.26-.62-.23-1.19-.88-1.22-32.15-1.25-64.32-1.6-96.49-1.58-32.21,.02-64.42,.37-96.62,.63-18.09,.15-36.19,.29-54.28,.44-1.65,.01-2.23,2.14-.26,2.12h0Z" fill="#FFFFFF"></path><path class="cls-1" d="M305.74,432.34c-3.9-5.94-8.42-11.46-13.54-16.39-2.57-2.48-5.16-4.39-8.76-4.97-1.45-.23-2.92-.34-4.39-.37-5.13-.09-10.27-.06-15.41-.06-14.03-.02-28.07-.08-42.1,.05-3.18,.03-6.45,.19-9.44,1.37-3.18,1.25-5.64,3.76-8,6.15-2.53,2.56-4.91,5.26-7.12,8.09-1.06,1.35-2.08,2.74-3.07,4.15s-2.17,2.89-2.8,4.52c-.5,1.3-.55,2.81,.53,3.84,.89,.85,2.25,1.08,3.43,1.17,2.74,.21,5.56,.04,8.3,.05,17.88,.02,35.76,.02,53.64,.02,9.06,0,18.12,0,27.18-.01,3.44,0,6.89,0,10.33-.01,3.13,0,6.84,.45,9.79-.69,1.14-.44,2.31-1.2,2.67-2.44,.46-1.59-.41-3.15-1.24-4.45-.48-.76-3.18,.34-2.9,.78,.8,1.25,1.87,3.03,1.13,4.54-.57,1.17-1.77,.99-2.88,1s-2.2,0-3.3,0c-3.12,0-6.23,0-9.35,.01-8.32,0-16.65,.01-24.97,.01-17.7,0-35.41,0-53.12-.01-2.98,0-5.95,0-8.93-.01-1.12,0-2.25,0-3.37,0s-2.5-.01-3.45-.76c-1.56-1.22-.87-3.25-.05-4.68,1.73-3.04,3.99-5.88,6.2-8.58,2.17-2.67,4.49-5.22,6.95-7.63,1.19-1.17,2.39-2.37,3.77-3.32,1.55-1.07,3.2-1.49,5.05-1.66,.93-.08,1.86-.14,2.79-.15,12.63-.19,25.27-.08,37.9-.07,5.94,0,11.87,0,17.81,.05,1.97,.01,3.92,.03,5.88,.29,3.71,.5,6.31,2.61,8.91,5.14,2.47,2.4,4.8,4.94,6.98,7.6s4.18,5.39,6.06,8.25c.5,.75,3.18-.35,2.9-.78Z" fill="#FFFFFF"></path><g><g><path class="cls-1" d="M118.43,362.94c5.49-.09,10.98-.19,16.47-.28,.64-.01,1.57-.19,1.91-.82,.31-.58-.26-.97-.81-.96-5.49,.09-10.98,.19-16.47,.28-.64,.01-1.57,.19-1.91,.82-.31,.58,.26,.97,.81,.96h0Z"></path><path class="cls-1" d="M145.11,362.62c5.08-.37,10.18-.45,15.27-.2,.65,.03,1.5-.2,2.05-.55,.45-.29,.42-.51-.14-.54-5.3-.26-10.6-.15-15.88,.24-.54,.04-1.59,.22-1.95,.67s.33,.41,.66,.38h0Z"></path><path class="cls-1" d="M169.35,362.24c2.74,.98,5.83,.74,8.69,.66,3.26-.09,6.52-.26,9.77-.5,.61-.04,1.55-.19,1.92-.75,.35-.53-.3-.74-.75-.7-3.02,.22-6.04,.39-9.06,.48-2.67,.08-5.68,.45-8.24-.47-.63-.23-1.48-.02-2.04,.31-.32,.18-.94,.75-.29,.98h0Z"></path><path class="cls-1" d="M197.96,362.92c5.72-.11,11.44-.22,17.16-.33,.63-.01,1.57-.19,1.91-.8,.32-.57-.27-.9-.79-.89-5.72,.11-11.44,.22-17.16,.33-.63,.01-1.57,.19-1.91,.8-.32,.57,.27,.9,.79,.89h0Z"></path><path class="cls-1" d="M223.95,362.75c5.43,.06,10.86,.12,16.28,.18,.65,0,1.57-.19,1.9-.83,.3-.6-.26-1.01-.83-1.02-5.43-.06-10.86-.12-16.28-.18-.65,0-1.57,.19-1.9,.83-.3,.6,.26,1.01,.83,1.02h0Z"></path><path class="cls-1" d="M249.38,362.8c5.41-.09,10.82-.19,16.22-.28,.6-.01,1.57-.21,1.92-.76s-.3-.74-.75-.73c-5.41,.09-10.82,.19-16.22,.28-.6,.01-1.57,.21-1.92,.76s.3,.74,.75,.73h0Z"></path><path class="cls-1" d="M276.56,362.82c4.99-.39,10.01-.43,15.01-.2,.59,.03,1.58-.23,1.92-.76,.36-.57-.31-.72-.75-.74-5.25-.25-10.5-.16-15.74,.25-.48,.04-1.55,.36-1.66,.93-.12,.62,.89,.54,1.22,.52h0Z"></path><path class="cls-1" d="M299.92,362.19c3,.82,6.11,.71,9.19,.62s6.22-.26,9.32-.5c.57-.05,1.58-.2,1.93-.72s-.3-.61-.71-.58c-2.87,.23-5.75,.39-8.63,.48-2.92,.1-5.89,.27-8.74-.5-.64-.18-1.46,.04-2.03,.34-.27,.14-.98,.68-.33,.86h0Z"></path><path class="cls-1" d="M329.38,363.08c5.62-.11,11.24-.22,16.87-.33,.6-.01,1.53-.46,1.61-1.13,.09-.74-.79-.89-1.32-.87-5.62,.11-11.24,.22-16.87,.33-.6,.01-1.53,.46-1.61,1.13-.09,.74,.79,.89,1.32,.87h0Z"></path><path class="cls-1" d="M354.7,362.61c5.48,.06,10.96,.12,16.44,.18,.61,0,1.57-.21,1.92-.78s-.29-.8-.77-.8c-5.48-.06-10.96-.12-16.44-.18-.61,0-1.57,.21-1.92,.78s.29,.8,.77,.8h0Z"></path></g><g><path class="cls-1" d="M381.44,370.72c-5.87-.11-11.74-.21-17.61-.32-.61-.01-1.58,.21-1.92,.78s.3,.79,.77,.8c5.87,.11,11.74,.21,17.61,.32,.61,.01,1.58-.21,1.92-.78s-.3-.79-.77-.8h0Z"></path><path class="cls-1" d="M352.95,370.74c-5.54-.43-11.09-.55-16.64-.25-.63,.03-1.56,.18-1.91,.79-.32,.55,.28,.86,.78,.84,5.55-.29,11.1-.17,16.64,.25,.6,.05,1.59-.23,1.91-.79,.35-.6-.3-.8-.78-.84h0Z"></path><path class="cls-1" d="M325.24,370.09c-1.19,.5-2.6,.5-3.87,.51-1.5,.02-3.01-.04-4.51-.09-3.16-.11-6.32-.29-9.48-.54-.69-.05-1.59,.2-1.88,.9-.27,.64,.25,1.23,.9,1.28,3.53,.27,7.06,.46,10.59,.57,3.17,.1,6.57,.41,9.56-.85,.58-.24,1.06-.96,.67-1.55-.42-.63-1.4-.49-1.98-.25h0Z"></path><path class="cls-1" d="M296.81,370.8c-6.11-.12-12.23-.25-18.34-.37-.59-.01-1.58,.22-1.92,.75-.36,.56,.31,.7,.75,.71,6.11,.12,12.23,.25,18.34,.37,.59,.01,1.58-.22,1.92-.75,.36-.56-.31-.7-.75-.71h0Z"></path><path class="cls-1" d="M269.46,370.66c-5.76,.07-11.52,.14-17.29,.2-.68,0-1.48,.16-2.05,.55-.41,.28-.44,.63,.17,.62,5.76-.07,11.52-.14,17.29-.2,.68,0,1.48-.16,2.05-.55,.41-.28,.44-.63-.17-.62h0Z"></path><path class="cls-1" d="M241.99,370.57c-5.78-.11-11.55-.21-17.33-.32-.65-.01-1.58,.19-1.9,.84-.3,.6,.26,1.01,.83,1.02,5.78,.11,11.55,.21,17.33,.32,.65,.01,1.58-.19,1.9-.84,.3-.6-.26-1.01-.83-1.02h0Z"></path><path class="cls-1" d="M213.47,370.65c-5.58-.46-11.18-.52-16.78-.24-.55,.03-1.54,.41-1.63,1.05-.1,.7,.82,.76,1.28,.73,5.35-.27,10.71-.18,16.04,.26,.63,.05,1.59-.22,1.9-.82s-.28-.93-.82-.98h0Z"></path><path class="cls-1" d="M186.84,370.58c-2.85,.87-5.98,.57-8.93,.46-3.04-.11-6.07-.29-9.09-.54-.65-.05-1.51,.19-2.05,.55-.46,.3-.4,.53,.15,.57,3.39,.28,6.8,.48,10.2,.58,3.34,.1,6.7,.17,9.93-.81,.24-.07,1.45-.38,1.34-.79s-1.38-.07-1.56-.02h0Z"></path><path class="cls-1" d="M157.72,370.92c-6-.12-12.01-.25-18.01-.37-.67-.01-1.49,.15-2.05,.55-.41,.3-.43,.66,.18,.67,6,.12,12.01,.25,18.01,.37,.67,.01,1.49-.15,2.05-.55,.41-.3,.43-.66-.18-.67h0Z"></path><path class="cls-1" d="M130.29,370.69c-5.82,.07-11.65,.14-17.47,.2-.67,0-1.48,.18-2.05,.55-.42,.27-.44,.56,.15,.56,5.82-.07,11.65-.14,17.47-.2,.67,0,1.48-.18,2.05-.55,.42-.27,.44-.56-.15-.56h0Z"></path></g><path class="cls-1" d="M405.14,395.27c-6.81-.14-13.62-.28-20.43-.42-.63-.01-1.58,.2-1.91,.81s.27,.93,.81,.94c6.81,.14,13.62,.28,20.43,.42,.63,.01,1.58-.2,1.91-.81s-.27-.93-.81-.94h0Z"></path><path class="cls-1" d="M372.55,395.55c-6.52-.58-13.07-.75-19.6-.35-.57,.04-1.58,.2-1.93,.73s.29,.64,.72,.61c6.33-.39,12.66-.23,18.97,.33,.67,.06,1.52-.12,2.05-.55,.42-.34,.4-.72-.21-.78h0Z"></path><path class="cls-1" d="M340.08,395.29c-1.26,.64-2.82,.56-4.2,.56-1.73,0-3.47-.07-5.2-.15-3.61-.15-7.21-.39-10.81-.71-.63-.06-1.54,.18-2.05,.55-.43,.32-.42,.54,.16,.59,4.31,.38,8.62,.65,12.95,.79,3.58,.11,7.51,.37,10.81-1.3,.35-.18,.87-.44,.37-.71-.45-.25-1.62,.18-2.02,.38h0Z"></path><path class="cls-1" d="M179.66,395.11c-3.19,1.11-6.83,.71-10.14,.57-3.5-.14-7-.39-10.49-.72-.65-.06-1.52,.17-2.05,.55-.45,.32-.4,.6,.18,.66,4.06,.39,8.12,.65,12.19,.79,3.85,.12,7.64,.14,11.32-1.15,.27-.09,1.19-.44,.86-.84-.31-.37-1.55,.04-1.87,.15h0Z"></path><path class="cls-1" d="M146.17,395.59c-6.94-.17-13.87-.33-20.81-.5-.67-.02-1.49,.16-2.05,.55-.42,.3-.43,.62,.17,.64,6.94,.17,13.87,.33,20.81,.5,.67,.02,1.49-.16,2.05-.55,.42-.3,.43-.62-.17-.64h0Z"></path><path class="cls-1" d="M114.07,395.01c-6.75,.09-13.49,.18-20.24,.27-.61,0-1.57,.2-1.92,.78s.29,.8,.77,.8c6.75-.09,13.49-.18,20.24-.27,.61,0,1.57-.2,1.92-.78s-.29-.8-.77-.8h0Z"></path><g><path class="cls-1" d="M102.57,383.08c6.26-.12,12.53-.24,18.79-.36,.68-.01,1.48-.16,2.05-.55,.41-.28,.44-.63-.16-.61-6.26,.12-12.53,.24-18.79,.36-.68,.01-1.48,.16-2.05,.55-.41,.28-.44,.63,.16,.61h0Z"></path><path class="cls-1" d="M133.41,383.25c5.8-.48,11.63-.63,17.44-.3,.68,.04,1.51-.1,2.05-.55,.4-.33,.41-.78-.22-.81-6.03-.34-12.06-.22-18.08,.28-.6,.05-1.55,.19-1.93,.74s.31,.68,.73,.65h0Z"></path><path class="cls-1" d="M161.06,382.49c3.05,1.27,6.68,.88,9.9,.77,3.68-.12,7.35-.34,11.02-.65,.56-.05,1.58-.2,1.94-.7s-.3-.56-.7-.52c-3.41,.29-6.82,.5-10.24,.62-3.1,.11-6.61,.55-9.55-.68-.57-.24-1.52,.1-2.03,.36-.33,.17-.93,.56-.34,.8h0Z"></path><path class="cls-1" d="M193.97,383.55c6.52-.14,13.04-.29,19.55-.43,.61-.01,1.53-.46,1.61-1.13,.09-.74-.78-.9-1.32-.89-6.52,.14-13.04,.29-19.55,.43-.61,.01-1.53,.46-1.61,1.13-.09,.74,.78,.9,1.32,.89h0Z"></path><path class="cls-1" d="M223.09,382.87c6.18,.08,12.36,.16,18.55,.23,.55,0,1.6-.22,1.93-.73,.35-.54-.31-.6-.72-.6-6.18-.08-12.36-.16-18.55-.23-.55,0-1.6,.22-1.93,.73-.35,.54,.31,.6,.72,.6h0Z"></path><path class="cls-1" d="M252.14,383.26c6.16-.12,12.31-.24,18.47-.36,.61-.01,1.57-.2,1.92-.77s-.3-.76-.76-.75c-6.16,.12-12.31,.24-18.47,.36-.61,.01-1.57,.2-1.92,.77s.3,.76,.76,.75h0Z"></path><path class="cls-1" d="M282.67,383.25c5.71-.52,11.46-.6,17.18-.3,.68,.04,1.51-.11,2.05-.55,.41-.33,.41-.77-.21-.8-5.94-.32-11.89-.25-17.82,.28-.6,.05-1.55,.19-1.93,.73-.36,.51,.31,.67,.73,.63h0Z"></path><path class="cls-1" d="M310.07,382.82c3.38,1.03,6.88,.92,10.37,.81,3.59-.12,7.18-.34,10.76-.66,.59-.05,1.53-.42,1.61-1.1s-.79-.88-1.31-.83c-3.32,.3-6.65,.51-9.98,.63s-6.58,.3-9.75-.66c-.67-.2-1.58,.02-2.05,.55-.43,.49-.3,1.07,.34,1.27h0Z"></path><path class="cls-1" d="M343.21,383.55c6.39-.14,12.78-.29,19.17-.43,.61-.01,1.53-.46,1.61-1.14,.08-.74-.78-.9-1.32-.89-6.39,.14-12.78,.29-19.17,.43-.61,.01-1.53,.46-1.61,1.14-.08,.74,.78,.9,1.32,.89h0Z"></path><path class="cls-1" d="M372.1,383.11c6.25,.08,12.5,.16,18.75,.23,.64,0,1.57-.19,1.9-.83,.31-.59-.27-.98-.82-.99-6.25-.08-12.5-.16-18.75-.23-.64,0-1.57,.19-1.9,.83-.31,.59,.27,.98,.82,.99h0Z"></path></g><path class="cls-1" d="M193.71,392.39c-1.05,2.48-1.66,5.07-1.79,7.77-.02,.49,.46,.68,.9,.68,29.9,.04,59.8,.09,89.69,.13,8.48,.01,16.95,.02,25.43,.04,.45,0,2.36-.39,2-1.24-.93-2.21-1.86-4.42-2.78-6.62-.15-.35-.54-.46-.89-.46-28.43-.07-56.87-.15-85.3-.22-7.97-.02-15.95-.04-23.92-.06-.59,0-1.62,.19-1.91,.8s.24,.9,.8,.9c28.42,.07,56.84,.15,85.26,.22,7.99,.02,15.97,.04,23.96,.06l-.89-.46c.93,2.21,1.86,4.42,2.78,6.62l2-1.24c-29.91-.04-59.81-.09-89.72-.13-8.47-.01-16.94-.02-25.4-.04l.9,.68c.13-2.69,.74-5.28,1.79-7.77,.26-.63-.94-.69-1.26-.66-.65,.07-1.38,.38-1.64,1.01h0Z"></path></g><g><path class="cls-2" d="M374.93,171.91c.05-.91,.11-1.82,.16-2.73h-.32c-.1-1.49-.37-3.12-3.35-4.14-3.01-1.04-7.84-1.14-12.25-1.18-23.88-.18-194.24-.18-218.11,0-4.41,.03-9.24,.14-12.25,1.18-2.98,1.03-3.25,2.66-3.35,4.14h-.32c.05,.91,.11,1.82,.16,2.73-.05,.91-.11,1.82-.16,2.73h.32c.1,1.49,.37,3.12,3.35,4.14,3.01,1.04,7.84,1.14,12.25,1.18,23.88,.18,194.24,.18,218.11,0,4.41-.03,9.24-.14,12.25-1.18,2.98-1.03,3.25-2.65,3.35-4.14h.32c-.05-.91-.11-1.82-.16-2.73Z"></path><path class="cls-2" d="M376.37,171.71c.05-.91,.11-1.82,.16-2.73,.03-.47-.48-.54-.86-.54h-.32l.86,.36c-.21-3-2.45-4.21-5.19-4.85-3.67-.85-7.56-.8-11.31-.83-1.72-.01-3.44-.02-5.15-.03-5.65-.02-11.29-.03-16.94-.04-7.93-.01-15.86-.02-23.79-.03-9.54,0-19.08-.02-28.62-.02-10.37,0-20.74,0-31.1,0-10.45,0-20.9,0-31.35,0-9.74,0-19.48,0-29.22,.02-8.37,0-16.75,.02-25.12,.03-6.21,0-12.42,.02-18.64,.04-2.06,0-4.12,.01-6.19,.03-4.84,.03-9.99-.25-14.66,1.2-2.61,.81-4.72,2.21-4.93,5.09l2.03-.95h-.32c-.59,0-2.08,.31-2.03,1.13,.1,1.78,.11,3.49,0,5.27-.03,.47,.48,.54,.86,.54h.32l-.86-.36c.21,3,2.46,4.21,5.19,4.85,3.67,.85,7.56,.8,11.31,.83,1.72,.01,3.44,.02,5.15,.03,5.65,.02,11.29,.03,16.94,.04,7.93,.01,15.86,.02,23.79,.03,9.54,0,19.08,.02,28.62,.02,10.37,0,20.74,0,31.1,0s20.9,0,31.35,0c9.74,0,19.48,0,29.22-.02,8.37,0,16.75-.02,25.12-.03,6.21,0,12.42-.02,18.64-.04,2.06,0,4.12-.01,6.19-.03,4.84-.03,9.99,.25,14.66-1.2,2.61-.81,4.72-2.21,4.93-5.09l-2.03,.95h.32c.59,0,2.08-.31,2.03-1.13-.05-.91-.11-1.82-.16-2.73-.05-.8-2.96-.24-2.9,.78,.05,.91,.11,1.82,.16,2.73,.68-.38,1.36-.76,2.03-1.13h-.32c-.44,0-1.98,.28-2.03,.95-.08,1.09-.29,2.16-1.23,2.85-1.3,.94-3.25,1.07-4.79,1.23-2.76,.29-5.55,.28-8.33,.3-1.82,.01-3.65,.02-5.47,.03-5.7,.02-11.41,.03-17.11,.04-7.88,.01-15.76,.02-23.64,.03-9.4,0-18.81,.01-28.21,.02-10.14,0-20.28,0-30.42,0-10.26,0-20.53,0-30.79,0-9.59,0-19.18,0-28.78-.02-8.3,0-16.6-.02-24.91-.03-6.23,0-12.47-.02-18.7-.04-6.02-.02-12.34,.37-18.28-.52-1.54-.23-3.34-.55-4.56-1.6-.88-.76-1.11-1.77-1.19-2.88-.02-.33-.66-.36-.86-.36h-.32l.86,.54c.11-1.91,.12-3.73,0-5.63l-2.03,1.13h.32c.44,0,1.98-.28,2.03-.95,.08-1.09,.29-2.16,1.23-2.85,1.3-.94,3.25-1.07,4.79-1.23,2.76-.29,5.55-.28,8.33-.3,1.82-.01,3.65-.02,5.47-.03,5.7-.02,11.41-.03,17.11-.04,7.88-.01,15.76-.02,23.64-.03,9.4,0,18.81-.01,28.21-.02,10.14,0,20.28,0,30.42,0,10.26,0,20.53,0,30.79,0,9.59,0,19.18,0,28.78,.02,8.3,0,16.6,.02,24.91,.03,6.23,0,12.47,.02,18.7,.04,6.02,.02,12.34-.37,18.28,.52,1.54,.23,3.34,.55,4.56,1.6,.88,.76,1.11,1.77,1.19,2.88,.02,.33,.66,.36,.86,.36h.32l-.86-.54c-.05,.91-.11,1.82-.16,2.73-.06,1.05,2.83,.45,2.88-.41Z"></path></g><g><path class="cls-1" d="M137.72,168.29c-1.06-.41-2.28-.32-3.27,.24-.38,.21-.73,.5-.97,.87-.39,.6-.46,1.35-.49,2.07-.03,.63-.03,1.29,.2,1.88,.45,1.15,1.67,1.74,2.83,2.02,.43,.1,.88,.17,1.31,.09,.46-.09,.88-.35,1.24-.67,.91-.84,1.4-2.16,1.27-3.42-.14-1.26-.89-2.44-1.96-3.04"></path><path class="cls-1" d="M138.88,167.61c-1-.37-2.08-.45-3.13-.25-1.13,.21-2.32,.66-3.15,1.49-.72,.71-.99,1.59-1.05,2.58-.06,.91-.1,1.87,.37,2.68,.41,.72,1.05,1.22,1.8,1.56,.85,.39,1.85,.65,2.79,.62,2.21-.06,4.25-1.64,4.72-3.83,.41-1.93-.5-3.83-2.18-4.82-.24-.14-.69-.12-.95-.09-.36,.05-.79,.17-1.1,.37-.42,.27-.85,.74-.27,1.08,.97,.57,1.61,1.75,1.68,2.92,.04,.61-.11,1.27-.38,1.81-.1,.21-.26,.44-.42,.64-.05,.06-.09,.11-.14,.17,.1-.11-.03,.02-.04,.03-.06,.05-.12,.11-.18,.16-.12,.09-.13,.1-.03,.02l-.1,.06c.12-.12,.13-.06,0-.01,.1-.04,.19-.07,.3-.09,.21-.05,.04,0-.03-.01,.16,.03-.06-.01-.07-.01-.18-.04-.36-.07-.54-.12-.03,0-.23-.06-.11-.03s-.14-.05-.16-.05c-.57-.2-.99-.42-1.39-.83-.45-.46-.63-1.04-.67-1.68s0-1.37,.16-2.01c.08-.29,.25-.64,.41-.79-.08,.08,.09-.07,.11-.09,.04-.04,.08-.07,.13-.1-.1,.07-.11,.08-.04,.03,.07-.03,.13-.07,.19-.11,.14-.08-.21,.07,.04-.01,.27-.09-.01-.01-.05,.01,.07-.02,.15-.04,.23-.06l-.16,.03s.19-.03,.23-.03c.36-.05-.26-.02,.1,0,.08,0,.15,0,.23,0-.21-.01,.08,.02,.14,.03,.08,.01,.15,.03,.23,.05,.18,.04,0,0,.18,.06,.64,.24,1.48,.08,2.05-.28,.33-.21,.94-.84,.27-1.08h0Z"></path></g><g><path class="cls-1" d="M149.26,168.29c-1.06-.41-2.28-.32-3.27,.24-.38,.21-.73,.5-.97,.87-.39,.6-.46,1.35-.49,2.07-.03,.63-.03,1.29,.2,1.88,.45,1.15,1.67,1.74,2.83,2.02,.43,.1,.88,.17,1.31,.09,.46-.09,.88-.35,1.24-.67,.91-.84,1.4-2.16,1.27-3.42s-.89-2.44-1.96-3.04"></path><path class="cls-1" d="M150.44,167.68c-.99-.36-2.08-.38-3.11-.19-1.18,.23-2.4,.7-3.28,1.55-.69,.67-.88,1.54-.95,2.46-.06,.86-.1,1.79,.34,2.56,.83,1.46,2.84,2.14,4.44,2.11,2.2-.05,4.36-1.48,4.86-3.69,.41-1.79-.35-3.73-1.96-4.67-.54-.31-1.34-.12-1.88,.1-.16,.07-1.33,.65-.83,.94,1.09,.64,1.78,1.76,1.88,3.02,.05,.62-.07,1.24-.32,1.81-.11,.26-.25,.51-.42,.73-.09,.12-.19,.22-.29,.33-.01,.01-.18,.16-.1,.1-.02,.02-.27,.19-.16,.12,.12-.08-.21,.06-.01,0,.14-.03,.26-.09,.4-.11,.1-.02,.39,0,.11-.03-.09,0-.18-.02-.26-.03-.28-.05-.55-.14-.81-.23-.51-.18-.98-.44-1.37-.82-.46-.46-.66-1.05-.71-1.69-.06-.69-.03-1.44,.15-2.12,.09-.33,.22-.64,.45-.89,.11-.12,.1-.11,.26-.22,.19-.14,.05-.04,0,0,.1-.05,.32-.14,.09-.06,.07-.03,.15-.06,.22-.08-.53,.13,.33-.05-.21,.06,.06-.01,.27-.03-.01,0,.12-.01,.23-.02,.35-.02-.24,0,.27,.04,.25,.03,.13,.02,.38,.1,.55,.16,.61,.22,1.5-.04,2.03-.34,.31-.17,.95-.66,.32-.89h0Z"></path></g><g><path class="cls-1" d="M164.09,168.29c-1.06-.41-2.28-.32-3.27,.24-.38,.21-.73,.5-.97,.87-.39,.6-.46,1.35-.49,2.07-.03,.63-.03,1.29,.2,1.88,.45,1.15,1.67,1.74,2.83,2.02,.43,.1,.88,.17,1.31,.09,.46-.09,.88-.35,1.24-.67,.91-.84,1.4-2.16,1.27-3.42-.14-1.26-.89-2.44-1.96-3.04"></path><path class="cls-1" d="M165.28,167.73c-.99-.36-2.08-.34-3.1-.14-1.16,.23-2.42,.67-3.29,1.5-.68,.65-.9,1.5-.96,2.41-.06,.85-.1,1.79,.34,2.56,.82,1.45,2.85,2.09,4.42,2.02,2.18-.1,4.37-1.4,4.88-3.63,.41-1.79-.34-3.68-1.94-4.62-.5-.29-1.37-.02-1.87,.17-.14,.05-1.3,.56-.86,.82,1.09,.64,1.79,1.79,1.89,3.05,.05,.63-.06,1.25-.31,1.83-.12,.29-.28,.57-.47,.81-.16,.21-.45,.4-.58,.56-.07,.1,0,0,.08-.02,.17-.04,.43-.04,.54-.14,.05-.05,.25,.03-.04-.03-.05,0-.11-.02-.14-.03-.32-.07-.63-.14-.94-.25-.5-.18-.99-.47-1.37-.85-.46-.46-.67-1.08-.72-1.72-.06-.69-.04-1.47,.14-2.14,.09-.33,.22-.66,.45-.92,.05-.06,.1-.11,.16-.15,.02-.02,.19-.15,.1-.09,.06-.04,.12-.08,.18-.12,.12-.07,.13-.07,.03-.02l.11-.05c-.14,.12-.12,.05,0,0-.51,.17,.31-.07-.21,.06,.12-.03,.17,.04-.01,0,.32,.06-.18-.02,.15,0s.65,.09,1,.22c.25,.09,.68,.02,.92-.03,.37-.06,.77-.18,1.1-.34,.3-.15,.95-.53,.36-.75h0Z"></path></g><path class="cls-2" d="M138.43,189.94c14.6-.12,29.2-.24,43.81-.36,.56,0,1.63-.2,1.92-.77s-.25-.77-.76-.76c-14.6,.12-29.2,.24-43.81,.36-.56,0-1.63,.2-1.92,.77s.25,.77,.76,.76h0Z" fill="#00ff96"></path><path class="cls-2" d="M140.11,198.35c13.76-.62,27.54-.99,41.31-1.11,.6,0,1.62-.19,1.91-.8,.28-.58-.23-.91-.8-.9-14.02,.13-28.04,.51-42.05,1.15-.51,.02-1.56,.4-1.64,1.01-.08,.68,.82,.69,1.26,.67h0Z" fill="#00ff96"></path><path class="cls-2" d="M139.75,205.8c13.62-.14,27.24-.28,40.86-.42,.64,0,1.53-.14,2.05-.55,.37-.29,.48-.59-.16-.58-13.62,.14-27.24,.28-40.86,.42-.64,0-1.53,.14-2.05,.55-.37,.29-.48,.59,.16,.58h0Z" fill="#00ff96"></path><path class="cls-2" d="M191.53,205.7c9.83-.08,19.66-.16,29.49-.24,1.62-.01,2.25-2.06,.28-2.04-9.83,.08-19.66,.16-29.49,.24-1.62,.01-2.25,2.06-.28,2.04h0Z" fill="#00ff96"></path><path class="cls-2" d="M190.74,211.04c15.7,.37,31.42,.06,47.09-.97,.54-.04,1.63-.2,1.93-.72s-.26-.61-.71-.58c-15.46,1.02-30.97,1.35-46.46,.98-.65-.02-1.55,.09-2.05,.55-.36,.33-.46,.73,.2,.74h0Z" fill="#00ff96"></path><path class="cls-2" d="M191.5,217.89c21.05-.57,42.1-1.13,63.15-1.7,1.54-.04,2.32-1.89,.33-1.84-21.05,.57-42.1,1.13-63.15,1.7-1.54,.04-2.32,1.89-.33,1.84h0Z" fill="#00ff96"></path><path class="cls-2" d="M224.41,223.72c10.24-.05,20.48-.41,30.7-1.1,1.53-.1,2.32-2,.33-1.86-9.97,.67-19.96,1.04-29.96,1.09-.64,0-1.59,.18-1.9,.84-.28,.59,.24,1.04,.83,1.04h0Z" fill="#00ff96"></path><path class="cls-2" d="M225.25,229.46c9.96,.29,19.92,.05,29.85-.74,.57-.05,1.55-.41,1.62-1.09s-.78-.84-1.3-.8c-9.68,.77-19.4,1.02-29.11,.73-.64-.02-1.6,.19-1.9,.84-.28,.61,.25,1.04,.84,1.06h0Z" fill="#00ff96"></path><path class="cls-2" d="M224.31,234.68c17.18,1.06,34.26-1.6,51.41-1.97,4.84-.11,9.68-.01,14.5,.38,.61,.05,1.56-.17,2.05-.55,.41-.32,.44-.53-.16-.58-17.15-1.4-34.25,1.19-51.38,1.75-4.85,.16-9.7,.14-14.54-.15-.62-.04-1.55,.16-2.05,.55-.41,.32-.45,.55,.16,.58h0Z" fill="#00ff96"></path><path class="cls-2" d="M264.85,240.16c8.71,0,17.41,0,26.12,0,.64,0,1.53-.16,2.05-.55,.39-.29,.47-.55-.15-.55-8.71,0-17.41,0-26.12,0-.64,0-1.53,.16-2.05,.55-.39,.29-.47,.55,.15,.55h0Z" fill="#00ff96"></path><path class="cls-2" d="M267.73,245.93c8-.13,16-.26,24.01-.39,.53,0,1.64-.21,1.93-.73s-.26-.62-.72-.61c-8,.13-16,.26-24.01,.39-.53,0-1.64,.21-1.93,.73s.26,.62,.72,.61h0Z" fill="#00ff96"></path><path class="cls-2" d="M230.72,253.29c20.08-.75,40.16-1.62,60.23-2.63,.59-.03,1.61-.18,1.91-.79,.27-.56-.23-.88-.79-.86-20.07,1.01-40.15,1.88-60.23,2.63-.59,.02-1.62,.18-1.91,.79-.28,.57,.23,.88,.79,.86h0Z" fill="#00ff96"></path><path class="cls-2" d="M231.54,258.32c3.83,.12,7.66,.13,11.5,.02,1.85-.06,3.7-.14,5.54-.24,.9-.05,1.8-.11,2.69-.18,.45-.03,.9-.07,1.34-.1,.3-.02,.6-.05,.89-.07,.61,.02,.6-.06-.03-.24l.28-.66-.13,.1,.96-.5-.17,.03,1.35,.05-.1-.07c-.82-.56-3.48,.63-2.29,1.45,1.25,.86,4.25-1.14,2.35-1.79-.97-.33-2.2-.02-3.19,.06-1.34,.11-2.69,.2-4.04,.27-5.28,.3-10.57,.34-15.85,.17-.61-.02-1.6,.21-1.91,.81s.26,.89,.8,.91h0Z" fill="#00ff96"></path><path class="cls-2" d="M231.11,264.49c6.32,0,12.64,0,18.96,0,.61,0,1.57-.21,1.92-.78s-.29-.81-.77-.81c-6.32,0-12.64,0-18.96,0-.61,0-1.57,.21-1.92,.78-.34,.57,.29,.81,.77,.81h0Z" fill="#00ff96"></path><path class="cls-2" d="M190.73,271.37c17.8-.41,35.59-1.13,53.37-2.15,.5-.03,1.65-.21,1.94-.69s-.26-.49-.68-.47c-17.57,1.01-35.15,1.73-52.75,2.13-.65,.02-1.53,.12-2.05,.55-.36,.29-.48,.64,.17,.63h0Z" fill="#00ff96"></path><path class="cls-2" d="M191.14,277.01c6.6,.62,13.3,0,19.91-.32,6.83-.32,13.66-.64,20.49-.96,1.56-.07,2.3-2,.32-1.91-6.67,.31-13.33,.62-20,.93-6.52,.3-13.14,.94-19.66,.33-.63-.06-1.61,.22-1.9,.85s.26,1.01,.84,1.07h0Z" fill="#00ff96"></path><path class="cls-2" d="M191.12,284.38c5.89,.19,11.79,.29,17.69,.29,.63,0,1.57-.19,1.91-.81,.32-.58-.27-.93-.81-.93-5.9,0-11.79-.1-17.69-.29-.63-.02-1.58,.21-1.91,.81s.28,.92,.81,.93h0Z" fill="#00ff96"></path><path class="cls-2" d="M138.89,284.43c14.6-.12,29.2-.24,43.81-.36,1.67-.01,2.21-2.2,.24-2.18-14.6,.12-29.2,.24-43.81,.36-1.67,.01-2.21,2.2-.24,2.18h0Z" fill="#00ff96"></path><path class="cls-2" d="M139.7,292.37c13.89-.63,27.78-1,41.68-1.13,.54,0,1.64-.21,1.93-.74s-.26-.66-.73-.66c-13.9,.13-27.8,.5-41.68,1.13-.55,.02-1.63,.2-1.93,.74s.25,.68,.73,.66h0Z" fill="#00ff96"></path><path class="cls-2" d="M140.58,300.49c13.62-.14,27.24-.28,40.86-.42,1.67-.02,2.21-2.2,.24-2.18-13.62,.14-27.24,.28-40.86,.42-1.67,.02-2.21,2.2-.24,2.18h0Z" fill="#00ff96"></path><path class="cls-2" d="M191.05,299.47c9.83-.08,19.66-.16,29.49-.24,.51,0,1.66-.22,1.94-.71,.3-.52-.26-.53-.7-.53-9.83,.08-19.66,.16-29.49,.24-.51,0-1.66,.22-1.94,.71-.3,.52,.26,.53,.7,.53h0Z" fill="#00ff96"></path><path class="cls-2" d="M191.12,305.43c15.72,.37,31.45,.04,47.14-.99,.52-.03,1.56-.39,1.64-1.02,.08-.68-.81-.72-1.27-.69-15.45,1.02-30.93,1.33-46.41,.96-.6-.01-1.62,.2-1.91,.81s.24,.91,.81,.93h0Z" fill="#00ff96"></path><path class="cls-2" d="M191.11,311.99c21.05-.57,42.1-1.13,63.15-1.7,.6-.02,1.62-.18,1.91-.8,.27-.57-.23-.91-.8-.89-21.05,.57-42.1,1.13-63.15,1.7-.6,.02-1.62,.18-1.91,.8-.27,.57,.23,.91,.8,.89h0Z" fill="#00ff96"></path></g><g id="html"><path class="cls-2" d="M430.3,224.96c-.08-3.85-.4-8.08-3.84-10.88-4.15-3.39-11.08-3.37-17.17-3.12-8.01,.34-40.04,.34-48.05,0-6.09-.26-13.02-.27-17.17,3.12-3.44,2.81-3.76,7.03-3.84,10.88-.1,5.17-.09,10.34,.02,15.52-.17,4.91-.11,9.82,.18,14.72,.13,2.16,.38,4.45,1.2,6.51,.65,2.64,1.94,5.1,4.65,6.73,3.63,2.19,8.68,2.17,13.29,2.04,8.12-.22,39.32-.23,49.84-.03,1.92,3.58,4.46,6.83,7.5,9.53,.68,.61,1.59,1.22,2.43,.88,.83-.34,1.06-1.38,1.17-2.27,.39-3.01,.78-6.02,1.18-9.02,.9-.29,1.77-.64,2.55-1.12,2.71-1.63,4-4.09,4.65-6.73,.82-2.06,1.07-4.35,1.2-6.51,.29-4.9,.35-9.81,.18-14.72,.11-5.17,.12-10.35,.02-15.52Z"></path><path class="cls-1" d="M367.43,222.57c-3.59,2.55-7.01,5.33-10.21,8.35-3.13,2.96-6.38,6.15-8.88,9.68-1.4,1.98-.35,3.72,1.11,5.28s3.02,2.96,4.7,4.24c3.37,2.58,7.11,4.66,10.88,6.61,2.07,1.07,4.97,3.16,7.36,1.9,.93-.49,1.49-1.46,.78-2.39-.85-1.12-2.55-1.31-3.8-1-.68,.16-1.2,.6-1.35,1.28l-.03,.15c-.45,2.04,4.5,2.58,4.98,.41l.03-.15-1.35,1.28,.13-.03h-1.93c-.25-.1-.5-.21-.75-.32l-.58-.76,.07,.16,.07-.85-.06,.17,.7-.65c1.92,.25,2.41,.18,1.47-.22-.25-.13-.5-.25-.75-.38-.5-.25-1-.51-1.5-.76-.88-.45-1.75-.9-2.62-1.36-1.81-.97-3.6-1.98-5.32-3.11-1.62-1.07-3.19-2.23-4.66-3.51-.99-.86-3.93-2.95-3.07-4.42,1.04-1.78,2.8-3.39,4.19-4.89,1.4-1.51,2.84-2.97,4.33-4.38,3.2-3.02,6.62-5.81,10.21-8.35,.99-.7,.04-1.9-.71-2.26-1.13-.54-2.45-.42-3.46,.29h0Z"></path><path class="cls-1" d="M401.94,259.51c3.61-2.56,7.02-5.36,10.25-8.38,1.66-1.55,3.26-3.17,4.8-4.84,1.45-1.57,3.01-3.17,4.22-4.94,2.88-4.19-2.69-8.45-5.62-10.81-3.37-2.71-7.15-4.85-10.97-6.85-1-.52-2-1.03-3-1.53s-2.16-1.21-3.32-.79c-2.81,1.01-.37,5.76,2.17,5.15,.44-.11,.95-.48,1.06-.96l.03-.15c.27-1.22-.21-2.52-1.26-3.25-.78-.54-2.31-.67-2.59,.56l-.03,.15,1.06-.96-.13,.03,1.02,.12,.2,.1,1.18,1.54-.07-.16c.03,.57,.05,1.14,.08,1.71l.06-.17-.6,.78c-.41,.06-.38,.15,.09,.28,.25,.13,.5,.25,.75,.38,.44,.22,.88,.44,1.31,.66,.94,.48,1.88,.96,2.8,1.46,1.68,.9,3.34,1.86,4.94,2.9,1.63,1.06,3.23,2.19,4.7,3.46,.68,.59,1.33,1.22,1.96,1.87,.31,.32,.71,.66,.96,1.02,.09-.3,.07-.39-.04-.28-.1,.16-.21,.3-.33,.45-5.09,6.63-11.53,12.38-18.33,17.2-1.99,1.41,.68,5.64,2.65,4.24h0Z"></path><path class="cls-1" d="M387.28,222.82c-3.5,11.42-6.5,22.99-8.98,34.67-.08,.36,4.7,.59,4.96-.65,2.48-11.68,5.48-23.25,8.98-34.67,.15-.48-2.35-.29-2.56-.26-.6,.08-2.18,.19-2.4,.91h0Z"></path></g><g id="coding-tab"><g><path class="cls-1" d="M193.32,28.23c-.06-3.09-.24-6.48-2.23-8.62-2.01-2.15-5.23-2.37-8.17-2.44-15.93-.36-129.63-.36-145.56,0-2.94,.07-6.17,.29-8.17,2.44-2,2.14-2.17,5.53-2.23,8.62-.34,16.66-.92,218.3-.66,239.72,.03,2.35,.09,4.82,1.24,6.91,2.87,5.2,10.13,4.23,15.9,4.43,28.83,1.01,104.34-1.52,133.42,0,5.77,.3,13.03,.77,15.9-4.43,1.15-2.09,1.21-4.55,1.24-6.91,.26-21.42-.32-223.06-.66-239.72Z"></path><path class="cls-2" d="M194.78,28.09c-.06-2.87-.12-6.07-1.88-8.49-1.64-2.27-4.48-3-7.12-3.24-2.01-.18-4.06-.15-6.09-.17-5.09-.06-10.19-.09-15.28-.11-15.88-.08-31.75-.09-47.63-.1-16.8,0-33.59,0-50.39,.06-6.25,.02-12.49,.05-18.74,.09-2.15,.02-4.29,.03-6.44,.06-2.38,.03-4.84-.05-7.19,.32-2.72,.42-5.37,1.51-6.9,3.91s-1.58,5.33-1.63,8.01c-.02,.94-.03,1.87-.04,2.81-.04,3.34-.06,6.67-.09,10.01-.08,11.41-.13,22.83-.18,34.24-.07,15.5-.12,31-.17,46.5-.05,16.86-.1,33.72-.14,50.59-.04,15.6-.07,31.21-.09,46.81-.01,11.71-.03,23.43,0,35.14,0,3.54,.01,7.09,.03,10.63,0,1.58,0,3.15,.07,4.73,.12,2.8,.73,5.65,2.93,7.58,1.78,1.55,4.09,2.18,6.39,2.49,2.55,.34,5.13,.23,7.69,.27,1.77,.03,3.53,.1,5.3,.14,3.75,.08,7.5,.11,11.26,.12,9.47,.03,18.93-.06,28.4-.16,20.81-.23,41.61-.59,62.42-.58,8.11,0,16.22,.05,24.32,.38,4.49,.18,9.11,.75,13.53-.3,2.42-.58,4.76-1.75,6.29-3.76,1.84-2.4,2.01-5.38,2.05-8.29,.09-7.18,.06-14.37,.06-21.56,0-13.07-.01-26.13-.03-39.2-.03-16.22-.06-32.44-.1-48.65-.04-16.74-.09-33.48-.15-50.22-.05-14.64-.11-29.29-.18-43.93-.05-9.82-.09-19.63-.18-29.45-.02-2.22-.03-4.44-.08-6.66-.03-1.37-2.94-.83-2.92,.29,.13,6.41,.13,12.82,.17,19.24,.07,12.38,.13,24.77,.18,37.15,.06,15.8,.12,31.59,.17,47.39,.05,16.64,.09,33.28,.13,49.91,.03,14.91,.06,29.82,.07,44.73,0,10.64,.02,21.27,0,31.91,0,2.87-.01,5.73-.04,8.6-.04,4.2-.3,8.97-4.94,10.51-4.15,1.37-8.89,.57-13.18,.4-18.07-.72-36.2-.37-54.27-.17-19.84,.22-39.67,.59-59.51,.55-3.82,0-7.65-.03-11.47-.11-4.05-.08-8.15,0-12.2-.27-2.34-.15-4.92-.54-6.73-2.18-2.31-2.11-2.46-5.37-2.5-8.29-.01-1.08-.02-2.17-.03-3.25-.05-8.69-.04-17.38-.04-26.06,0-13.86,.02-27.73,.05-41.59,.03-16.32,.07-32.64,.11-48.96,.05-16.39,.1-32.78,.16-49.16,.05-13.74,.11-27.48,.18-41.22,.04-8.57,.08-17.15,.17-25.72,.01-1.04,.02-2.07,.04-3.11,.03-1.55,.05-3.12,.3-4.66,.21-1.33,.58-2.7,1.43-3.78,.98-1.24,2.46-1.72,3.96-1.92,1.41-.19,2.85-.2,4.27-.22,.57-.01,.2,0,.73-.01,.46,0,.91-.01,1.37-.02,2.16-.03,4.32-.04,6.48-.06,14.05-.1,28.1-.12,42.15-.14,17.16-.02,34.32-.02,51.47,.02,12.44,.02,24.88,.04,37.32,.17,1.45,.02,2.91,.03,4.36,.07,2.45,.05,5.33,.08,7.25,1.83,2.25,2.06,2.32,5.61,2.38,8.43,.03,1.37,2.94,.83,2.92-.29Z"></path></g><g><path class="cls-2" d="M193.54,39.48c-.07-3.74-.14-7.49-.21-11.25-.06-3.09-.24-6.48-2.23-8.62-2.01-2.15-5.23-2.37-8.17-2.44-15.93-.36-129.63-.36-145.56,0-2.94,.07-6.17,.29-8.17,2.44-2,2.14-2.17,5.53-2.23,8.62-.08,3.76-.15,7.51-.21,11.25H193.54Z"></path><path class="cls-2" d="M195.01,39.37c-.06-3.42-.13-6.85-.2-10.27-.05-2.56,0-5.3-.95-7.72-1.8-4.56-6.56-5.15-10.88-5.24-3.46-.07-6.92-.09-10.37-.12-12.25-.09-24.51-.11-36.76-.13-15.24-.02-30.47-.03-45.71,0-12.94,.02-25.87,.04-38.81,.12-3.9,.02-7.81,.05-11.71,.1-2.68,.04-5.45-.02-8.01,.84-2.39,.81-4.31,2.45-5.2,4.84-.95,2.56-.91,5.34-.96,8.04-.07,3.26-.13,6.52-.19,9.78-.01,.75,.72,.93,1.33,.93H186.58c2.18,0,4.37,.09,6.55,0,.09,0,.19,0,.28,0,1.64,0,2.24-2.08,.27-2.08H33.69c-2.13,0-4.42-.23-6.55,0-.09,.01-.19,0-.28,0l1.33,.93c.06-3.26,.12-6.52,.19-9.78,.05-2.62-.11-5.56,1-8.01,1.6-3.53,5.71-3.33,9.03-3.39,3.48-.06,6.96-.08,10.44-.11,12.08-.08,24.17-.11,36.25-.12,14.83-.02,29.66-.02,44.48,0,12.72,.01,25.43,.04,38.15,.11,3.99,.02,7.98,.05,11.97,.1,.18,0,.36,0,.54,0,.12,0-.15,0,.24,0,.31,0,.61,0,.92,.02,1.21,.02,2.42,.04,3.63,.16,2.59,.27,4.91,1.24,5.95,3.8,1,2.47,.87,5.3,.93,7.91,.06,3.18,.12,6.36,.18,9.53,.03,1.49,2.96,1.04,2.93-.23Z"></path></g><g><path class="cls-1" d="M44.21,23.12c-1.51-.56-3.25-.43-4.67,.33-.54,.29-1.04,.68-1.39,1.19-.55,.82-.66,1.85-.7,2.83-.04,.87-.04,1.76,.29,2.57,.65,1.57,2.39,2.38,4.04,2.76,.62,.14,1.25,.24,1.88,.13,.66-.12,1.26-.47,1.77-.92,1.3-1.15,2-2.95,1.81-4.67-.19-1.73-1.27-3.33-2.8-4.16"></path><path class="cls-1" d="M45.37,22.44c-2.58-.91-5.95-.43-7.97,1.52-.97,.94-1.3,2.15-1.37,3.46s-.08,2.56,.63,3.68c.57,.89,1.51,1.51,2.47,1.91,1.23,.52,2.65,.85,3.99,.73,2.61-.24,4.89-2.27,5.47-4.82,.59-2.59-.71-5.15-2.98-6.42-.57-.32-1.53-.03-2.05,.28-.42,.25-.85,.76-.27,1.08,1.47,.82,2.41,2.42,2.53,4.08,.1,1.54-.65,3.46-2.03,4.2,.14-.08-.08,.03-.09,.04,.22-.08-.03,.02-.06,.01,.26,.02-.25-.03-.26-.04-.42-.04-.85-.15-1.25-.28-.76-.23-1.52-.58-2.11-1.12-.67-.62-1-1.38-1.09-2.28-.1-.97-.04-2.06,.22-2.99,.13-.46,.33-.87,.68-1.2s.61-.45,1.02-.59c-.07,.02-.22,.07,.08-.02l.16-.04c-.1,.02-.1,.02,0,0,.28-.05,.36-.06,.59-.06,.47,0,.93,.08,1.38,.23,.66,.23,1.46,.07,2.05-.28,.33-.2,.94-.85,.27-1.08h0Z"></path></g><g><path class="cls-1" d="M60.68,23.12c-1.51-.56-3.25-.43-4.67,.33-.54,.29-1.04,.68-1.39,1.19-.55,.82-.66,1.85-.7,2.83-.04,.87-.04,1.76,.29,2.57,.65,1.57,2.39,2.38,4.04,2.76,.62,.14,1.25,.24,1.88,.13,.66-.12,1.26-.47,1.77-.92,1.3-1.15,2-2.95,1.81-4.67-.19-1.73-1.27-3.33-2.8-4.16"></path><path class="cls-1" d="M61.85,22.51c-2.61-.92-6.01-.27-8.05,1.61-.93,.86-1.21,2.02-1.3,3.24s-.14,2.54,.55,3.61c1.21,1.89,3.98,2.76,6.13,2.65,2.72-.14,5.24-2.07,5.85-4.75,.55-2.44-.59-4.99-2.77-6.22-.55-.31-1.33-.12-1.88,.1-.16,.06-1.34,.66-.83,.94,1.54,.86,2.57,2.41,2.72,4.17,.14,1.66-.62,3.46-1.99,4.4-.36,.25,.12,0,.09,.02-.02,.02-.27,0-.35,0-.44-.05-.87-.15-1.29-.28-.8-.24-1.57-.59-2.2-1.15-.71-.63-1.06-1.44-1.15-2.37s-.05-2.02,.19-2.95c.13-.51,.34-.98,.71-1.36,.14-.14,.3-.27,.45-.37,0,0,.28-.15,.27-.15,.15-.07,.09-.04,.18-.08,.02,0,.31-.09,.31-.09,.23-.04,.25-.05,.52-.04,.51,0,1,.12,1.47,.29,.62,.22,1.48-.04,2.03-.34,.31-.16,.95-.67,.32-.89h0Z"></path></g><g><path class="cls-1" d="M76.93,23.12c-1.51-.56-3.25-.43-4.67,.33-.54,.29-1.04,.68-1.39,1.19-.55,.82-.66,1.85-.7,2.83-.04,.87-.04,1.76,.29,2.57,.65,1.57,2.39,2.38,4.04,2.76,.62,.14,1.25,.24,1.88,.13,.66-.12,1.26-.47,1.77-.92,1.3-1.15,2-2.95,1.81-4.67s-1.27-3.33-2.8-4.16"></path><path class="cls-1" d="M78.12,22.56c-1.31-.46-2.74-.46-4.08-.19s-2.89,.82-3.97,1.81c-.93,.84-1.22,1.98-1.32,3.19s-.14,2.55,.55,3.61c.59,.9,1.48,1.49,2.46,1.89,1.14,.46,2.41,.77,3.65,.68,2.7-.2,5.25-1.97,5.87-4.69,.55-2.43-.58-4.94-2.76-6.17-.51-.29-1.36-.02-1.87,.17-.14,.05-1.31,.57-.86,.82,1.54,.86,2.58,2.43,2.73,4.2,.14,1.63-.6,3.62-2.04,4.52,.03-.02-.16,.11-.13,.08-.17,.14,.17-.24,.3-.08-.01-.01-.2-.02-.28-.03-.46-.05-.93-.18-1.37-.31-.8-.24-1.58-.62-2.21-1.18-.71-.63-1.07-1.46-1.16-2.4s-.06-2.05,.18-2.98c.25-.94,.85-1.71,1.7-2.06,.12-.05,.13-.04,.22-.05,.08,0,.27-.03,.45-.02,.54,0,1.05,.13,1.56,.31,.59,.21,1.49-.12,2.03-.37,.3-.14,.95-.54,.36-.75h0Z"></path></g><g class="cls-4"><path class="cls-5" d="M64.83,124.01c.49,5.47,.79,10.99,1.5,16.44,.27,2.12,1.25,3.81,3.23,4.74,1.83,.85,3.91,.98,5.9,1,11.36,.12,22.72,.04,34.08,.06,6.45,.01,12.89,.02,19.34,.03,.66,0,1.59-.18,1.89-.86,.27-.6-.23-1.12-.86-1.12-10.91-.02-21.82-.04-32.73-.06-5.45,0-10.91-.02-16.36-.03-3.57,0-10.37,1.1-11.44-3.61-.59-2.63-.58-5.49-.82-8.17-.28-3.07-.55-6.13-.83-9.2-.11-1.22-3.02-.54-2.9,.78h0Z"></path></g><g class="cls-4"><path class="cls-5" d="M142.05,153.13c.15,23.15,.29,46.3,.44,69.45,.04,6.5,.08,12.99,.12,19.49,0,.91,2.9,.36,2.9-.78-.15-23.15-.29-46.3-.44-69.45-.04-6.5-.08-12.99-.12-19.49,0-.91-2.9-.36-2.9,.78h0Z"></path></g><g class="cls-4"><path class="cls-5" d="M91.78,181.83c12.58,.45,25.17,.53,37.75,.28,1.56-.03,2.3-1.93,.32-1.89-12.34,.25-24.68,.15-37.01-.29-.64-.02-1.6,.2-1.9,.84-.28,.61,.25,1.03,.84,1.05h0Z"></path></g><g class="cls-4"><path class="cls-5" d="M69.83,187.86v15.3c0,.89,2.9,.35,2.9-.78v-15.3c0-.89-2.9-.35-2.9,.78h0Z"></path></g><g class="cls-4"><path class="cls-5" d="M70.17,215.3c-.5,6.28-.71,12.58-.59,18.88,.05,3.02,.17,6.04,.37,9.06,.15,2.38,.41,4.88,1.96,6.81,2.87,3.57,8.3,3.58,12.46,3.42,6.17-.24,12.32-.59,18.5-.66,7.14-.08,14.28,.04,21.41,.35,.61,.03,1.62-.2,1.9-.83s-.24-.96-.82-.99c-11.98-.53-23.98-.5-35.96,.09-4.26,.21-9.96,1.24-13.67-1.48-1.97-1.44-2.55-3.8-2.77-6.11-.28-2.91-.36-5.85-.43-8.76-.16-6.71,.04-13.42,.57-20.11,.1-1.3-2.82-.79-2.91,.31h0Z"></path></g><g><rect class="cls-2" x="44.34" y="106.4" width="48.07" height="20.01" rx="6.57" ry="6.57"></rect><path class="cls-2" d="M85.85,126.91H50.91c-3.9,0-7.07-3.17-7.07-7.07v-6.87c0-3.9,3.17-7.07,7.07-7.07h34.94c3.9,0,7.07,3.17,7.07,7.07v6.87c0,3.9-3.17,7.07-7.07,7.07Zm-34.94-20.01c-3.35,0-6.07,2.72-6.07,6.07v6.87c0,3.35,2.72,6.07,6.07,6.07h34.94c3.35,0,6.07-2.72,6.07-6.07v-6.87c0-3.35-2.72-6.07-6.07-6.07H50.91Z"></path></g><g><rect class="cls-2" x="121.75" y="139.15" width="48.07" height="20.01" rx="6.57" ry="6.57"></rect><path class="cls-2" d="M163.25,159.66h-34.94c-3.9,0-7.07-3.17-7.07-7.07v-6.87c0-3.9,3.17-7.07,7.07-7.07h34.94c3.9,0,7.07,3.17,7.07,7.07v6.87c0,3.9-3.17,7.07-7.07,7.07Zm-34.94-20.01c-3.35,0-6.07,2.72-6.07,6.07v6.87c0,3.35,2.72,6.07,6.07,6.07h34.94c3.35,0,6.07-2.72,6.07-6.07v-6.87c0-3.35-2.72-6.07-6.07-6.07h-34.94Z"></path></g><g><rect class="cls-2" x="121.75" y="169.69" width="48.07" height="20.01" rx="6.57" ry="6.57"></rect><path class="cls-2" d="M163.25,190.2h-34.94c-3.9,0-7.07-3.17-7.07-7.07v-6.87c0-3.9,3.17-7.07,7.07-7.07h34.94c3.9,0,7.07,3.17,7.07,7.07v6.87c0,3.9-3.17,7.07-7.07,7.07Zm-34.94-20.01c-3.35,0-6.07,2.72-6.07,6.07v6.87c0,3.35,2.72,6.07,6.07,6.07h34.94c3.35,0,6.07-2.72,6.07-6.07v-6.87c0-3.35-2.72-6.07-6.07-6.07h-34.94Z"></path></g><g><rect class="cls-2" x="121.75" y="239.61" width="48.07" height="20.01" rx="6.57" ry="6.57"></rect><path class="cls-2" d="M163.25,260.12h-34.94c-3.9,0-7.07-3.17-7.07-7.07v-6.87c0-3.9,3.17-7.07,7.07-7.07h34.94c3.9,0,7.07,3.17,7.07,7.07v6.87c0,3.9-3.17,7.07-7.07,7.07Zm-34.94-20.01c-3.35,0-6.07,2.72-6.07,6.07v6.87c0,3.35,2.72,6.07,6.07,6.07h34.94c3.35,0,6.07-2.72,6.07-6.07v-6.87c0-3.35-2.72-6.07-6.07-6.07h-34.94Z"></path></g><g><rect class="cls-2" x="46.62" y="199.26" width="48.07" height="20.01" rx="6.57" ry="6.57"></rect><path class="cls-2" d="M88.13,219.77H53.19c-3.9,0-7.07-3.17-7.07-7.07v-6.87c0-3.9,3.17-7.07,7.07-7.07h34.94c3.9,0,7.07,3.17,7.07,7.07v6.87c0,3.9-3.17,7.07-7.07,7.07Zm-34.94-20.01c-3.35,0-6.07,2.72-6.07,6.07v6.87c0,3.35,2.72,6.07,6.07,6.07h34.94c3.35,0,6.07-2.72,6.07-6.07v-6.87c0-3.35-2.72-6.07-6.07-6.07H53.19Z"></path></g><g><rect class="cls-2" x="46.62" y="169.69" width="48.07" height="20.01" rx="6.57" ry="6.57"></rect><path class="cls-2" d="M88.13,190.2H53.19c-3.9,0-7.07-3.17-7.07-7.07v-6.87c0-3.9,3.17-7.07,7.07-7.07h34.94c3.9,0,7.07,3.17,7.07,7.07v6.87c0,3.9-3.17,7.07-7.07,7.07Zm-34.94-20.01c-3.35,0-6.07,2.72-6.07,6.07v6.87c0,3.35,2.72,6.07,6.07,6.07h34.94c3.35,0,6.07-2.72,6.07-6.07v-6.87c0-3.35-2.72-6.07-6.07-6.07H53.19Z"></path></g><g class="cls-4"><path class="cls-5" d="M40.84,51.45c-.02,5.83,.19,11.66,.61,17.48,.04,.52,.93,.67,1.31,.62,8.84-1.22,17.76-1.51,26.68-1.57s18.06-.03,27.1-.04c18.06-.01,36.12-.03,54.19-.04,10.24,0,20.48-.02,30.71-.02,.51,0,1.64-.48,1.61-1.13-.26-5.28-.52-10.57-.77-15.85-.03-.52-.42-.86-.95-.88-17.79-.56-35.59-.89-53.4-.97-17.68-.09-35.35,.06-53.03,.44-10.06,.22-20.13,.51-30.18,.88-1.6,.06-2.27,2.08-.29,2.01,17.62-.64,35.26-1.06,52.89-1.24,17.68-.18,35.36-.12,53.03,.17,9.98,.17,19.96,.41,29.94,.72l-.95-.88c.26,5.28,.52,10.57,.77,15.85l1.61-1.13c-18.14,.01-36.29,.03-54.43,.04-18.04,.01-36.08,0-54.12,.04-10.06,.02-20.14,.2-30.11,1.59,.44,.21,.87,.41,1.31,.62-.41-5.64-.6-11.3-.58-16.96,0-1.45-2.92-.97-2.93,.25h0Z"></path></g><g class="cls-4"><path class="cls-5" d="M45,77.46c5.94,0,11.87,0,17.81,0,.64,0,1.57-.19,1.91-.81,.31-.58-.27-.94-.81-.94-5.94,0-11.87,0-17.81,0-.64,0-1.57,.19-1.91,.81-.31,.58,.27,.94,.81,.94h0Z"></path></g><g class="cls-4"><path class="cls-5" d="M74.41,77.71c16.65-.07,33.3-.14,49.96-.21l14.17-.06c.51,0,1.66-.22,1.93-.71,.3-.53-.26-.54-.7-.54-16.65,.07-33.3,.14-49.96,.21-4.72,.02-9.44,.04-14.17,.06-.51,0-1.66,.22-1.93,.71-.3,.53,.26,.54,.7,.54h0Z"></path></g><g class="cls-4"><path class="cls-5" d="M150.22,77.66c9.07-.09,18.14,.05,27.2,.42,.55,.02,1.64-.22,1.92-.76,.3-.58-.26-.73-.76-.75-9.06-.37-18.13-.51-27.2-.42-.56,0-1.63,.2-1.92,.76s.25,.75,.76,.75h0Z"></path></g><g class="cls-4"><path class="cls-5" d="M45.36,86.82c13.87-1.45,27.88-1.49,41.76-.1,.69,.07,1.52-.05,2.05-.55,.39-.37,.39-.94-.27-1-14.35-1.44-28.8-1.42-43.14,.07-.49,.05-1.57,.36-1.65,.97-.09,.64,.84,.64,1.25,.6h0Z"></path></g><g class="cls-4"><path class="cls-5" d="M96.74,86.53h5.51c.68,0,1.47-.18,2.05-.55,.12-.07,.4-.22,.35-.4s-.39-.17-.5-.17h-5.51c-.68,0-1.47,.18-2.05,.55-.12,.07-.4,.22-.35,.4s.39,.17,.5,.17h0Z"></path></g><g class="cls-4"><path class="cls-5" d="M113.43,86.36h62.18c1.64,0,2.24-2.08,.27-2.08h-62.18c-1.64,0-2.24,2.08-.27,2.08h0Z"></path></g><g class="cls-4"><path class="cls-5" d="M46.98,94.65c2.16-.23,4.32-.45,6.47-.68,.54-.06,1.52-.36,1.65-.99s-.87-.67-1.25-.63c-2.16,.23-4.32,.45-6.47,.68-.54,.06-1.52,.36-1.65,.99s.87,.67,1.25,.63h0Z"></path></g><g class="cls-4"><path class="cls-5" d="M63.14,94.44c12.85-.13,25.69-.27,38.54-.4,.61,0,1.61-.18,1.9-.82,.27-.59-.23-.97-.82-.97-12.85,.13-25.69,.27-38.54,.4-.61,0-1.61,.18-1.9,.82-.27,.59,.23,.97,.82,.97h0Z"></path></g></g><g id="coding-tab-2"><g><path class="cls-1" d="M429,28.23c-.06-3.09-.24-6.48-2.23-8.62-2.01-2.15-5.23-2.37-8.17-2.44-15.93-.36-129.63-.36-145.56,0-2.94,.07-6.17,.29-8.17,2.44-2,2.14-2.17,5.53-2.23,8.62-.34,16.66-.92,130.56-.66,151.98,.03,2.35,.09,4.82,1.24,6.91,2.87,5.2,10.13,4.23,15.9,4.43,28.83,1.01,104.34-1.52,133.42,0,5.77,.3,13.03,.77,15.9-4.43,1.15-2.09,1.21-4.55,1.24-6.91,.26-21.42-.32-135.32-.66-151.98Z"></path><path class="cls-2" d="M430.46,28.08c-.09-4.03-.42-8.74-4.58-10.67-2.47-1.14-5.27-1.15-7.94-1.19-2.81-.05-5.63-.07-8.44-.09-9.63-.07-19.26-.1-28.89-.12-12.46-.03-24.93-.04-37.39-.04-12.17,0-24.35,.02-36.52,.05-8.91,.02-17.82,.05-26.73,.13-2.99,.03-6.03-.06-9.01,.2-4.27,.37-8.05,2.22-9.23,6.61-.62,2.29-.56,4.71-.59,7.07-.12,7.48-.17,14.96-.23,22.44-.09,11.69-.16,23.38-.22,35.07-.07,13-.13,26-.17,39-.04,11.39-.07,22.78-.07,34.17,0,4.18,0,8.36,.02,12.54,.01,3.73-.34,7.84,.35,11.5,1.63,8.65,11.59,7.51,18.24,7.72,5.28,.17,10.56,.21,15.84,.22,14.24,.03,28.48-.17,42.71-.34,15.06-.19,30.11-.39,45.17-.4,6.35,0,12.7,.02,19.04,.16,2.56,.05,5.11,.12,7.67,.23,3.2,.13,6.4,.42,9.6,.22,3.56-.22,7.47-1.18,9.82-4.07,2.22-2.72,2.2-6.22,2.23-9.55,.03-3.21,.04-6.42,.05-9.64,.02-10.19,0-20.38-.03-30.58-.03-12.78-.08-25.57-.14-38.35-.06-12.46-.13-24.92-.21-37.37-.06-9.24-.13-18.48-.23-27.72-.03-2.41-.05-4.81-.1-7.22-.03-1.36-2.94-.81-2.92,.3,.13,6.45,.16,12.9,.22,19.35,.09,10.97,.16,21.94,.22,32.9,.07,12.79,.13,25.57,.18,38.36,.05,11.74,.08,23.49,.1,35.23,0,8.01,.02,16.01-.04,24.02-.02,2.49,.14,5.1-.61,7.49-1.22,3.84-4.92,4.84-8.53,5.02-3.05,.15-6.11-.16-9.16-.28-2.55-.1-5.11-.17-7.66-.22-13.41-.26-26.82-.14-40.22-.01-15.05,.15-30.1,.38-45.14,.52-11.96,.11-23.93,.26-35.89-.1-3.35-.1-6.76,.11-10.08-.34-1.66-.23-3.37-.71-4.71-1.77-1.65-1.32-2.38-3.34-2.63-5.38-.44-3.48-.2-7.16-.21-10.67-.03-9.38-.01-18.76,0-28.14,.03-12.37,.07-24.74,.13-37.11,.06-12.55,.12-25.1,.2-37.64,.06-9.91,.13-19.81,.23-29.72,.03-3.13,.06-6.26,.11-9.38,.02-1.59,.02-3.18,.14-4.77,.15-2.04,.47-4.41,2-5.92s3.65-1.59,5.58-1.67c.49-.02,.99-.03,1.48-.04,.19,0,.31,0,.03,0,.14,0,.28,0,.43,0,.52,0,1.04-.02,1.57-.02,1.4-.02,2.81-.03,4.21-.05,3.87-.03,7.74-.06,11.61-.08,10.76-.05,21.53-.07,32.29-.09,12.44-.02,24.89-.02,37.33,0,11.31,.01,22.61,.03,33.92,.08,7.23,.03,14.47,.04,21.71,.16,1.89,.03,3.82-.02,5.67,.38,2.05,.44,3.74,1.56,4.58,3.53s.92,4.26,.97,6.4c.03,1.36,2.94,.81,2.92-.3Z"></path></g><g><path class="cls-2" d="M429.21,39.48c-.07-3.74-.14-7.49-.21-11.25-.06-3.09-.24-6.48-2.23-8.62-2.01-2.15-5.23-2.37-8.17-2.44-15.93-.36-129.63-.36-145.56,0-2.94,.07-6.17,.29-8.17,2.44-2,2.14-2.17,5.53-2.23,8.62-.08,3.76-.15,7.51-.21,11.25h166.81Z"></path><path class="cls-2" d="M430.66,39.09c-.06-3.42-.13-6.85-.2-10.27-.05-2.59,0-5.37-1.07-7.79-1.91-4.27-6.66-4.65-10.77-4.73-3.39-.07-6.78-.09-10.17-.11-12.3-.09-24.61-.11-36.91-.13-15.29-.02-30.57-.03-45.86,0-12.84,.02-25.69,.04-38.53,.12-3.85,.02-7.69,.05-11.54,.1-2.77,.04-5.62-.02-8.28,.87-2.35,.78-4.24,2.3-5.19,4.62-1.05,2.54-.96,5.41-1.01,8.11-.07,3.26-.13,6.52-.19,9.78,0,.49,.45,.69,.9,.69h146.35c6.72,0,13.45,.07,20.18,0,.09,0,.19,0,.28,0,.6,0,1.62-.19,1.91-.81s-.24-.92-.8-.92h-164.28c-.72,0-1.54-.11-2.25,0-.09,.01-.19,0-.28,0l.9,.69c.06-3.26,.12-6.52,.19-9.78,.05-2.61-.07-5.47,.94-7.94,1.49-3.64,5.42-3.52,8.77-3.58s7.01-.08,10.52-.11c12.16-.08,24.32-.11,36.49-.12,14.88-.02,29.75-.02,44.63,0,12.66,.02,25.32,.04,37.97,.11,3.94,.02,7.88,.05,11.81,.1,1.95,.03,3.96-.03,5.89,.24,2.57,.36,4.7,1.57,5.64,4.09,.94,2.53,.83,5.36,.88,8.01,.06,3.18,.12,6.36,.18,9.53,.02,.97,2.92,.4,2.9-.78Z"></path></g><g><path class="cls-1" d="M279.88,23.12c-1.51-.56-3.25-.43-4.67,.33-.54,.29-1.04,.68-1.39,1.19-.55,.82-.66,1.85-.7,2.83-.04,.87-.04,1.76,.29,2.57,.65,1.57,2.39,2.38,4.04,2.76,.62,.14,1.25,.24,1.88,.13,.66-.12,1.26-.47,1.77-.92,1.3-1.15,2-2.95,1.81-4.67-.19-1.73-1.27-3.33-2.8-4.16"></path><path class="cls-1" d="M281.04,22.44c-2.58-.91-5.95-.43-7.97,1.52-.97,.94-1.3,2.15-1.37,3.46s-.08,2.56,.63,3.68c.57,.89,1.51,1.51,2.47,1.91,1.23,.52,2.65,.85,3.99,.73,2.61-.24,4.89-2.27,5.47-4.82,.59-2.59-.71-5.15-2.98-6.42-.57-.32-1.53-.03-2.05,.28-.42,.25-.85,.76-.27,1.08,1.47,.82,2.41,2.42,2.53,4.08,.1,1.54-.65,3.46-2.03,4.2,.14-.08-.08,.03-.09,.04,.22-.08-.03,.02-.06,.01,.26,.02-.25-.03-.26-.04-.42-.04-.85-.15-1.25-.28-.76-.23-1.52-.58-2.11-1.12-.67-.62-1-1.38-1.09-2.28-.1-.97-.04-2.06,.22-2.99,.13-.46,.33-.87,.68-1.2s.61-.45,1.02-.59c-.07,.02-.22,.07,.08-.02l.16-.04c-.1,.02-.1,.02,0,0,.28-.05,.36-.06,.59-.06,.47,0,.93,.08,1.38,.23,.66,.23,1.46,.07,2.05-.28,.33-.2,.94-.85,.27-1.08h0Z"></path></g><g><path class="cls-1" d="M296.35,23.12c-1.51-.56-3.25-.43-4.67,.33-.54,.29-1.04,.68-1.39,1.19-.55,.82-.66,1.85-.7,2.83-.04,.87-.04,1.76,.29,2.57,.65,1.57,2.39,2.38,4.04,2.76,.62,.14,1.25,.24,1.88,.13,.66-.12,1.26-.47,1.77-.92,1.3-1.15,2-2.95,1.81-4.67s-1.27-3.33-2.8-4.16"></path><path class="cls-1" d="M297.53,22.51c-2.61-.92-6.01-.27-8.05,1.61-.93,.86-1.21,2.02-1.3,3.24s-.14,2.54,.55,3.61c1.21,1.89,3.98,2.76,6.13,2.65,2.72-.14,5.24-2.07,5.85-4.75,.55-2.44-.59-4.99-2.77-6.22-.55-.31-1.33-.12-1.88,.1-.16,.06-1.34,.66-.83,.94,1.54,.86,2.57,2.41,2.72,4.17,.14,1.66-.62,3.46-1.99,4.4-.36,.25,.12,0,.09,.02-.02,.02-.27,0-.35,0-.44-.05-.87-.15-1.29-.28-.8-.24-1.57-.59-2.2-1.15-.71-.63-1.06-1.44-1.15-2.37s-.05-2.02,.19-2.95c.13-.51,.34-.98,.71-1.36,.14-.14,.3-.27,.45-.37,0,0,.28-.15,.27-.15,.15-.07,.09-.04,.18-.08,.02,0,.31-.09,.31-.09,.23-.04,.25-.05,.52-.04,.51,0,1,.12,1.47,.29,.62,.22,1.48-.04,2.03-.34,.31-.16,.95-.67,.32-.89h0Z"></path></g><g><path class="cls-1" d="M312.6,23.12c-1.51-.56-3.25-.43-4.67,.33-.54,.29-1.04,.68-1.39,1.19-.55,.82-.66,1.85-.7,2.83-.04,.87-.04,1.76,.29,2.57,.65,1.57,2.39,2.38,4.04,2.76,.62,.14,1.25,.24,1.88,.13,.66-.12,1.26-.47,1.77-.92,1.3-1.15,2-2.95,1.81-4.67s-1.27-3.33-2.8-4.16"></path><path class="cls-1" d="M313.79,22.56c-1.31-.46-2.74-.46-4.08-.19s-2.89,.82-3.97,1.81c-.93,.84-1.22,1.98-1.32,3.19s-.14,2.55,.55,3.61c.59,.9,1.48,1.49,2.46,1.89,1.14,.46,2.41,.77,3.65,.68,2.7-.2,5.25-1.97,5.87-4.69,.55-2.43-.58-4.94-2.76-6.17-.51-.29-1.36-.02-1.87,.17-.14,.05-1.31,.57-.86,.82,1.54,.86,2.58,2.43,2.73,4.2,.14,1.63-.6,3.62-2.04,4.52,.03-.02-.16,.11-.13,.08-.17,.14,.17-.24,.3-.08-.01-.01-.2-.02-.28-.03-.46-.05-.93-.18-1.37-.31-.8-.24-1.58-.62-2.21-1.18-.71-.63-1.07-1.46-1.16-2.4s-.06-2.05,.18-2.98,.85-1.71,1.7-2.06c.12-.05,.13-.04,.22-.05,.08,0,.27-.03,.45-.02,.54,0,1.05,.13,1.56,.31,.59,.21,1.49-.12,2.03-.37,.3-.14,.95-.54,.36-.75h0Z"></path></g><g class="cls-4"><path class="cls-5" d="M277.45,61.01c12.81-.13,25.62-.27,38.43-.4,.56,0,1.63-.2,1.92-.77s-.25-.77-.76-.76c-12.81,.13-25.62,.27-38.43,.4-.56,0-1.63,.2-1.92,.77s.25,.77,.76,.76h0Z"></path></g><g class="cls-4"><path class="cls-5" d="M278.96,70.23c12.05-.68,24.12-1.09,36.19-1.22,.6,0,1.62-.19,1.91-.8,.27-.58-.23-.91-.8-.9-12.32,.14-24.63,.56-36.93,1.26-.51,.03-1.56,.39-1.64,1.01-.08,.68,.82,.69,1.26,.67h0Z"></path></g><g class="cls-4"><path class="cls-5" d="M278.56,78.44c11.95-.15,23.89-.31,35.84-.46,.64,0,1.53-.14,2.05-.55,.37-.29,.48-.59-.16-.58-11.95,.15-23.89,.31-35.84,.46-.64,0-1.53,.14-2.05,.55-.37,.29-.48,.59,.16,.58h0Z"></path></g><g class="cls-4"><path class="cls-5" d="M324.07,78.29c8.62-.09,17.24-.18,25.87-.26,1.62-.02,2.25-2.06,.28-2.04-8.62,.09-17.24,.18-25.87,.26-1.62,.02-2.25,2.06-.28,2.04h0Z"></path></g><g class="cls-4"><path class="cls-5" d="M323.29,84.18c13.79,.41,27.59,.06,41.34-1.07,.54-.04,1.63-.19,1.93-.72s-.25-.62-.71-.58c-13.54,1.11-27.13,1.48-40.71,1.08-.64-.02-1.55,.1-2.05,.55-.36,.33-.46,.73,.2,.74h0Z"></path></g><g class="cls-4"><path class="cls-5" d="M324.05,91.68c18.46-.62,36.93-1.24,55.39-1.86,1.54-.05,2.32-1.9,.33-1.84-18.46,.62-36.93,1.24-55.39,1.86-1.54,.05-2.32,1.9-.33,1.84h0Z"></path></g><g class="cls-4"><path class="cls-5" d="M352.87,98.08c9-.06,18-.45,26.97-1.21,.56-.05,1.55-.41,1.62-1.08s-.79-.83-1.3-.79c-8.73,.74-17.48,1.14-26.23,1.2-.64,0-1.59,.18-1.9,.84-.28,.59,.24,1.04,.83,1.04h0Z"></path></g><g class="cls-4"><path class="cls-5" d="M353.61,104.38c8.75,.32,17.51,.06,26.23-.81,.57-.06,1.55-.41,1.62-1.09s-.78-.86-1.3-.8c-8.47,.84-16.98,1.12-25.49,.8-.64-.02-1.6,.2-1.9,.84-.28,.61,.25,1.03,.84,1.06h0Z"></path></g><g class="cls-4"><path class="cls-5" d="M352.73,110.15c19.24,1.48,38.35-3.73,57.57-1.77,.68,.07,1.41-.09,2.02-.38,.18-.09,1.04-.64,.37-.7-19.4-1.97-38.66,3.22-58.07,1.73-.62-.05-1.56,.16-2.05,.55-.41,.32-.44,.54,.16,.58h0Z"></path></g><g class="cls-4"><path class="cls-5" d="M388.29,116.17c7.64,0,15.27,0,22.91,0,.65,0,1.51-.17,2.05-.55,.4-.29,.46-.55-.15-.55-7.64,0-15.27,0-22.91,0-.65,0-1.51,.17-2.05,.55-.4,.29-.46,.55,.15,.55h0Z"></path></g><g class="cls-4"><path class="cls-5" d="M390.86,122.49c7.02-.14,14.04-.29,21.06-.43,.53-.01,1.64-.21,1.93-.73s-.26-.62-.72-.61c-7.02,.14-14.04,.29-21.06,.43-.53,.01-1.64,.21-1.93,.73s.26,.62,.72,.61h0Z"></path></g><g class="cls-4"><path class="cls-5" d="M358.4,130.55c17.74-.83,35.47-1.8,53.2-2.91,.5-.03,1.57-.38,1.65-.99,.09-.66-.83-.65-1.25-.62-17.48,1.1-34.97,2.06-52.47,2.87-.59,.03-1.61,.18-1.91,.79-.27,.56,.23,.88,.79,.86h0Z"></path></g><g class="cls-4"><path class="cls-5" d="M359.12,136.07c3.36,.13,6.72,.14,10.08,.02,1.64-.06,3.27-.15,4.91-.27,.79-.06,1.58-.12,2.36-.2,.39-.04,.79-.07,1.18-.11,.26-.03,.52-.05,.79-.08,.49-.05,.52-.06,.11-.02l-.3-.33v.14c.1-.22,.19-.44,.29-.66l-.11,.11,.96-.5-.15,.04,1.55,.19-.09-.08c-.81-.69-3.52,.44-2.68,1.16,1.14,.98,4.21-.67,2.74-1.57-.8-.49-2.07-.14-2.93-.06-1.18,.12-2.36,.22-3.54,.3-4.68,.34-9.37,.39-14.06,.2-.62-.02-1.58,.21-1.91,.81s.28,.89,.8,.91h0Z"></path></g><g class="cls-4"><path class="cls-5" d="M358.74,142.85c5.54,0,11.08,0,16.63,0,.61,0,1.57-.21,1.92-.78s-.29-.81-.77-.81c-5.54,0-11.08,0-16.63,0-.61,0-1.57,.21-1.92,.78s.29,.81,.77,.81h0Z"></path></g><g class="cls-4"><path class="cls-5" d="M323.27,150.42c15.63-.46,31.25-1.24,46.85-2.36,.51-.04,1.65-.21,1.94-.69s-.26-.5-.68-.47c-15.39,1.11-30.8,1.9-46.23,2.34-.65,.02-1.52,.12-2.05,.55-.36,.29-.48,.65,.17,.63h0Z"></path></g><g class="cls-4"><path class="cls-5" d="M323.69,156.58c5.76,.67,11.65,0,17.41-.34s12.04-.7,18.06-1.05c1.55-.09,2.31-2.02,.32-1.91-5.86,.34-11.71,.68-17.57,1.03s-11.49,1.02-17.17,.36c-1.3-.15-3.01,1.69-1.05,1.91h0Z"></path></g><g class="cls-4"><path class="cls-5" d="M323.66,164.68c5.17,.21,10.34,.32,15.51,.32,.63,0,1.57-.19,1.91-.81,.32-.58-.27-.93-.81-.93-5.17,0-10.35-.1-15.51-.32-.63-.03-1.58,.21-1.91,.81s.28,.91,.81,.93h0Z"></path></g><g class="cls-4"><path class="cls-5" d="M277.9,164.72c12.81-.13,25.62-.27,38.43-.4,1.67-.02,2.21-2.2,.24-2.18-12.81,.13-25.62,.27-38.43,.4-1.67,.02-2.21,2.2-.24,2.18h0Z"></path></g><g class="cls-4"><path class="cls-5" d="M278.55,173.47c12.18-.69,24.37-1.1,36.56-1.24,.54,0,1.64-.21,1.93-.74s-.26-.66-.73-.66c-12.19,.14-24.38,.55-36.56,1.24-.55,.03-1.63,.19-1.93,.74s.25,.68,.73,.66h0Z"></path></g></g><g id="hands"><g><path class="cls-1" d="M341.54,406.45c-11.42-2.86-21.42-10.37-27.93-20.15-5.48-8.23,3.58-18.33,12.35-13.77,5.51,2.87,10.7,6.35,15.44,10.37-.31-18.09-2.37-36.14-6.16-53.83-1.9,1.06-3.69,2.32-5.34,3.73-2.45,2.1-6.14,.09-5.79-3.12,.23-2.13,.64-4.23,1.22-6.29,1.31-4.63,3.89-9.38,8.39-11.09,4.49-1.71,10.74,1.56,10.25,6.35-.37-5.22,2.14-11.04,7.08-12.76,4.94-1.73,11.38,2.94,9.95,7.98,2.64-3.84,6.5-7.34,11.15-7.57s9.48,4.37,7.97,8.77c1.43-9.46,14.37-14.83,22.08-9.17,6.9,5.07,7.68,14.9,7.84,23.46,.37,20.66,.75,41.32,1.12,61.97"></path><path class="cls-5" d="M342.4,405.56c-9.88-2.52-18.61-8.48-24.94-16.43-1.47-1.85-3.11-3.82-3.74-6.14-.53-1.93-.37-4.02,.48-5.84,1.66-3.57,5.43-5.68,9.3-4.42,1.45,.47,2.8,1.33,4.13,2.08,1.45,.82,2.87,1.69,4.27,2.6,2.85,1.86,5.58,3.89,8.17,6.08,.62,.53,2.81,.41,2.79-.75-.32-18.18-2.38-36.29-6.17-54.07-.21-.99-1.87-.46-2.38-.17-1.01,.57-1.99,1.19-2.94,1.86s-1.72,1.49-2.65,2.07c-1.24,.77-2.65-.46-3.03-1.66-.31-.98-.04-2.07,.11-3.06,.17-1.06,.37-2.1,.63-3.14,.49-2.03,1.15-4,2.13-5.85,1.53-2.9,4.25-6.2,7.88-5.91,3.07,.25,6.3,2.64,6.06,5.98,.97-.18,1.94-.35,2.91-.53-.25-4.28,1.62-10.39,6.31-11.64,4.11-1.1,8.86,3.22,7.81,7.39-.15,.61,.7,.8,1.11,.8,.66,0,1.33-.29,1.71-.84,2.24-3.2,5.82-6.99,10.1-6.72,3.79,.24,7.37,4.13,6.19,7.96,.97-.1,1.95-.19,2.92-.29,.87-5.27,5.4-9.25,10.57-10.19,6.02-1.09,11.15,2.5,13.62,7.87,2.9,6.31,2.75,13.59,2.87,20.38,.17,9.16,.33,18.33,.5,27.49,.19,10.33,.37,20.66,.56,30.99,.02,1.38,2.94,.84,2.92-.29-.36-19.91-.72-39.82-1.08-59.72-.13-7.07-.09-14.69-3.59-21.06-3.1-5.63-8.97-8.57-15.33-7.57-6.49,1.02-12.84,5.59-13.95,12.38-.23,1.38,2.6,.74,2.92-.29,1.55-5.05-3.7-9.45-8.39-9.58-5.77-.16-10.45,3.97-13.56,8.42,.94-.01,1.88-.03,2.83-.04,1.53-6.03-5.73-10.08-10.89-8.91-6.33,1.44-9.4,8.24-9.05,14.23,.07,1.11,2.83,.47,2.91-.53,.25-3.38-2.21-5.89-5.22-7-3.42-1.26-7.19-.48-10.04,1.72-3.1,2.39-4.96,5.94-6.1,9.62-.7,2.27-1.31,4.76-1.43,7.14-.08,1.58,.6,3.02,1.95,3.88,1.53,.98,3.55,.93,5.15,.17,1.11-.52,1.99-1.46,2.96-2.18,1.11-.82,2.27-1.56,3.47-2.24l-2.38-.17c3.76,17.62,5.83,35.57,6.15,53.59,.93-.25,1.86-.5,2.79-.75-2.61-2.21-5.34-4.28-8.2-6.17-2.64-1.74-5.43-3.56-8.36-4.8-4.34-1.83-9.49-.67-12.73,2.73-3.22,3.39-3.87,8.35-1.46,12.39,2.88,4.82,7.11,9.06,11.53,12.48,5.08,3.93,10.94,6.82,17.16,8.41,.67,.17,1.57-.02,2.05-.55,.42-.46,.32-1.06-.33-1.23h0Z"></path></g><g><path class="cls-1" d="M84.22,387.21c6.1-15.32,13.67-30.06,22.56-43.95,1.4-2.19,2.99-4.48,5.42-5.4,2.43-.92,5.82,.37,6.03,2.96,2.6-4.52,5.55-9.03,9.84-11.99,4.29-2.96,10.24-4.07,14.76-1.47,7.73-13.5,23.37-22.06,38.91-21.29-6.21,6.63-13.87,11.77-19.98,18.48-6.12,6.71-10.72,15.81-8.78,24.68s12.77,15.68,20.56,11.02c2.49-1.49,6.01-3.78,7.68-1.41,.93,1.32,.27,3.13-.42,4.6-7.38,15.63-15.88,30.72-25.42,45.14"></path><path class="cls-5" d="M85.6,387.34c3.2-8.02,6.79-15.88,10.76-23.54,1.99-3.83,4.07-7.61,6.25-11.34,2.1-3.6,4.18-7.32,6.63-10.69,.98-1.35,2.45-3.2,4.29-3.21,1.61-.02,3.04,1.04,3.25,2.65,.16,1.26,2.45,.39,2.82-.26,2.41-4.18,5.1-8.42,9.08-11.29,3.73-2.69,8.83-3.81,13.02-1.51,.8,.44,2.04,.13,2.5-.67,7.45-12.87,22.11-21.09,37.01-20.42l-.68-1.37c-7.08,7.5-16.07,13.12-22.39,21.35-5.39,7.03-9.67,17.27-5.45,25.9,3.21,6.58,11,11.34,18.37,9.38,1.95-.52,3.51-1.62,5.26-2.55,.71-.38,1.81-1.09,2.67-.94,1.16,.2,1.29,1.66,1.11,2.58-.23,1.19-.89,2.31-1.4,3.4-.61,1.28-1.23,2.55-1.85,3.82-1.21,2.47-2.46,4.92-3.73,7.36-5.81,11.15-12.2,21.99-19.13,32.47-.4,.61,.35,1.06,.86,1.12,.72,.09,1.5-.26,1.89-.86,6.1-9.24,11.79-18.76,17.03-28.52,2.64-4.91,5.16-9.89,7.57-14.92,.87-1.83,2.38-4.24,1.56-6.34-.73-1.87-2.73-2.33-4.53-1.99-2.07,.39-3.83,1.58-5.63,2.61-1.5,.85-3.13,1.28-4.86,1.21-3.69-.17-7.19-2.19-9.66-4.85-6.69-7.19-4.44-17.66,.33-25.25,6.17-9.81,16.54-15.9,24.37-24.2,.59-.62,.08-1.34-.68-1.37-12.7-.57-25.35,4.52-34.27,13.56-2.53,2.57-4.72,5.47-6.53,8.59,.83-.22,1.67-.45,2.5-.67-4.99-2.75-11.09-1.8-15.84,1.04-5.05,3.01-8.39,8.12-11.27,13.1l2.82-.26c-.45-3.49-4.89-4.46-7.72-3.5-4.02,1.37-6.17,5.56-8.27,8.93-5.22,8.37-9.95,17.04-14.18,25.95-2.38,5.01-4.59,10.1-6.65,15.26-.59,1.49,2.31,1.37,2.75,.26h0Z"></path></g><g><path class="cls-2" d="M431.55,371.69c-6.45-2.33-13.53,.21-19.91,2.72-10.73,4.23-21.47,8.45-32.2,12.68-20.1,7.91-40.57,16.04-57.28,29.73,7.04,13.17,18.28,23.52,29.31,33.59,8.57,7.83,17.14,15.66,25.72,23.49,2.58,2.36,5.21,4.75,8.38,6.23,3.91,1.83,8.35,2.13,12.66,2.34,23.54,1.17,47.16,.71,70.63-1.38,4.63-.41,9.35-.91,13.57-2.85,4.23-1.93,7.94-5.57,8.75-10.15,.7-3.96-1.16-7.81-2.56-11.58-11.99-32.31-34.91-59.13-57.07-84.82"></path><path class="cls-2" d="M432.74,371.11c-7.52-2.59-15.52,.54-22.52,3.29-8.13,3.2-16.26,6.4-24.38,9.6-14.65,5.77-29.48,11.31-43.39,18.73-7.62,4.06-14.91,8.71-21.6,14.17-.1,.08-.14,.18-.13,.3,4.73,8.78,11.3,16.37,18.36,23.35,7.72,7.62,15.89,14.79,23.9,22.1,4.29,3.91,8.57,7.83,12.86,11.74,3.8,3.47,7.64,6.56,12.77,7.71,5.23,1.18,10.78,1.1,16.12,1.29,5.76,.2,11.53,.31,17.3,.32,11.48,.01,22.95-.35,34.4-1.1,5.56-.36,11.15-.7,16.68-1.43,4.77-.63,9.71-1.86,13.65-4.74,3.39-2.48,6.03-6.16,6.05-10.49,.01-2.6-.91-5.11-1.83-7.51s-1.81-4.79-2.78-7.16c-3.83-9.32-8.58-18.23-13.91-26.77-10.64-17.05-23.52-32.57-36.59-47.79-1.58-1.84-3.17-3.68-4.76-5.52-.49-.56-3.21,.44-2.73,1.01,17.42,20.19,34.98,40.67,47.68,64.27,3.14,5.83,5.96,11.84,8.37,18,1.23,3.14,2.7,6.34,3.37,9.66,.63,3.15,.02,6.21-1.82,8.85-3.97,5.68-11,6.82-17.42,7.42-7.68,.71-15.39,1.22-23.09,1.57-15.21,.69-30.44,.69-45.65,0-3.56-.16-7.18-.23-10.67-1.02-3.45-.78-6.41-2.43-9.12-4.66-2.79-2.29-5.4-4.82-8.06-7.26-2.82-2.57-5.63-5.14-8.45-7.72-10.35-9.45-21.23-18.59-30.52-29.12-2.29-2.59-4.46-5.28-6.46-8.11-.91-1.28-1.77-2.59-2.6-3.93-.38-.61-.74-1.22-1.1-1.84-.21-.36-.48-.74-.63-1.12-.31-.76-.15-.78,.48-1.29,5.31-4.23,11.03-7.95,16.95-11.25,11.79-6.58,24.34-11.61,36.87-16.55,6.98-2.75,13.97-5.5,20.95-8.25,3.53-1.39,7.05-2.78,10.58-4.16,3.32-1.31,6.63-2.69,10.09-3.56,3.48-.87,7-1.02,10.42,.16,.6,.21,1.49-.08,2.03-.36,.3-.15,.96-.59,.34-.8h0Z"></path></g><g><path class="cls-2" d="M68.45,371.69c6.45-2.33,13.53,.21,19.91,2.72,10.73,4.23,21.47,8.45,32.2,12.68,20.1,7.91,40.57,16.04,57.28,29.73-7.04,13.17-18.28,23.52-29.31,33.59-8.57,7.83-17.14,15.66-25.72,23.49-2.58,2.36-5.21,4.75-8.38,6.23-3.91,1.83-8.35,2.13-12.66,2.34-23.54,1.17-47.16,.71-70.63-1.38-4.63-.41-9.35-.91-13.57-2.85-4.23-1.93-7.94-5.57-8.75-10.15-.7-3.96,1.16-7.81,2.56-11.58,11.99-32.31,34.91-59.13,57.07-84.82"></path><path class="cls-2" d="M69.02,372.27c3.62-1.24,7.56-.63,11.16,.37,3.9,1.08,7.64,2.71,11.4,4.18,7.67,3.02,15.34,6.04,23,9.05,13.85,5.45,27.83,10.76,40.98,17.78,7.38,3.94,14.45,8.43,20.94,13.73v-.58c-4.66,8.66-11.12,16.14-18.08,23.03-7.36,7.27-15.16,14.12-22.8,21.1-4.16,3.8-8.33,7.61-12.49,11.41-3.8,3.47-7.5,7.13-12.66,8.4-5.08,1.25-10.59,1.08-15.79,1.26-5.52,.19-11.04,.29-16.56,.31-11.21,.02-22.41-.32-33.6-1.03-5.44-.35-10.9-.68-16.31-1.33-4.73-.57-9.63-1.66-13.36-4.8-3.62-3.04-5.44-7.31-4.37-12.01,.56-2.48,1.61-4.83,2.5-7.2,.86-2.3,1.78-4.58,2.75-6.83,3.84-8.91,8.52-17.45,13.72-25.63,10.44-16.44,22.92-31.46,35.59-46.21,1.58-1.84,3.17-3.68,4.76-5.52,.46-.53-.39-.8-.78-.82-.69-.03-1.46,.26-1.91,.78-13.16,15.26-26.32,30.6-37.51,47.39-5.55,8.32-10.58,16.99-14.81,26.06-2.15,4.62-4,9.34-5.82,14.1-1.71,4.48-2.63,8.97-.03,13.3,5.31,8.83,17.24,9.04,26.32,9.76,11.42,.91,22.87,1.44,34.32,1.58,11.4,.14,22.86,.02,34.24-.74,5.16-.34,10.2-1.35,14.53-4.34,4.44-3.06,8.28-7.08,12.25-10.71,8.28-7.56,16.63-15.06,24.83-22.72,7.3-6.81,14.41-13.97,20.01-22.28,1.36-2.02,2.62-4.1,3.77-6.24,.09-.17,.19-.42,0-.58-11.91-9.71-25.69-16.7-39.76-22.69-15.18-6.46-30.66-12.26-46.01-18.3-8.12-3.2-16.76-7.16-25.54-4.14-.41,.14-1.16,.65-.78,1.14s1.47,.17,1.91,.01h0Z"></path></g><path class="cls-5" d="M341.13,418.33c-.9,9.62,5.91,19.06,15.09,21.8,4.84,1.44,11.03,1.31,14.47-2.91,3.26-3.99,2.91-9.53,.8-13.94-1.23-2.56-2.92-4.94-4.79-7.08-1.52-1.73-3.71-2.79-5.94-1.69-1.76,.87-2.66,2.79-2.91,4.66-.3,2.22,.41,4.25,1.52,6.15,2.45,4.19,6.89,7.14,11.66,7.93,4.85,.81,9.89-.84,13.47-4.18,3.96-3.69,6.02-9.12,4.64-14.46-1.33-5.17-5.49-9.55-10.7-10.85-.81-.2-1.82,0-2.22,.82-2.36,4.82-1.9,10.7,.98,15.19,2.68,4.18,7.29,6.41,12.19,6.51s9.47-1.71,12.75-5.12c3.37-3.5,4.42-8.55,3.33-13.22-1.21-5.16-4.92-9.71-10.02-11.39-.71-.23-2.34,.08-2.3,1.1,.35,9.07,5.81,18.84,15.75,19.53,4.25,.3,8.68-1,11.67-4.14,3.6-3.77,3.88-9.56,3.38-14.47-.3-2.9-1.21-5.84-3.43-7.84-2.02-1.81-4.82-2.56-7.44-1.78-.68,.2-1.23,.67-1.17,1.42,.68,8.57,8.4,15.77,16.89,16.39,1,.07,2.25,.21,3.23-.08s1.71-1.42,2.27-2.24c1.24-1.79,2.1-3.76,2.62-5.87,1.04-4.16,.53-8.67-1.46-12.47-1.06-2.01-2.67-4.16-5.03-4.63-2.27-.46-4.75,.7-5.37,3-.38,1.42,2.59,1.12,2.94-.2,.27-1.02,1.48-.68,2.11-.27,.97,.62,1.67,1.65,2.26,2.63,1.14,1.89,1.8,4.06,2.04,6.25,.48,4.43-.9,9-3.89,12.31l1.34-.64c-8.55,.69-16.4-6.55-17.07-14.96l-1.17,1.42c1.97-.59,3.97,.52,5.22,2.03,1.4,1.7,1.94,3.95,2.18,6.09,.45,4.11,.32,9.2-2.48,12.52-2.13,2.54-5.6,3.58-8.83,3.33-3.7-.29-6.93-2.21-9.23-5.08-2.82-3.5-4.22-8-4.39-12.46-.77,.37-1.53,.74-2.3,1.1,7.72,2.54,11.89,13.09,7.26,20.02-4.52,6.76-15.3,7.42-20.39,1.02-3.26-4.09-3.96-9.95-1.66-14.66l-2.22,.82c8,1.99,12.25,11.47,8.26,18.7-1.84,3.34-5.22,5.94-9,6.62-3.98,.72-8.07-.84-11.06-3.44-2.62-2.28-5.12-6.07-3.99-9.67,.15-.48,.46-1.41,.98-1.63,.65-.28,1.36,.41,1.78,.84,1.58,1.61,2.95,3.61,4.1,5.55,2.15,3.63,3.27,8.15,1.32,12.12-2.04,4.15-6.95,4.45-10.96,3.36-8.59-2.34-14.97-11.18-14.14-20.08,.14-1.53-2.81-1.16-2.94,.2h0Z"></path><path class="cls-5" d="M69.71,387.71c-4.04,1.57-7.67,4.21-10.41,7.57-1.35,1.66-2.52,3.47-3.41,5.42-.84,1.82-1.88,4.11-1.66,6.16,.23,2.17,2.56,3.38,4.37,4.13,2.11,.88,4.37,1.2,6.64,1.13,4.59-.14,9.04-2.01,12.59-4.87,4.24-3.41,7.34-7.93,10.04-12.6,.19-.33,.08-.68-.24-.88-3.77-2.33-8.61,.14-10.63,3.63-1.14,1.97-1.64,4.26-2.04,6.47-.38,2.09-.61,4.21-.46,6.33,.28,4.16,2.8,7.78,7.22,8.1s8.91-2.41,12.26-5.27c4.43-3.79,8.31-8.18,11.63-12.97,.14-.21,.12-.52-.03-.71-1.92-2.49-5.45-2.51-8.14-1.38-3.15,1.32-4.83,4.38-5.69,7.53-1.65,6.02-2.75,15.13,4.76,17.49,6.42,2.02,13.95-1.06,18.44-5.71,2.1-2.18,4.34-5.3,4.58-8.42,.1-1.24-.12-2.62-1.18-3.41-1.32-.99-3.16-.72-4.51,.05-3.1,1.76-4.7,6.05-5.47,9.34s-1.08,7.63,.77,10.75c1.65,2.78,5.04,3.97,8.13,3.94,3.8-.04,7.28-1.86,10.34-3.98,2.77-1.92,6.22-4.27,6.96-7.8,.57-2.74-.87-5.91-3.83-6.33-6.79-.96-9.26,9.1-9.09,14.1,.11,3.21,1.55,6.14,4.64,7.41,3.14,1.29,6.84,.81,9.95-.33,6.02-2.21,10.74-7.71,12.08-13.97,.34-1.59,.41-3.19,.31-4.81-.07-1.02-1.96-.41-2.38-.17-6.36,3.64-10.85,10.38-11.7,17.68-.39,3.36,.03,7.33,2.78,9.64,2.77,2.33,6.95,2,10.02,.44,3.98-2.03,6.25-6,8.3-9.8,.72-1.34-2.2-1.2-2.74-.21-1.84,3.41-3.99,7.75-7.96,9.03-4.28,1.38-7.07-2.1-7.53-6-.91-7.79,4.09-15.89,10.69-19.68l-2.38-.17c.33,5.04-1.9,10.02-5.58,13.42-3.26,3.01-9.9,5.82-13.66,2.06-3.39-3.39-1.87-10.07,.02-13.86,.86-1.72,2.67-4.3,4.43-1.92,1.62,2.19,.65,5-1.03,6.81-1.95,2.08-4.63,3.91-7.17,5.19-2.35,1.19-4.92,1.79-7.47,.9-5.86-2.04-5.03-9.98-3.39-14.66,.48-1.37,1.12-2.7,1.9-3.93,.56-.88,1.82-2.8,2.62-1.1,.99,2.1-.72,4.96-1.83,6.65-2.71,4.13-7.3,7.09-12.26,7.47-2.94,.22-6.13-.54-7.71-3.25-1.51-2.59-1.21-5.92-.79-8.75s.94-6.18,2.81-8.56c1.58-2.01,4.58-2.73,6.3-.49l-.03-.71c-2.34,3.38-4.99,6.53-7.92,9.42-2.65,2.61-5.57,5.39-9.15,6.65-3.46,1.22-6.79-.2-7.91-3.78-1.02-3.24-.39-6.88,.31-10.12,.63-2.93,3.08-9.24,7.18-6.7l-.24-.88c-3.86,6.68-9.11,14.15-17.27,15.57-1.84,.32-3.76,.31-5.57-.14-1.6-.4-3.98-1.22-4.87-2.74-.95-1.62,.37-4.36,1.05-5.88,.73-1.65,1.64-3.23,2.73-4.67,2.5-3.32,5.85-5.9,9.73-7.4,.49-.19,1.12-.8,.73-1.34s-1.43-.33-1.95-.13h0Z"></path></g></svg>