<svg transform="scale(1)" version="1.1" id="yh4KvBLfxB" xmlns="http://www.w3.org/2000/svg" xmlns:xlink="http://www.w3.org/1999/xlink" x="0px" y="0px" viewBox="0 0 500 500" xml:space="preserve" class="pbimage_pbimage__wrapper__image__0LEis false"><title>Feeling Lonely 1</title><style type="text/css"> .st0{fill:#59BE4C;} .st1{fill:#FFFFFF;} .st2{fill:#000005;}
 .st2{fill:#000005;}
 .st1{fill:#FFFFFF;}
 .st0{fill:#e60a14;}</style><g id="chair-2"><path class="st0" d="M146.2,228.2c0,0,6.9-68.1-0.8-72.7s-73.5-5.4-85.7,0s0,72.7,0,72.7s-23,36.8-23,45.2v8.4
		c0,0,122.5-0.8,126.3,0s4.6-10.7,3.8-13.8S146.2,228.2,146.2,228.2z" fill="#e60a14"></path><path class="st0" d="M148.4,229c0.5-4.7,0.9-9.5,1.2-14.2c0.8-9.8,1.3-19.6,1.5-29.4c0.1-4.7,0.1-9.4-0.1-14.2
		c-0.1-3.7-0.5-7.4-1.2-11c-0.6-2.6-1.6-5.3-4-6.6s-5.6-1.7-8.4-2.1c-9.7-1.2-19.5-1.8-29.2-1.8c-11-0.2-22.1,0-33.1,0.9
		c-4.1,0.3-8.1,0.8-12.2,1.6c-2.5,0.5-5.4,1.1-7,3.2c-2,2.5-2.7,5.9-3.2,9c-0.6,4.2-0.9,8.5-0.8,12.8c0.2,10.1,1,20.2,2.4,30.2
		c0.8,6.6,1.8,13.1,2.9,19.6l0.2,1l0.3-1.4c-3.6,5.8-7.2,11.7-10.5,17.7c-2.7,4.8-5.3,9.5-7.7,14.4c-1.8,3.6-3.7,7.4-4.7,11.4
		c-0.6,2.7-0.4,5.5-0.4,8.2v2.7c0.1,1.7,1.5,2.9,3.2,2.9h6.7l17.3-0.1l23.8-0.1l26.2-0.1c8.1,0,16.1,0,24.2,0c6.2,0,12.4,0,18.6,0.1
		c2.9,0,5.9,0,8.8,0.2c4.2,0.4,5.2-4.5,5.6-7.8c0.4-3.1,0.6-6.5-0.7-9.4c-2.8-6.5-6.4-12.8-9.7-19s-6.6-12.5-9.9-18.7l-0.6-1.1
		c-0.5-1.2-1.7-1.9-3-1.8c-0.8,0.2-1.3,1-1.2,1.8c0,0.2,0.1,0.4,0.2,0.6c2.5,4.6,4.9,9.1,7.4,13.7c3.8,7.1,7.6,14.3,11.2,21.5
		c0.5,1.1,1.1,2.2,1.6,3.3c0.1,0.3,0.2,0.7,0.4,1c-0.2-0.4-0.1-0.5-0.1-0.1c0,0.2,0.1,1,0.1,0.7c0.2,2.1,0.1,4.2-0.3,6.3
		c-0.2,1.7-0.7,3.9-1.8,4.9c-0.1,0.1-0.1,0.1-0.3,0H162c-0.5,0-0.9,0-1.4-0.1c-1.6-0.1-3.3-0.1-4.9-0.1c-5.7-0.1-11.5-0.1-17.2-0.1
		c-7.9,0-15.8,0-23.7,0c-8.7,0-17.3,0-26,0.1l-24.4,0.1l-18.8,0.1c-3.1,0-6.3-0.1-9.5,0h-0.4l3.2,2.9v-3.2c0-1.9-0.1-3.8,0-5.7
		c0-0.2,0-0.3,0-0.5c0.1-0.5-0.1,0.3,0-0.3s0.2-0.9,0.3-1.4c1.6-5.3,4.2-10.2,6.8-15.1c4.8-9.1,10-17.8,15.2-26.4
		c0.4-0.6,0.5-1.4,0.3-2.2c-0.2-1.1-0.4-2.1-0.5-3.1c-0.7-4.3-1.4-8.6-2-12.9c-1.6-12-3-24.1-2.8-36.3c0-2.6,0.2-5.3,0.5-7.9
		c0.2-2,0.6-4.1,1.2-6c0.3-0.8,0.6-1.6,1-2.3c0.2-0.4,0,0,0.1-0.2l0.3-0.4c0.2-0.3,0.5-0.6,0.7-0.8l0.3-0.3c-0.2,0.1-0.2,0.1,0.1,0
		s0.6-0.3,0.9-0.4s0.7-0.2,1-0.4s-0.3,0.1,0.2-0.1l0.7-0.2c4.7-1.1,9.5-1.8,14.3-2c6.6-0.5,13.3-0.8,19.9-0.8
		c12.8-0.3,25.6,0.2,38.3,1.5c2.1,0.2,4.1,0.5,6.2,1l0.5,0.1c0.6,0.1-0.4-0.1,0.2,0c0.3,0.1,0.7,0.2,1,0.3s0.5,0.2,0.8,0.3
		c0.7,0.2-0.4-0.4,0.2,0.1c0.4,0.3-0.6-0.5-0.2-0.2s-0.2-0.2-0.2-0.2c0.1,0.1,0.1,0.2,0.2,0.2c0.4,0.5-0.2-0.5,0-0.1
		s0.3,0.5,0.4,0.8l0.2,0.4c-0.2-0.5-0.1-0.1,0,0.1c0.5,1.8,0.8,3.6,1,5.4c0,0.3,0.1,0.5,0.1,0.8s-0.1-0.5,0,0.1v0.4
		c0.1,0.6,0.1,1.3,0.2,1.9c0.1,1.3,0.2,2.5,0.2,3.8c0.1,2.9,0.1,5.7,0.1,8.6c0,6.3-0.3,12.6-0.6,18.9c-0.5,9.2-1.2,18.5-2.1,27.7
		c0,0.5-0.1,1-0.1,1.5C143.8,229.6,148.1,231.8,148.4,229z" fill="#e60a14"></path><path class="st1" d="M59.7,228.8c9.5,0,19-0.3,28.5-0.4l42.9-0.7c3.7-0.1,7.4-0.1,11.2-0.1c1.2,0,2.4-0.3,3.4-0.8
		c0.7-0.4,0.8-1-0.2-0.9c-9.5,0-19,0.3-28.6,0.4L74,226.8c-3.7,0.1-7.4,0.1-11.2,0.1c-1.2,0-2.4,0.3-3.4,0.8
		C58.7,228.2,58.7,228.8,59.7,228.8L59.7,228.8z" fill="#FFFFFF"></path><path class="st1" d="M36.3,272.3c4.7,0,9.5-0.2,14.2-0.3l30.8-0.7l36.8-0.9l32.1-0.8c5.6-0.1,11.2-0.2,16.8-0.4h0.5
		c0.8,0,2.2-0.4,1.9-1.4s-2.1-1.2-3-1.2c-4.7,0-9.5,0.2-14.2,0.3l-30.8,0.7l-36.8,0.9l-32.1,0.8c-5.6,0.1-11.2,0.2-16.8,0.4h-0.5
		c-0.8,0-2.2,0.4-1.9,1.4S35.4,272.3,36.3,272.3z" fill="#FFFFFF"></path><path class="st0" d="M51.2,285.6V319c0,1,0.9,2,1.5,2.7c0.1,0.1,1.7,1.6,1.7,0.9v-33.4c-0.2-1-0.7-2-1.5-2.7
		C52.7,286.4,51.2,284.9,51.2,285.6z" fill="#e60a14"></path><path class="st0" d="M138.4,286.8c-0.2,12.6,0,25.1,0.7,37.7c0,0.7,4.9,0,4.9-1.2c-0.7-12.5-0.9-25.1-0.7-37.6
		C143.3,285,138.5,285.5,138.4,286.8z" fill="#e60a14"></path><path class="st0" d="M294.8,221.3c0,0,6.9-68.1-0.8-72.7s-73.5-5.4-85.7,0s0,72.7,0,72.7s-23,36.8-23,45.2v8.4
		c0,0,122.5-0.8,126.3,0s4.6-10.7,3.8-13.8S294.8,221.3,294.8,221.3z" fill="#e60a14"></path><path class="st0" d="M297.2,221.2c0.5-4.7,0.9-9.5,1.2-14.2c0.8-9.8,1.3-19.6,1.5-29.4c0.1-4.7,0.1-9.4-0.1-14.2
		c-0.1-3.7-0.5-7.4-1.2-11c-0.5-2.3-1.4-4.7-3.6-5.7c-2.5-1.2-5.4-1.5-8.1-1.9c-9.9-1.2-19.8-1.8-29.8-1.8
		c-10.9-0.2-21.9,0-32.7,0.9c-4.2,0.3-8.4,0.9-12.5,1.7c-2.8,0.6-5.8,1.4-7.6,3.7c-2,2.5-2.8,5.9-3.3,9c-0.6,4.3-0.8,8.5-0.7,12.8
		c0.2,10.1,1,20.2,2.4,30.1c0.8,6.6,1.8,13.1,2.9,19.6l0.2,1l0.1-1c-3.6,5.7-7,11.6-10.4,17.4c-2.7,4.7-5.3,9.5-7.7,14.3
		c-2,3.7-3.6,7.7-4.8,11.8c-0.6,2.6-0.3,5.3-0.3,7.9v2.6c0,1.2,1.1,1.7,2.2,1.7h6.7l17.4-0.1l23.8-0.1l26.2-0.1c8.2,0,16.4,0,24.6,0
		c6.2,0,12.5,0,18.7,0.1c2,0,3.9,0,5.9,0.1h1h0.4c0.7,0-0.1,0.1-0.1,0c0.3,0,0.7,0.1,1,0.1c5,0.5,6.6-4.2,7.2-8.3
		c0.4-2.9,0.8-6.3-0.4-9c-2.9-6.6-6.5-13-9.9-19.4c-3.3-6.2-6.6-12.4-10-18.6c-0.2-0.4-0.4-0.7-0.6-1.1c-1.1-2-5.7-0.2-4.5,2.1
		c2.5,4.5,4.9,9.1,7.3,13.6c3.8,7.2,7.6,14.3,11.3,21.6l0.9,1.9c0.1,0.2,0.2,0.5,0.3,0.7s-0.1-0.3,0,0l0.2,0.4
		c0.3,0.7,0.6,1.5,0.6,2.2c0.2,2,0.1,4-0.2,5.9c-0.1,1-0.4,2-0.7,3c-0.1,0.4-0.3,0.8-0.5,1.2c0,0.1-0.3,0.5-0.1,0.2
		c-0.1,0.1-0.1,0.1-0.2,0.2c-0.2,0.4-0.2,0,0,0c-0.3,0,0.3-0.1,0,0c0.1,0,1-0.3,1-0.2h-0.3h-0.4c-0.6,0-1.3-0.1-2-0.1
		c-1.7-0.1-3.3-0.1-5-0.1c-5.7-0.1-11.4-0.1-17.2-0.1c-7.8,0-15.6,0-23.5,0c-8.6,0-17.2,0-25.8,0.1l-24.3,0.1l-18.9,0.1
		c-3.1,0-6.3-0.1-9.4,0.1h-0.4l2.2,1.7v-3.2c0-2.8-0.2-5.5,0.5-8.1c0.1-0.3-0.1,0.4,0-0.1c0-0.1,0.1-0.2,0.1-0.3s0.1-0.4,0.2-0.7
		c0.2-0.6,0.4-1.2,0.7-1.8c0.5-1.2,1-2.4,1.6-3.6c1.3-2.8,2.7-5.6,4.1-8.3c3-5.8,6.2-11.4,9.6-17c1.9-3.3,4-6.4,5.9-9.7
		c0.7-1.3-0.1-3.5-0.3-4.9c-0.7-4.3-1.4-8.6-2-12.9c-1.6-12-3-24.2-2.8-36.3c0-2.6,0.2-5.3,0.5-7.9c0.1-1.1,0.3-2.2,0.5-3.3
		c0.1-0.5,0.2-1,0.3-1.5c0.1-0.3,0.1-0.5,0.2-0.8c0-0.1,0.1-0.4,0,0c0.1-0.1,0.1-0.3,0.1-0.4c0.3-0.8,0.6-1.6,1-2.3l0.3-0.5
		c0.2-0.3-0.3,0.3,0,0s0.5-0.6,0.7-0.8c-0.6,0.6,0.2-0.1,0.4-0.2c-0.2,0.2-0.5,0.2-0.1,0.1l0.5-0.2c0.6-0.3-0.3,0.1,0,0l0.5-0.2
		c0.4-0.1,0.8-0.2,1.2-0.3c0.9-0.2,1.9-0.4,2.9-0.6l1.6-0.3c0.1,0,0.2,0,0.4-0.1l1-0.1c2.7-0.4,5.4-0.6,8.2-0.8
		c6.6-0.5,13.3-0.7,20-0.8c12.9-0.1,25.4,0,38.1,1.5c2,0.2,4.1,0.5,6.1,1c0.3,0.1,1.4,0.4,0.7,0.1l1,0.3l0.7,0.3
		c0.1,0.1,0.2,0.1,0.4,0.2s-0.5-0.3-0.1-0.1c0.1,0.1,0.1,0.1,0.2,0.2c-0.2-0.1-0.2-0.4-0.1-0.1s0.3,0.4,0.5,0.7l0.2,0.4
		c0.1,0.2-0.1-0.4,0,0.1s0.3,0.7,0.4,1c0.5,1.8,0.9,3.6,1.1,5.4c0.5,5.2,0.8,10.4,0.6,15.6c0,6.3-0.3,12.6-0.6,18.9
		c-0.5,9.2-1.2,18.5-2.1,27.7l-0.1,1.5C292.1,224,297,223.4,297.2,221.2z" fill="#e60a14"></path><path class="st1" d="M208,222c9.5,0,19-0.3,28.6-0.4l42.9-0.7c3.7,0,7.4-0.1,11.2-0.1c1.1-0.1,2.3-0.4,3.3-1c0.3-0.2,1.6-1,0.6-1
		c-9.5,0-19,0.3-28.5,0.4l-42.9,0.7c-3.7,0-7.4,0.1-11.2,0.1c-1.2,0.1-2.3,0.5-3.2,1.1C208.3,221.2,207,222,208,222L208,222z" fill="#FFFFFF"></path><path class="st1" d="M185.9,265.8c4.7,0,9.5-0.2,14.2-0.3l30.8-0.7l36.8-0.9l32.1-0.7c5.6-0.1,11.2-0.1,16.8-0.4h0.5
		c1.2,0,0.5-1.4,0.1-1.9c-0.8-0.9-1.9-1.4-3.1-1.5c-4.7,0-9.5,0.2-14.2,0.3l-30.8,0.7l-36.8,0.9l-32.1,0.8
		c-5.6,0.1-11.2,0.1-16.8,0.4h-0.5c-1.2,0-0.5,1.4-0.1,1.9C183.6,265.2,184.7,265.7,185.9,265.8L185.9,265.8z" fill="#FFFFFF"></path><path class="st0" d="M198.9,280.6V314c0,0.8,5,0.7,5-0.1v-33.4C203.9,279.7,198.9,279.7,198.9,280.6L198.9,280.6z" fill="#e60a14"></path><path class="st0" d="M287,279.2c-0.2,12.6,0.1,25.1,0.7,37.7c0.1,1.6,5.1,1.6,5,0.1c-0.7-12.6-0.9-25.1-0.7-37.7
		C292,277.8,287,277.7,287,279.2L287,279.2z" fill="#e60a14"></path><path class="st0" d="M443.3,221.8c0,0,6.9-68.1-0.8-72.7s-73.5-5.4-85.8,0s0,72.7,0,72.7s-23,36.7-23,45.2v8.4
		c0,0,122.5-0.8,126.3,0s4.6-10.7,3.8-13.8S443.3,221.8,443.3,221.8z" fill="#e60a14"></path><path class="st0" d="M445.8,221.7c0.7-7,1.2-14,1.7-21c0.8-12.3,1.5-24.7,0.9-37c-0.2-4-0.4-8.5-1.8-12.3c-0.3-1.2-1.1-2.2-2.1-2.9
		c-1.2-0.6-2.5-1.1-3.9-1.3c-5-1-10.1-1.6-15.2-1.9c-6.6-0.5-13.3-0.7-20-0.8c-13.4-0.2-27-0.1-40.2,1.7c-2.3,0.3-4.6,0.7-6.8,1.2
		c-1.7,0.3-3.3,0.9-4.7,1.8c-2.9,2.1-3.7,6.5-4.2,9.8c-0.7,5.5-0.9,11.1-0.6,16.7c0.2,6.4,0.8,12.7,1.5,19c1,8.8,2.2,17.6,3.7,26.4
		c0,0.2,0.1,0.5,0.1,0.7c0,0,0.2-0.2-0.1,0.1c-0.8,1-1.4,2.2-2,3.4c-3,4.8-5.8,9.7-8.6,14.7c-3.2,5.7-6.4,11.4-9.1,17.4
		c-1.1,2.2-1.9,4.5-2.7,6.9c-0.8,2.6-0.5,5.3-0.5,8v3.2c0,0.8,2.2,0.7,2.5,0.7h6.7l17.3-0.1l23.8-0.1l26.2-0.1c8.2,0,16.4,0,24.6,0
		h10.3h4.5h1.5h1.9c2,0,3.9,0,5.9,0.1l1.8,0.1h0.6c0.6,0-0.5-0.1-0.2,0c1.9,0.3,4.3,0.1,5.7-1.5s1.6-3.8,1.9-5.6
		c0.4-2.8,0.8-6.1-0.4-8.7c-2.9-6.6-6.4-12.8-9.8-19.2s-6.6-12.4-10-18.6c-0.2-0.4-0.4-0.7-0.6-1.1c-0.6-1.1-5.4-0.4-4.8,0.6
		c2.5,4.5,4.9,9,7.3,13.6c3.8,7.2,7.7,14.4,11.3,21.7c0.9,1.7,1.9,3.4,2.1,5.4c0.2,2.1,0.1,4.2-0.2,6.3c-0.2,1.8-0.6,4.1-1.9,5.5
		c-0.3,0.4-0.7,0.4,0,0.2c-0.1,0,2.3,0.1,1.7-0.1c-0.3-0.1-0.6-0.1-1-0.1c-0.5,0-0.9-0.1-1.4-0.1c-1.7-0.1-3.4-0.1-5-0.1
		c-5.9-0.1-11.8-0.1-17.7-0.1h-23.4l-26,0.1l-24.3,0.1l-18.8,0.1c-3.1,0-6.3,0-9.5,0h-0.4l2.5,0.7v-3.1c0-2.7-0.2-5.5,0.5-8.1
		c1.5-5.2,4.2-10.2,6.7-15c3-5.8,6.2-11.4,9.5-17c1.9-3.3,4-6.4,5.9-9.7c0.2-0.3,0.3-0.7,0.2-1.1c-0.2-1.1-0.4-2.1-0.5-3.2
		c-0.7-4.3-1.4-8.7-2-13c-1.6-12.1-3-24.4-2.8-36.6c0.1-4.7,0.3-9.7,1.7-14.2c0.4-1.5,1.2-2.8,2.2-4c0.2-0.2,0.3-0.3,0.5-0.4
		l0.3-0.2c0.3-0.2-0.3,0.1-0.1,0c0.1,0,0.2-0.1,0.3-0.1l1-0.4c0.5-0.2-0.1,0,0.2-0.1l0.7-0.2c0.9-0.2,1.9-0.4,2.8-0.6
		c0.1,0,0.2,0,0.4-0.1l0.8-0.1c0.6-0.1,1.2-0.2,1.8-0.3c1.3-0.2,2.7-0.3,4-0.5l1.9-0.2l1-0.1c0.5,0,0.2,0,0,0l0.7-0.1
		c6.7-0.5,13.3-0.7,20-0.8c6.9-0.1,13.5,0,20.5,0.3c3.2,0.1,6.4,0.3,9.5,0.5c1.4,0.1,2.7,0.2,4.1,0.3l1.1,0.1l0.4,0.1l2,0.2
		c1.1,0.1,2.1,0.3,3.2,0.4c0.5,0.1,0.9,0.1,1.4,0.2l0.7,0.1c0.1,0,0.2,0,0.3,0.1c0.7,0.2,1.4,0.4,2,0.6c0.4,0.1-0.1,0,0.1,0l0.3,0.1
		c0.1,0.1,0.7,0.5,0.4,0.2c0.8,0.8,1.4,1.8,1.6,2.9c0.5,1.8,0.8,3.6,1,5.5c0.5,5.3,0.8,10.6,0.7,15.9c0,6.3-0.3,12.6-0.6,18.9
		c-0.5,9.3-1.2,18.5-2.1,27.7c0,0.5-0.1,1-0.1,1.5C440.7,222.9,445.7,223.1,445.8,221.7z" fill="#e60a14"></path><path class="st1" d="M357.8,223.6c9.6,0,19.3-0.3,28.9-0.4l43-0.7l7.6-0.1h2.4h0.7c1.3,0.2,2.5-0.6,3-1.9c0.2-1-0.4-2.1-1.4-2.3
		c-0.1,0-0.2,0-0.4-0.1c-9.6,0-19.3,0.3-28.9,0.4l-43,0.6l-7.6,0.1h-2.4H359c-1.3-0.1-2.5,0.6-3,1.9c-0.2,1.1,0.5,2.1,1.6,2.4
		C357.6,223.6,357.7,223.6,357.8,223.6L357.8,223.6z" fill="#FFFFFF"></path><path class="st1" d="M334.1,266.7c4.7,0,9.5-0.2,14.2-0.3l30.8-0.7l36.8-0.9l32.1-0.8c5.6-0.1,11.2-0.2,16.8-0.4h0.5
		c0.9,0-0.1-1.7-0.3-2c-0.4-0.6-1.3-2.2-2.2-2.2c-4.7,0-9.5,0.2-14.2,0.3l-30.8,0.7l-36.8,0.9l-32.1,0.7c-5.6,0.1-11.2,0.2-16.8,0.4
		h-0.5c-0.9,0,0.1,1.7,0.3,2C332.3,265.2,333.2,266.7,334.1,266.7L334.1,266.7z" fill="#FFFFFF"></path><path class="st0" d="M348.1,279.5v33.4c0,1,1.1,2,1.8,2.6c0.2,0.2,1.9,1.4,1.9,0.6v-33.4c0-1-1.1-2-1.8-2.6
		C349.8,279.8,348.1,278.6,348.1,279.5L348.1,279.5z" fill="#e60a14"></path><path class="st0" d="M436.1,278.9c-0.2,12.6,0.1,25.1,0.7,37.7c0.1,1.3,0.9,2.4,2,2.9c0.5,0.3,1.2,0.2,1.6-0.4
		c0.2-0.2,0.2-0.6,0.2-0.8c-0.7-12.5-0.9-25.1-0.7-37.7c-0.1-1.3-0.9-2.4-2-2.9C436.9,277.3,436.1,277.9,436.1,278.9L436.1,278.9z" fill="#e60a14"></path></g><g id="character"><path class="st1" d="M224.2,191.8c0,0-72.6,13.5-56.9,37.7s95.6,17,95.6,17s67.1-1.9,76.7-20.9s-58.4-36.2-58.4-36.2L224.2,191.8z"></path><path class="st2" d="M224.3,189.7c-3.4,0.6-6.7,1.4-10,2.2c-7.1,1.7-14,3.7-20.9,6.2c-7.3,2.6-14.6,5.7-20.9,10.2
		c-4.9,3.5-10,8.7-9.8,15.2c0.2,6.8,5.6,12.1,11.1,15.4c7.3,4.3,15.6,6.5,23.9,8c9.2,1.6,18.4,2.5,27.7,2.7
		c8.2,0.3,16.3,0.2,24.5-0.1c4.2-0.2,8.3-0.4,12.5-0.7c2.6-0.2,5.2-0.2,7.8-0.4c7.7-0.5,15.3-1.2,22.9-2.3
		c9.2-1.2,18.2-3.1,27.1-5.8c6.9-2.2,14.7-5.2,19.5-11c1.9-2.3,3.4-5.1,3.2-8.2c-0.3-2.8-1.5-5.5-3.4-7.6
		c-4.9-5.7-12.1-9.4-18.8-12.6c-7.5-3.5-15.2-6.5-23.1-9c-4.8-1.6-9.6-3-14.4-4.3c-0.9-0.2-1.8-0.3-2.8-0.3l-6.8,0.3l-24.2,1
		l-21.5,0.9L224.3,189.7c-2.7,0.1-3.5,4.4-0.2,4.3l19.3-0.8l30.6-1.3l7.1-0.3l-1.1-0.1c8.2,2.1,16.3,4.7,24.3,7.6
		c6.5,2.3,12.9,5.1,19,8.3c2.7,1.4,5.3,3,7.7,4.8c1.1,0.8,2.2,1.7,3.1,2.7c0.4,0.4,0.8,0.8,1.2,1.2c-0.4-0.4,0.2,0.2,0.3,0.3
		c0.2,0.3,0.4,0.5,0.6,0.8c0.3,0.4,0.6,0.9,0.9,1.3c0.1,0.2,0.2,0.4,0.3,0.6s0.1,0.3,0.2,0.4c-0.2-0.5,0-0.1,0,0
		c0.2,0.5,0.3,0.9,0.4,1.4c0,0.2,0.1,0.4,0.1,0.7c0.1,0.4,0-0.4,0-0.1s0,0.3,0,0.5c0,0.4,0,0.9-0.1,1.3c0.1-0.7-0.1,0.2-0.1,0.4
		s-0.2,0.5-0.3,0.8c-0.2,0.6,0.2-0.3-0.1,0.3l-0.4,0.7c-0.1,0.2-0.3,0.4-0.4,0.7l-0.3,0.4c-0.3,0.5,0,0,0,0.1
		c-0.8,0.9-1.7,1.8-2.6,2.6c0.6-0.5-0.3,0.2-0.4,0.3s-0.6,0.4-0.8,0.6c-0.6,0.4-1.2,0.8-1.8,1.1s-1.2,0.7-1.8,1l-0.6,0.3
		c-0.6,0.3,0.5-0.2-0.2,0.1l-1.2,0.6c-1.5,0.7-3,1.3-4.5,1.8c-6.9,2.4-13.9,4.2-21.1,5.3c-7.1,1.2-14.2,2.1-21.3,2.8
		c-6.1,0.6-12.2,0.8-18.3,1.2c-10.2,0.8-20.4,1.1-30.3,0.9c-14.7-0.3-30.1-1.3-44-5.7c-3-0.9-6-2.1-8.8-3.6
		c-1.2-0.6-2.4-1.3-3.5-2.1c-1.1-0.8-2.2-1.6-3.2-2.6c-0.2-0.2-0.4-0.4-0.6-0.6l-0.3-0.3c-0.2-0.3,0.3,0.4,0-0.1s-0.8-1-1.2-1.5
		s-0.7-1.1-1-1.7l-0.4-0.8c0-0.1-0.3-0.6-0.1-0.1c-0.1-0.1-0.1-0.3-0.2-0.5c-0.2-0.5-0.4-1.1-0.5-1.7c-0.1-0.2-0.1-0.5-0.1-0.7
		c0-0.1,0-0.2,0-0.3c0-0.4,0,0.4,0-0.2s0-1,0.1-1.4c0-0.3,0.1-0.6,0.1-0.9c-0.1,0.6,0.1-0.2,0.1-0.4c0.1-0.5,0.3-0.9,0.5-1.4
		c0.2-0.6-0.2,0.3,0.1-0.3c0.1-0.3,0.3-0.5,0.4-0.8c0.3-0.5,0.6-1,1-1.4l0.2-0.3c0.2-0.3-0.4,0.5,0,0c0.2-0.2,0.4-0.5,0.7-0.8
		c0.9-0.9,1.8-1.8,2.8-2.6c0.5-0.4-0.3,0.2,0,0l0.4-0.3l0.8-0.6c0.6-0.5,1.3-0.9,1.9-1.3c1.2-0.8,2.4-1.5,3.7-2.2
		c0.7-0.4,1.4-0.7,2.1-1.1l1-0.5l0.2-0.1l0.6-0.3c3-1.4,6.1-2.7,9.2-3.8c5.8-2.2,11.8-4,17.8-5.6c1.2-0.3,2.5-0.6,3.8-1l0.9-0.2
		l0.3-0.1c0.6-0.1-0.5,0.1,0,0l1.6-0.4c1.6-0.4,3.2-0.7,4.9-1.1l1.4-0.2c1.3-0.2,2.3-1.2,2.5-2.4c0-1-0.8-1.9-1.9-1.9
		C224.5,189.6,224.4,189.7,224.3,189.7z"></path><path class="st2" d="M225.5,198.6c0,0-7.6-60.8,15-69.7c32.5-12.9,37.4,24.4,40.6,67.6C281.1,196.4,243.3,206.2,225.5,198.6z"></path><path class="st2" d="M227.8,197.8c-0.7-5.9-1.1-11.8-1.2-17.8c-0.3-11,0.2-22.4,3.1-33.1c0.6-2.4,1.5-4.8,2.6-7.1
		c0.5-1.1,1.1-2.1,1.7-3.1c0.2-0.3,0.4-0.7,0.7-1c0.4-0.5,0.7-0.9,1.1-1.4c0.2-0.2,0.3-0.4,0.5-0.6s0.6-0.7,0.4-0.5s0.3-0.3,0.4-0.4
		l0.6-0.6l0.7-0.5c0.5-0.4-0.3,0.2,0.2-0.1s1-0.6,1.4-0.8s-0.4,0.1,0.2-0.1l0.9-0.4c0.9-0.3,1.7-0.6,2.6-0.9c1.4-0.4,2.9-0.8,4.4-1
		c4.7-0.9,9.6,0.3,13.4,3.1c4.3,3.3,6.9,8.3,8.9,13.2c2.4,6.6,4.1,13.5,5.1,20.5c1.3,8.4,2.1,16.9,2.8,25.3c0.2,2.2,0.4,4.5,0.5,6.7
		l2.7-2.7c-4.5,1.2-9.1,2-13.7,2.8c-9,1.5-18.2,2.6-27.3,2.1c-4.7-0.1-9.2-1.1-13.6-2.8c-1.8-0.8-5.4,2.5-2.9,3.5
		c8.5,3.6,18.4,3.3,27.4,2.6c8.2-0.6,16.3-1.8,24.4-3.6c1.6-0.4,3.3-0.7,4.9-1.1c1.2-0.3,2.8-1.2,2.7-2.6c-0.7-9-1.4-18-2.6-27
		c-0.9-7.6-2.5-15.2-4.7-22.5c-1.8-5.7-4.3-11.4-8.6-15.7c-3.7-3.8-8.8-5.9-14.1-5.9c-3.3,0-6.6,0.6-9.8,1.6c-2.9,0.8-5.6,2.1-8,3.8
		c-4.1,3-6.8,7.6-8.6,12.2c-4.3,10.9-5,23-5.1,34.6c0,4.9,0.2,9.8,0.5,14.7c0.2,2.6,0.3,5.2,0.7,7.7c0,0.1,0,0.2,0,0.4
		C223.5,201.8,228,199.8,227.8,197.8z"></path><path class="st2" d="M268.9,113.8c1.2,5.4,5.1,15.4,12.4,13.2c2.3-0.9,4.2-2.5,5.5-4.7c1.2-1.8,1.6-4,1-6.1
		c-1.2-3.7-5.7-6.3-9.3-4.4c-4.8,2.5-3,9.6-1.4,13.4c1.2,2.7,2.8,5.1,4.8,7.3c1.7,1.9,3.9,3.5,6.3,4.4c2,0.7,4.4,0.9,6.1-0.6
		c1.5-1.4,2.2-3.5,2-5.5c-0.3-3.6-3-6.3-6.2-7.6c-2.7-1.1-6.4-1.5-8.7,0.5c-3.2,2.8-1.7,7.5-0.1,10.7c0.7,1.4,1.6,2.7,2.5,4
		c0.8,1,2.2,1.3,3.4,0.6c1.1-0.8,0.8-2.2,0.1-3.1c-0.7-0.9-1.3-1.9-1.8-2.9c-0.2-0.4-0.4-0.8-0.6-1.2c-0.1-0.2-0.2-0.4-0.3-0.7
		c0.1,0.4-0.1-0.4-0.1-0.5c-0.1-0.4-0.2-0.7-0.3-1.1c-0.1-0.6-0.1,0.2,0-0.4c0-0.3,0-0.6,0-0.9c0,0.6,0.1-0.2,0.1-0.4
		c0.2-0.6-0.2,0.2,0.1-0.2c0.2-0.2,0.7-0.6,0.1-0.2c0.2-0.1,0.3-0.2,0.5-0.3c0.1-0.1,0.5-0.2-0.1,0c0.1-0.1,0.3-0.1,0.4-0.2
		s1-0.2,0.2-0.1l0.6-0.1c0.3,0,0.5,0,0.8,0c-0.8,0,0.2,0,0.5,0.1l0.7,0.1c0.2,0,0.6,0.2-0.1,0c0.1,0.1,0.3,0.1,0.4,0.1l0.8,0.3
		l0.2,0.1c0.6,0.3-0.3-0.2,0,0s0.5,0.3,0.7,0.5c0.2,0.2,0.6,0.6,0.1,0.1c0.2,0.2,0.4,0.4,0.5,0.6s0.2,0.2,0.2,0.3
		c-0.5-0.6-0.1-0.1,0,0s0.2,0.4,0.3,0.6c-0.3-0.7,0,0.1,0.1,0.3s0,0.6,0,0c0,0.1,0,0.3,0,0.4s-0.1,0.9,0,0.6
		c-0.1,0.4-0.2,0.8-0.4,1.2c0.2-0.4-0.2,0.3-0.4,0.5c0.3-0.4-0.5,0.4,0,0c-0.1,0.1-0.3,0.1-0.4,0.1c0.6-0.1-0.1,0-0.2,0
		c-0.5,0,0.5,0.1-0.1,0l-0.4-0.1c-0.1,0-0.7-0.2-0.1,0c-0.2-0.1-0.4-0.1-0.6-0.2l-0.6-0.3c-0.1,0-0.7-0.4-0.2-0.1
		c-0.4-0.2-0.8-0.5-1.2-0.8c-1.6-1.2-2.9-2.7-4-4.4c-1.2-1.8-2.1-3.9-2.7-6.1c-0.2-1-0.3-2-0.3-3c0-0.2,0-0.4,0.1-0.6
		c0-0.4-0.1,0.4,0-0.2c0-0.2,0.1-0.4,0.2-0.5s0.1-0.2,0.1-0.3c-0.1,0.3-0.1,0.3,0,0.1c0.1-0.2,0.7-0.8,0.3-0.4
		c0.2-0.2,0.4-0.3,0.6-0.4c-0.5,0.3,0.1,0,0.4-0.1c-0.6,0.2,0.1,0,0.4,0c-0.7,0,0.1,0.1,0.4,0.1c-0.7-0.1,0.1,0.1,0.3,0.2
		c-0.8-0.3-0.1,0,0.1,0.1c0.4,0.2-0.3-0.5-0.1-0.1c0.1,0.2,0.2,0.3,0.4,0.4c-0.5-0.5,0,0.1,0.1,0.4c-0.3-0.6,0,0.1,0,0.3
		c-0.1-0.6,0,0.4,0,0.6c0,0.6,0.1-0.4,0,0.2c-0.1,0.2-0.1,0.4-0.2,0.7c-0.3,0.7-0.7,1.4-1.3,2c-0.6,0.7-1.3,1.3-2.1,1.8
		c-0.5,0.3,0.4-0.1-0.2,0.1c-0.2,0.1-0.5,0.2-0.7,0.2c-0.4,0.1,0,0,0.1,0c-0.2,0-0.9,0-0.2,0.1c-0.1,0-0.4,0-0.5-0.1
		c-0.2-0.1-0.2,0,0.2,0.1l-0.3-0.1c-0.2-0.1-0.5-0.4,0,0l-0.4-0.3l-0.4-0.3c0.6,0.4,0,0-0.1-0.1c-0.3-0.3-0.5-0.7-0.8-1
		c-0.3-0.3,0,0,0,0.1l-0.4-0.6c-0.2-0.4-0.4-0.8-0.6-1.2c-0.4-0.7-0.7-1.5-1-2.2c-0.2-0.6,0.2,0.5,0-0.1c-0.1-0.2-0.1-0.4-0.2-0.6
		s-0.2-0.6-0.3-0.9c-0.2-0.7-0.4-1.4-0.6-2c-0.6-2.7-5.3-2.8-4.6,0.3L268.9,113.8z"></path><polyline class="st1" points="193.7,220.6 258.1,219.5 262.8,246.5 	"></polyline><path class="st2" d="M195.2,222.5l21.7-0.4l34.7-0.6l7.9-0.1l-3.2-3.2l4.1,23.6l0.6,3.4c0.3,1.1,1.1,2.1,2.1,2.8
		c0.4,0.3,1.7,0.9,1.5-0.1l-4.1-23.6l-0.6-3.4c-0.2-1.2-1.9-3.3-3.2-3.2l-21.8,0.4l-34.6,0.6l-8,0.1c-0.9,0,0.2,1.8,0.4,2
		C193.1,221.3,194.1,222.5,195.2,222.5L195.2,222.5z"></path><path class="st2" d="M258.8,222.1c0,0,7.2-5.2,10-4.8s11.8,10,20.1,12.5s15,3.2,11.8,7s-23.1-1.8-38.3,5.4L258.8,222.1z"></path><path class="st2" d="M260,223.9c1.5-1.1,3.1-2.1,4.7-3c0.6-0.3,1.1-0.6,1.7-0.9c0,0,0.5-0.2,0.1-0.1l0.4-0.1
		c0.3-0.1,0.6-0.2,0.9-0.3c0.6-0.2-0.2,0,0.2-0.1c0.1,0,0.2,0,0.4,0c0,0-0.5,0-0.2,0c-0.4,0-0.4-0.2,0,0c0.2,0.1,0.4,0.2,0.6,0.3
		s-0.3-0.2,0,0l0.3,0.2l0.7,0.5c0.6,0.4,1.1,0.8,1.7,1.3c1.2,0.9,2.5,1.9,3.7,2.8c2.9,2.3,6,4.3,9.4,5.9c3.6,1.7,7.6,2.4,11.4,3.5
		c0.6,0.2,1.2,0.4,1.8,0.6c0.3,0.1,0.6,0.2,0.8,0.4c0.5,0.2,0,0.1,0.4,0.3s-0.1,0,0.2,0.1c0.5,0.2-0.2-0.1,0-0.1
		c-0.1,0,0.4,0.6,0-0.1c0.1,0.2,0.1-0.1,0,0.1c0.3-0.5-0.4,0.6-0.2,0.3s-0.1,0.1-0.2,0.2c0.3-0.3,0.4-0.2,0-0.1c0,0,0.5-0.1,0,0
		l-0.7,0.2c-0.6,0.2,0.3,0-0.2,0c-0.2,0-0.5,0.1-0.7,0.1c-0.6,0.1-1.1,0.1-1.7,0.1c-3,0.1-5.9,0-8.9,0c-8.6,0-17.3,0.6-25.2,4.4
		l3.6,1.1l-3.6-20.1c-0.2-1.3-2-1.6-3-1.3c-1.2,0.3-2,1.5-1.8,2.8L260,243c0.3,1.7,2.5,1.6,3.6,1.1c7.1-3.4,15.3-3.7,23-3.6
		c3.1,0,6.2,0.2,9.4,0c2.2-0.1,4.7-0.5,6.4-2.1c1.2-1,1.7-2.6,1.5-4.2c-0.4-1.3-1.4-2.3-2.7-2.9c-3.4-1.8-7.6-2.3-11.2-3.4
		c-6.8-2.1-11.7-7.4-17.5-11.1c-1.1-0.9-2.5-1.4-3.9-1.5c-1.6,0.1-3.3,0.6-4.7,1.4c-2.2,1.1-4.3,2.3-6.3,3.8c-1,0.7-1.7,1.9-0.9,3
		C257.5,224.4,258.9,224.6,260,223.9z"></path><path class="st2" d="M218.1,219.4c0,0-14.5-9.7-13.1-12.9s7.9-2,16.5,1.4s21.5-1.8,24,0s0.2,11.8,0.2,11.8L218.1,219.4z"></path><path class="st2" d="M220.3,219.4c-2.8-1.8-5.4-3.9-7.9-6c-1.5-1.3-7.8-6.3-3.4-7.9c0.8-0.3,1.7-0.3,2.5-0.1
		c1.8,0.3,3.5,0.8,5.2,1.4c1.8,0.6,3.6,1.4,5.5,1.9c1.9,0.5,3.8,0.8,5.8,0.9c3.4,0.1,6.9-0.1,10.3-0.7c1.4-0.2,2.8-0.4,4.2-0.6
		c0.6-0.1,1.2-0.1,1.8-0.2h0.5c0.1,0,0.2,0,0.3,0c-0.6,0.1,0.2,0-0.2,0c-0.5-0.1-0.9-0.2-1.3-0.3c0,0.1,0.2,0.3,0.3,0.4
		c0.3,0.4,0.4,0.9,0.5,1.5c0.2,1.3,0.2,2.7,0.1,4c-0.2,1.9-0.4,3.8-0.9,5.6l1.3-0.4l-24.2-0.2h-3.4c-0.6,0-1.6,0.1-1,0.7
		s2.6,0.7,3.4,0.7l24.2,0.2h3.4c0.3,0,1.2,0,1.3-0.4c0.4-1.8,0.7-3.5,0.8-5.3c0.2-2,0.6-5.3-1.2-6.7c-2.1-1.6-5.6-1.3-8.1-1
		c-3.2,0.4-6.5,1-9.7,1.3c-1.6,0.2-3.2,0.1-4.9-0.1c-1.8-0.4-3.5-1-5.2-1.8c-3.9-1.4-8.1-2.6-12.3-2.5c-1.6,0-5.2,0.4-5.2,2.7
		c0,1.7,1.9,3.4,3,4.5c3.2,3.1,6.7,5.8,10.5,8.2c1,0.5,2.2,0.8,3.4,0.7C219.7,220.1,221.1,220,220.3,219.4z"></path><path class="st1" d="M239.2,158.5l-0.1-5.2c0,0-10.9-19.5-17.6-19.3s-6.7,8.9-3.4,13.6c1.9,2.7,3.6,5.4,5.1,8.3
		c0,0-41.6,48.7-23.7,50.8C232.9,210.9,239.2,158.5,239.2,158.5z"></path><path class="st2" d="M241.6,157.7c0.1-1.6,0.1-3.3-0.1-4.9c-0.2-0.6-0.5-1.2-0.9-1.7c-2.1-3.6-4.4-7-7-10.3
		c-2.3-2.9-5.5-7.1-9.5-7.8c-2.9-0.3-5.9,0.6-8.1,2.5c-1.7,1.7-2.6,4-2.4,6.4c0.1,3.3,1.5,5.7,3.2,8.4c1.5,2.2,2.8,4.4,4,6.7
		l0.2-0.6c-4.6,5.4-8.9,11-13.1,16.7c-3.4,4.6-6.6,9.4-9.5,14.4c-2.3,4-4.7,8.3-5.6,12.9c-0.6,3-0.1,6.3,3.1,7.4
		c2.6,0.9,5.8,0.7,8.4,0.5c3.2-0.3,6.4-1.1,9.4-2.4c10.9-4.7,17.7-15,21.9-25.7c2.9-7,4.8-14.3,5.8-21.7c0-0.1,0-0.2,0.1-0.4
		c0.2-1.3-4.5-0.1-4.7,1.2c-0.8,5.9-2.2,11.8-4.1,17.4c-1.6,5-3.8,9.9-6.4,14.4c-2.7,4.4-6.3,8.8-10.5,11.6c-1.9,1.3-4,2.2-6.2,2.7
		c-1.2,0.3-2.5,0.5-3.7,0.5c-1.5,0.1-3.1,0-4.6-0.2c-1.2,0-2.4-0.6-3.2-1.6c-0.7-1.1-0.9-2.4-0.8-3.7c0.4-4.2,2.5-8.2,4.4-11.9
		c2.7-4.8,5.6-9.4,8.9-13.9c4.6-6.4,9.6-12.5,14.4-18.6l0.3-0.3c0.1-0.1,0.2-0.4,0.2-0.6c-0.8-1.6-1.7-3.1-2.7-4.6
		c-1.5-2.4-3.4-4.6-4.1-7.4c-0.7-2.1-0.6-4.4,0.2-6.4c0.2-0.4,0.4-0.8,0.7-1.1c0.2-0.2,0.6-0.4,0.4-0.4c-0.5,0.2-0.2,0.1,0.2,0.1
		s-0.3-0.1,0.2,0c0.2,0,0.4,0.1,0.6,0.1c1.5,0.6,2.9,1.6,4.1,2.8c1.6,1.5,3,3.1,4.3,4.8c2.3,3,4.5,6.2,6.4,9.5
		c0.4,0.6,0.8,1.2,1,1.9c0.1,1.7,0.2,3.3,0.1,5C236.9,160.3,241.6,159.3,241.6,157.7z"></path><path class="st2" d="M273.4,133.5c5.8-25.7-10-34.4-21.6-36.4s-19.7,1.6-22.3,6.2c-2,3.4,4.5,25.6,4.5,25.6l18.2,20
		C252.3,148.9,269,153,273.4,133.5z"></path><path class="st1" d="M221.8,138.7c-6.2-9,7.9-31,7.9-31c4.3-0.1,11.9-2.9,11.9-2.9c-4.2,12.4,10.2,18.4,10.2,18.4
		c4.2-6.4,11.8-2.6,10.2,4c-1.6,6.6-8.1,6.4-8.1,6.4s0.7,17.2-0.4,19.7c0,0-12.1,5.9-17.5-4.9C236.1,148.3,226,144.8,221.8,138.7z"></path><path class="st2" d="M223.9,137.9c-0.3-0.4-0.5-0.8-0.7-1.3c-0.2-0.4-0.1-0.1,0,0c0-0.1-0.1-0.3-0.1-0.4c-0.1-0.3-0.2-0.6-0.2-0.8
		c-0.1-0.4-0.2-0.8-0.2-1.2c0-0.6,0-1.3,0-1.9c0.2-2.5,0.7-5,1.5-7.3c1.5-4.5,3.5-8.9,5.9-13c0.5-0.9,1.1-1.8,1.6-2.7l-1.5,0.8
		c4.2-0.2,8.5-1.6,12.4-3.1l-3.4-3.1c-1.9,5.6-0.3,11.8,3.9,15.9c2.3,2.3,5,4.2,7.9,5.5c0.9,0.4,2,0.2,2.7-0.6
		c0.6-1,1.5-1.8,2.6-2.3c0.7-0.3,1.4-0.3,2.1,0.1c0.2,0.1,0.4,0.2,0.5,0.3c0.1,0.1,0.2,0.2,0.3,0.4c-0.1-0.2-0.1-0.2,0,0
		c0.2,0.3,0.3,0.5,0.4,0.8c0.2,0.9,0.2,1.9-0.1,2.8c-0.3,1-0.8,1.9-1.4,2.7c-0.6,0.6-1.3,1.1-2.2,1.4c-0.4,0.1-0.7,0.2-1.1,0.3
		c0.6-0.1-0.4,0.1-0.6,0.1c-0.3,0-0.6,0-0.9,0c-1,0.1-1.8,0.9-1.8,1.9c0.1,2.9,0.2,5.9,0.2,8.8c0,2.2,0,4.4-0.1,6.6
		c0,0.9-0.1,1.8-0.2,2.6c0,0.2-0.2,1.2-0.1,0.5c0,0.2-0.1,0.5-0.2,0.7l1.2-1.2c-1,0.5-2.1,0.8-3.2,1.1l-0.4,0.1c0.1,0,0.4-0.1,0,0
		l-0.8,0.1c-0.6,0.1-1.2,0.1-1.8,0.1c-0.5,0-0.9,0-1.4-0.1c-0.3,0-0.6-0.1-0.9-0.1l-0.5-0.1c-0.4-0.1,0.5,0.2-0.2-0.1
		c-0.5-0.2-1.1-0.4-1.6-0.6c-0.5-0.3-1-0.7-1.4-1.1c-0.5-0.5-0.9-1-1.3-1.6c-0.7-1-1-2.1-2.2-2.7c-1.6-0.8-3.3-1.4-4.9-2.2
		c-3.2-1.5-6.1-3.8-8.3-6.6c-0.8-1-2.3-1.3-3.4-0.6c-1.1,0.8-0.8,2.2-0.1,3.2c2.4,3.4,6,5.8,9.5,7.7c1.9,1,3.8,1.9,5.8,2.7l-1.4-1.3
		c1.9,4.1,5.7,7,10.1,7.8c3.1,0.4,6.2,0.1,9.1-0.9c0.5-0.2,1-0.4,1.5-0.6c1.5-0.7,1.5-2.4,1.6-3.9c0.2-3.3,0.3-6.7,0.2-10
		c0-2.5-0.1-5.1-0.2-7.6l-1.8,1.9c3.5,0.1,6.8-1.8,8.7-4.8c1.6-2.6,1.9-5.7,0.8-8.6c-1-2.5-3.3-4.3-6-4.8c-3.4-0.6-6.4,1.3-8.2,4
		l2.7-0.6l-0.6-0.3l-0.7-0.3c-0.7-0.3,0.3,0.2-0.3-0.1c-0.7-0.4-1.4-0.9-2.1-1.3c-0.4-0.3-0.8-0.6-1.1-0.9c-0.2-0.1-0.3-0.3-0.5-0.4
		c-0.4-0.3,0.2,0.2-0.2-0.2c-0.8-0.7-1.4-1.5-2.1-2.4c0.3,0.4-0.1-0.2-0.2-0.3c-0.2-0.3-0.3-0.6-0.5-0.8c-0.1-0.2-0.2-0.4-0.3-0.7
		c-0.1-0.2-0.1-0.3-0.2-0.5c-0.8-2.3-0.8-4.8,0.1-7.1c0.6-1.9-1.6-3.8-3.4-3.1c-3,1.2-6.2,2.1-9.4,2.6c-1.3,0.2-2.7,0.1-3.6,1.3
		c-0.5,0.7-0.9,1.4-1.3,2.1c-3.4,6-6.6,12.4-7.9,19.2c-0.7,3.8-0.9,8.2,1.4,11.6c0.6,1.2,2,1.7,3.2,1.4c1-0.4,1.5-1.6,1.1-2.6
		C224.1,138.2,224,138.1,223.9,137.9z"></path><path class="st2" d="M244.7,132.9c-0.9,0.6-1.8,1.2-2.7,1.7c-0.2,0.1-0.3,0.2-0.5,0.3c-0.2,0.1,0.6,1,0.6,1.1
		c0.2,0.2,0.4,0.5,0.6,0.6c0.1,0.1,0.2,0.2,0.4,0.2c0.2-0.1,0.3-0.1,0.4-0.2c0.3-0.1,0.5-0.3,0.8-0.5l1.7-1l0.4-0.2
		c0.1-0.1-0.1-0.4-0.1-0.4c-0.1-0.3-0.3-0.5-0.5-0.7c-0.2-0.3-0.4-0.5-0.6-0.7C244.9,132.9,244.7,132.8,244.7,132.9L244.7,132.9z"></path><path class="st2" d="M238,119.8c0,0-1.6,0-1.5,1.5s2,1.4,2.4,0c0.2-0.6-0.1-1.3-0.7-1.5C238.1,119.8,238.1,119.8,238,119.8z"></path><path class="st2" d="M227.9,117.2c0,0-1.6,0-1.5,1.5s2,1.4,2.4,0c0.2-0.6-0.1-1.3-0.7-1.5C228,117.3,227.9,117.3,227.9,117.2z"></path><path class="st1" d="M221.9,140.8c0,0,3.6,6.6,7,4.5s0.6-10.8-6.5-11.3s-6.8,6.9-6.8,6.9"></path><path class="st2" d="M219.4,140.9c1.1,2,2.8,4.4,5.1,5c1.7,0.4,3.4,0.4,5.1,0c0.8-0.1,1.5-0.5,2.1-1c0.8-0.9,1.1-2,1-3.2
		c-0.3-3.1-2.3-5.8-5.1-7.2c-2.4-0.9-5-1.2-7.5-0.9c-1.9,0.2-3.8,0.5-5.2,1.9c-1.3,1.5-2.1,3.4-2,5.4c0,0.5,5,0.4,5-0.2
		c0-1.3,0.3-2.6,0.8-3.8c0.5-1,1.2-1.8,2.2-2.4c0.2-0.1,0.5-0.2,0.8-0.3l0.2-0.1c0.2-0.1-0.2,0,0,0h0h-0.3c0.3,0,0.2,0-0.3,0
		c-0.8,0-0.4,0-0.2,0c-0.1,0-0.3,0-0.4,0c0.1,0,0.2,0,0.3,0c0.3,0.1,0.7,0.1,1,0.3c2.6,1,4.6,3.1,5.4,5.8c0.3,1.1,0.4,2.2,0.1,3.3
		c-0.1,0.4-0.3,0.8-0.6,1.2c-0.2,0.2-0.3,0.3-0.5,0.4l-0.3,0.1c-0.2,0.2-0.1,0,0,0l2.4-0.1c0.6,0.1,0.7,0.1,0.5,0s-0.5-0.2-0.8-0.3
		c-0.3-0.2-0.6-0.4-0.9-0.6c-0.6-0.5-1.1-1-1.5-1.6c-0.5-0.7-1-1.4-1.4-2.1c-0.1-0.2-0.6-0.2-0.7-0.2c-0.6-0.1-1.2-0.1-1.8-0.1
		c-0.2,0-2.6,0.3-2.5,0.4L219.4,140.9z"></path><path class="st1" d="M259.6,177.1c0,0-8.5-16.5-6.9-24.4c0.7-4.5,4.1-8,8.5-8.9c0,0-4.1-7.1,2.7-9.4s10.9,4.2,10.9,4.2
		s4.4-2.9,5,2.7c0,0,5.1-0.7,5,5.4s-3.5,12.9-8.1,14.6c0,0,41.5,34.3,20.7,45.1C282.8,214,259.6,177.1,259.6,177.1z"></path><path class="st2" d="M261.9,176.1c-1.9-3.8-3.6-7.7-4.9-11.7c-1.1-2.9-1.8-6-2-9.1c-0.1-2.8,0.9-5.4,2.8-7.5
		c0.5-0.5,1.1-0.9,1.7-1.2c-0.5,0.3,0.3-0.1,0.4-0.2l0.7-0.3c0.2-0.1,0.5-0.1,0.7-0.2c-0.4,0.1-0.5,0.1-0.1,0c0.1,0,0.3-0.1,0.4-0.1
		c1.3-0.2,2.7-1.6,1.9-3c-0.2-0.3-0.3-0.6-0.4-0.9c0-0.1-0.3-0.7-0.1-0.2c-0.1-0.2-0.1-0.3-0.2-0.5c-0.1-0.4-0.2-0.8-0.3-1.1
		c-0.3-1.7,0.1-3,1.9-3.7c2-0.8,4.2-0.4,5.9,0.9c0.6,0.5,1.2,1.1,1.8,1.7c0.5,0.5-0.1-0.2,0.2,0.3l0.2,0.3c0.9,1.2,2.6,1.4,3.8,0.5
		c0,0,0,0,0,0c0.2-0.1-0.5,0.2-0.4,0.2s0.3-0.1,0.4-0.2l0.6-0.2c-0.8,0.3,0.3,0,0,0s0,0,0.1,0s-0.3-0.1-0.1,0c0,0-0.2-0.2,0,0
		c0.1,0.1,0.2,0.3,0.3,0.5c0.1,0.4,0.2,0.9,0.3,1.3c0.2,1.3,1.8,1.7,2.8,1.6c0.3,0-0.8,0-0.4,0c0.2,0,0.4,0,0.5,0
		c0.5,0-0.4-0.2,0.3,0.1l0.4,0.1c0.5,0.2-0.5-0.2,0.1,0.1c0.4,0.2,0.8,0.6,0.9,1c0.3,0.9,0.5,1.9,0.3,2.9c-0.3,4.3-2.3,10.2-6.7,12
		c-1.2,0.5-2.1,2.2-0.9,3.2c3.7,3.1,7.2,6.4,10.6,9.9c5.7,5.9,11.3,12.1,14.4,19.9c0.1,0.4,0-0.2,0.1,0.2l0.2,0.6
		c0.1,0.4,0.3,0.9,0.4,1.4c0.2,0.8,0.3,1.6,0.4,2.4c0,0.2,0,0.3,0,0.5c0-0.4,0,0,0,0.2c0,0.4,0,0.8-0.1,1.1
		c-0.1,0.4-0.1,0.7-0.2,1.1c0,0.1,0.1-0.3,0,0.1c-0.1,0.2-0.1,0.4-0.2,0.6c-0.2,0.3-0.3,0.7-0.5,1c-0.1,0.1,0.2-0.3,0,0.1
		c-0.1,0.2-0.3,0.4-0.4,0.5c-0.2,0.3-0.5,0.6-0.8,0.8c0.4-0.4-0.1,0.1-0.2,0.1l-0.6,0.5c-0.4,0.3-0.7,0.5-1.1,0.7
		c0.4-0.2-0.1,0.1-0.3,0.1l-0.7,0.3l-0.5,0.2c-0.3,0.1,0.5-0.1,0.1,0c-0.1,0-0.2,0-0.3,0.1l-0.6,0.1c-0.1,0-0.8,0.1-0.5,0.1
		s-0.2,0-0.3,0H293l-0.6-0.1c-0.6,0,0.2,0.1-0.2,0c-0.9-0.2-1.8-0.4-2.7-0.7c-0.1,0-0.4-0.2,0,0l-0.3-0.1l-0.7-0.3
		c-0.5-0.2-0.9-0.4-1.4-0.7c-0.9-0.5-1.8-1.1-2.7-1.7c-3.7-2.7-7.1-5.8-10.1-9.3c-4.5-5-8.5-10.4-12.2-16l-0.2-0.3
		c-1.4-2.2-6-0.4-4.5,2c3.4,5.3,7.1,10.3,11.2,15c3.2,3.8,6.7,7.3,10.6,10.4c3.6,2.8,7.6,5.2,12.2,5.8c4.3,0.4,8.6-1.2,11.5-4.5
		c2.4-2.7,3.3-6.4,2.6-10c-0.8-4-2.5-7.8-4.8-11.1c-2.5-3.8-5.4-7.5-8.5-10.8c-2.7-3-5.5-5.8-8.4-8.5c-1.5-1.6-3.2-3-4.9-4.4
		c-0.1-0.1-0.2-0.1-0.2-0.2l-0.9,3.2c6.2-2.5,9.6-10.2,9.6-16.6c0-2.7-0.9-5.3-3.4-6.6c-1.4-0.7-2.9-0.9-4.5-0.7l2.8,1.5
		c-0.3-2.6-1.9-4.9-4.8-5c-1.5,0-3,0.4-4.3,1.3l3.8,0.5c-2-3.2-5.4-5.3-9.2-5.7c-3.2-0.3-6.3,0.8-8.6,3c-1.5,1.7-2.1,3.9-1.7,6.1
		c0.2,1.4,0.7,2.7,1.3,3.9l1.9-3c-5.6,0.9-10,6.1-10.7,11.5c-0.4,3.2,0.3,6.7,1.2,9.8c1,3.4,2.2,6.7,3.6,9.9
		c0.8,1.7,1.5,3.5,2.4,5.2C258.5,180.4,263.2,178.7,261.9,176.1z"></path><path class="st2" d="M263.6,140.9L263.6,140.9l0.4-0.3c-0.5,0.4-1.1,0.8-1.8,1l0.5-0.2c-0.5,0.2-1.1,0.4-1.7,0.5l0.6-0.1
		c-0.3,0.1-0.7,0.1-1,0.1c-0.5,0-1.1,0.2-1.4,0.6c-0.3,0.4-0.4,0.9-0.2,1.4c0.6,1.1,1.7,1.8,3,1.8c2.2,0,4.2-0.8,5.9-2.2
		c0.3-0.4,0.4-0.9,0.2-1.4c-0.2-0.5-0.6-1-1.1-1.3c-0.6-0.3-1.2-0.5-1.9-0.5l-0.6,0.1C264.1,140.4,263.8,140.6,263.6,140.9
		L263.6,140.9z"></path><path class="st2" d="M282,144.9c0.7-1.9,0.5-3.9-0.4-5.7c-0.3-0.4-0.8-0.7-1.4-0.8c-0.6-0.1-1.3,0-1.9,0.2c-0.6,0.2-1,0.6-1.3,1.2
		c-0.2,0.5-0.2,1,0.1,1.5c0.1,0.1,0.2,0.3,0.2,0.4l-0.2-0.5c0.2,0.5,0.3,1.1,0.4,1.7v-0.5c0,0.7,0,1.4-0.2,2l0.1-0.5v0.1
		c-0.1,0.2-0.2,0.5-0.1,0.8c0,0.3,0.1,0.5,0.2,0.7c0.3,0.5,0.8,0.8,1.4,0.8c0.6,0.1,1.3,0,1.9-0.2
		C281.3,145.9,281.8,145.4,282,144.9L282,144.9z"></path><path class="st2" d="M276.6,142.9c0.1-0.1,0.1-0.2,0.1-0.3c0.2-0.4,0.3-0.8,0.3-1.2c0-0.3,0-0.7,0-1c0-0.4-0.1-0.8-0.2-1.2
		c-0.1-0.2-0.1-0.5-0.2-0.7c-0.2-0.5-0.4-0.9-0.6-1.4c-0.3-0.6-0.8-1-1.4-1.3c-0.5-0.3-1-0.3-1.6-0.2c-0.5,0.2-0.8,0.6-0.9,1.1
		c-0.1,0.6,0.1,1.2,0.4,1.7c0.1,0.2,0.2,0.4,0.3,0.6l-0.3-0.6c0.1,0.3,0.2,0.6,0.3,0.9l-0.1-0.6c0.1,0.3,0.1,0.6,0.1,0.9v-0.5
		c0,0.3-0.1,0.6-0.2,0.9l0.2-0.5c0,0.1-0.1,0.2-0.1,0.3c-0.2,0.5-0.2,1.1,0,1.6c0.2,0.6,0.6,1.2,1.1,1.6c0.4,0.4,1,0.6,1.6,0.6
		C275.9,143.6,276.4,143.4,276.6,142.9L276.6,142.9z"></path><path class="st1" d="M231.9,121.4c-2.7,1.5-5.5,2.5-8.5,3.2c-10,2.3-11,5.9-7.7,7.7s16.9-0.6,16.9-0.6"></path><path class="st2" d="M230.6,119.3c-3,1.8-6.4,2.6-9.8,3.4c-2.1,0.5-4,1.2-5.9,2.2c-1.3,0.6-2.3,1.7-2.9,2.9c-1.1,3.1,2,6,4.8,6.7
		c3,0.8,6.4,0.4,9.4,0.1c2.4-0.2,4.9-0.5,7.3-1c2.8-0.5,0.4-4.7-1.8-4.3c-1.7,0.3-3.4,0.5-5.2,0.7c-1.5,0.2-3.1,0.3-4.6,0.4
		c-0.8,0.1-1.6,0.1-2.4,0.1h-1H218h0.1h-0.3c-0.6-0.1-1.1-0.1-1.7-0.3c-0.4-0.1,0.2,0.1,0.1,0c-0.1,0-0.2-0.1-0.3-0.1
		c-0.4-0.1,0.3,0.2,0.2,0.1c-0.1-0.1-0.2-0.2-0.3-0.2c-0.4-0.2,0.2,0.2,0.1,0.1c-0.1-0.1-0.1-0.1-0.2-0.2c-0.1-0.1,0.4,0.6,0.2,0.2
		s0,0,0.1,0.2c-0.3-0.5,0.1,0.4,0,0s0,0.5,0,0.2c0-0.1,0.1-0.4,0-0.1s0.1-0.2,0.2-0.3s0.2-0.4,0.1-0.1s0.1-0.1,0.1-0.2
		c0.2-0.2,0.4-0.4,0.6-0.5l0.3-0.3c0,0,0.2-0.2,0.1,0s0.1-0.1,0.1-0.1c1.7-1,3.5-1.7,5.4-2.2c3.5-1,7.1-1.7,10.3-3.6
		c1-0.6,0.9-1.8,0.3-2.7S231.6,118.7,230.6,119.3L230.6,119.3z"></path></g><g id="chair-1"><path class="st0" d="M216.2,307.9c0,0,6.9-68.1-0.8-72.7s-73.5-5.4-85.7,0s0,72.7,0,72.7s-23,36.7-23,45.2v8.4
		c0,0,122.5-0.8,126.3,0s4.6-10.7,3.8-13.8S216.2,307.9,216.2,307.9z"></path><path class="st0" d="M217.6,309.9c0.5-4.7,0.9-9.5,1.2-14.2c0.8-9.8,1.3-19.6,1.6-29.4c0.1-4.7,0.1-9.5-0.1-14.2
		c-0.1-3.6-0.5-7.2-1.2-10.7c-0.7-2.9-1.9-6.7-4.6-8.3c-2-1.3-4.8-1.5-7.1-1.9c-9.5-1.4-19.3-1.7-28.9-1.9c-11-0.2-21.9,0-32.8,0.8
		c-4.2,0.3-8.3,0.8-12.4,1.5c-2.3,0.4-5,0.9-6.6,2.8c-1.9,2.3-2.5,5.5-3,8.3c-0.6,4.3-0.9,8.5-0.8,12.8c0.2,10,1,20,2.3,29.9
		c0.8,6.6,1.8,13.1,2.9,19.6c0.1,0.3,0.1,0.7,0.2,1l0.1-0.4c-3.6,5.7-7,11.6-10.4,17.4c-2.7,4.7-5.3,9.4-7.7,14.2
		c-2,3.7-3.6,7.5-4.7,11.5c-0.6,2.6-0.3,5.3-0.3,7.9v2.6c0.1,0.9,0.4,1.8,1,2.6c0.3,0.5,0.9,1.6,1.6,1.6h6.7l17.2-0.1l23.8-0.1
		l26.2-0.1c8.2,0,16.4,0,24.6,0c6.2,0,12.5,0,18.7,0.1c2.9,0,5.9,0,8.9,0.2c3.4,0.3,4-4.8,4.3-7.3c0.4-3.1,0.4-6.2-0.8-9
		c-2.9-6.6-6.5-13-9.9-19.4c-3.3-6.2-6.6-12.4-10-18.6l-0.6-1.1c-0.3-0.5-1.2-2.5-1.9-2.5s0.1,1.6,0.3,1.9c2.5,4.6,4.9,9.1,7.4,13.7
		c3.8,7.2,7.7,14.3,11.3,21.6c0.3,0.6,0.6,1.2,0.9,1.8c0.1,0.2,0.2,0.5,0.4,0.8c-0.3-0.6,0,0,0.1,0.2s0.1,0.3,0.2,0.5l0.1,0.2
		c0.1,0.2-0.2-0.5-0.1-0.2s0-0.3,0,0.1s0.1,0.8,0.1,1.1c0.1,2.2,0,4.3-0.4,6.4c-0.3,1.6-0.7,4-2.1,5.1c-0.8,0.6-2.1,0.3-3.1,0.2
		c-1.6-0.1-3.3-0.1-4.9-0.1c-5.7-0.1-11.4-0.1-17.1-0.1c-7.8,0-15.7,0-23.5,0c-8.6,0-17.2,0-25.8,0.1l-24.4,0.1l-18.9,0.1
		c-3.1,0-6.3-0.1-9.4,0h-0.4l2.6,4.2v-3.2c0-2.7-0.2-5.5,0.5-8.1c1.5-5.2,4.2-10.2,6.7-15c4.8-9.1,10.1-18,15.5-26.8
		c0.2-0.4,0.3-0.8,0.2-1.3c-0.2-1-0.4-2.1-0.5-3.1c-0.7-4.3-1.4-8.6-1.9-12.9c-1.6-12.1-3-24.3-2.8-36.5c0.1-4.7,0.3-9.7,1.7-14.2
		c0.4-1.5,1.2-2.9,2.2-4c1-0.9,2.3-1.5,3.6-1.7c4.6-1.1,9.3-1.8,14-2c6.6-0.5,13.2-0.8,19.8-0.9c13-0.4,26,0.1,39,1.4
		c3.4,0.4,7.2,0.6,10.3,2.1c0.4,0.2,0,0,0.3,0.2s-0.3-0.3,0,0s-0.6-0.8-0.3-0.4c-0.5-0.8,0.1,0.2-0.4-0.6c0.2,0.4,0,0.1,0-0.1
		c0,0.2,0.1,0.3,0.2,0.4c-0.2-0.5,0-0.1,0.1,0.2c0.2,0.7,0.4,1.4,0.5,2.2c0.2,1,0.3,2,0.5,3c0.6,5.3,0.8,10.5,0.7,15.8
		c0,6.3-0.3,12.6-0.6,18.9c-0.5,9.3-1.2,18.5-2.1,27.7c-0.1,0.5-0.1,1-0.1,1.5c-0.1,1,0.7,2.1,1.2,2.9
		C216.2,308.9,217.5,310.5,217.6,309.9z"></path><path class="st1" d="M132,308.4c9.5,0,19-0.3,28.6-0.4l42.9-0.6c3.7-0.1,7.4-0.1,11.2-0.1c0.5,0,2.1,0,1.8-0.8s-2.5-0.8-3-0.8
		c-9.5,0-19,0.3-28.6,0.4l-42.9,0.6c-3.7,0.1-7.4,0.1-11.2,0.1c-0.5,0-2.1,0-1.8,0.8S131.5,308.4,132,308.4L132,308.4z"></path><path class="st1" d="M107.3,352.4c4.7,0,9.5-0.2,14.2-0.3l30.8-0.7l36.8-0.9l32.1-0.7c5.6-0.1,11.2-0.1,16.8-0.4h0.5
		c1.2,0,0.6-1.4,0.2-2c-0.8-0.9-1.9-1.5-3.1-1.5c-4.7,0-9.5,0.2-14.2,0.3l-30.8,0.7l-36.8,0.9l-32.1,0.8c-5.6,0.1-11.2,0.1-16.8,0.4
		h-0.5c-1.2,0-0.6,1.4-0.2,2C104.9,351.8,106.1,352.3,107.3,352.4L107.3,352.4z"></path><path class="st0" d="M120.4,367.4v33.4c0,1.3,5,0.9,5-0.6v-33.4C125.4,365.5,120.4,365.9,120.4,367.4z"></path><path class="st0" d="M209.3,364.8c-0.2,12.6,0,25.1,0.7,37.7c0.1,1.2,0.7,2.4,1.7,3.1c0.9,0.5,1.7,0.2,1.6-0.9
		c-0.7-12.5-0.9-25.1-0.7-37.7c-0.1-1.2-0.7-2.4-1.7-3.1C210,363.3,209.3,363.7,209.3,364.8z"></path><path class="st1" d="M127.4,291.2c-1-8.4-1.8-16.7-2.4-25.1c-0.5-5.8-0.6-11.7-0.3-17.5c0-2.2,0.4-4.5,1.2-6.6
		c1.1-2.4,2.9-4.5,5.2-5.8c1.1-0.6,2.2-1.2,3.4-1.6c0.7-0.2,1.4-0.5,2-0.6l0.3-0.1c0.7-0.2-0.5,0.1,0.2,0l0.9-0.2
		c0.5-0.1,1-0.2,1.5-0.3l0.6-0.1c0.6-0.1-0.4,0.1,0,0s0.7-0.1,1.1-0.1c0.8-0.1,2.6-0.4,2.9-1.3s-1.4-1-2-0.9
		c-4,0.3-7.8,1.3-11.5,2.9c-5.4,2.4-9.7,6.4-10.5,12.5c-0.6,5.6-0.7,11.2-0.2,16.7c0.3,6.2,0.8,12.5,1.4,18.7
		c0.3,3.5,0.7,7,1.2,10.5C122.6,293.6,127.6,292.8,127.4,291.2L127.4,291.2z"></path><path class="st1" d="M199.2,232.6c0.4,0,0.9,0,1.3,0s0.9,0,1.3,0h0.4c0.4,0-0.6,0,0,0l1.1,0.1c3.2,0.3,6.3,1.2,9.1,2.7
		c1.4,0.8,2.8,1.9,3.9,3.1c1.1,1.2,1.9,2.5,2.5,4c0.1,0.2,0.2,0.5,0.3,0.7c0.2,0.6-0.1-0.3,0.1,0.3s0.3,1.1,0.4,1.7
		c0.3,1.3,0.4,2.6,0.6,4c0.3,3.2,0.4,6.3,0.3,9.5c0,3.7-0.2,7.4-0.4,11.1c-0.4,6.9-1.2,13.9-2,20.8c-0.4,3.7-0.9,7.5-1.5,11.2
		c-0.4,2.8,4.3,4,4.8,0.9c1.6-10.2,2.7-20.5,3.4-30.8c0.6-7.3,0.7-14.7,0.2-22.1c-0.2-2.8-0.7-5.6-1.6-8.2c-1.3-3.6-3.8-6.7-6.9-8.9
		c-5.3-3.6-11.6-5.3-18-4.8C195.2,228.1,196.3,232.8,199.2,232.6L199.2,232.6z"></path><path class="st0" d="M375.5,307.6c0,0,6.9-68.1-0.8-72.7s-73.5-5.4-85.7,0s0,72.7,0,72.7s-23,36.8-23,45.2v8.4
		c0,0,122.5-0.8,126.3,0s4.6-10.7,3.8-13.8S375.5,307.6,375.5,307.6z"></path><path class="st0" d="M378,307.6c0.7-7,1.2-14,1.7-21c0.8-12.3,1.5-24.7,0.9-37c-0.2-4.1-0.4-8.5-1.8-12.4c-0.3-1.1-1-2.1-2-2.8
		c-1.3-0.7-2.8-1.2-4.3-1.5c-4.9-1-9.8-1.6-14.8-1.9c-6.8-0.5-13.6-0.7-20.3-0.8c-13.2-0.2-26.7-0.1-39.9,1.6
		c-2.3,0.3-4.6,0.7-6.8,1.2c-1.7,0.3-3.3,0.9-4.7,1.8c-2.9,2.1-3.7,6.5-4.2,9.8c-0.7,5.5-0.9,11.1-0.6,16.7c0.2,6.4,0.8,12.7,1.5,19
		c1,8.8,2.2,17.6,3.7,26.4c0,0.2,0.1,0.5,0.1,0.7c0,0,0.2-0.3,0,0.1c-0.8,1-1.4,2.2-2,3.3c-3,4.8-5.8,9.7-8.6,14.7
		c-3.2,5.7-6.4,11.5-9.1,17.4c-1.1,2.2-2,4.5-2.7,6.9c-0.8,2.6-0.5,5.3-0.5,8v3.2c0,0.8,2,0.9,2.5,0.9h6.7l17.3-0.1l23.8-0.1
		l26.2-0.1c8.2,0,16.4,0,24.6,0c6.2,0,12.5,0,18.7,0.1c2,0,3.9,0,5.9,0.1l1.9,0.1h0.3c0.5,0-0.7-0.1-0.3,0c0.1,0,0.3,0,0.4,0
		c0.2,0-0.2,0.3-0.2,0c0,0-0.4-0.1-0.3,0c0.2,0.1,0.4,0.1,0.7,0.1c0.8,0.1,1.7,0.1,2.5-0.1c0.9-0.2,1.8-0.6,2.4-1.4
		c1.2-1.5,1.6-3.8,1.9-5.6c0.4-2.9,0.7-6.1-0.5-8.9c-2.8-6.5-6.4-12.8-9.7-19s-6.6-12.4-10-18.6l-0.6-1.1c-0.6-1.2-5.4-0.7-4.8,0.4
		c2.5,4.5,4.9,9,7.3,13.6c3.8,7.2,7.7,14.4,11.3,21.6c0.5,1.1,1,2.1,1.5,3.2c0.4,0.7,0.6,1.4,0.6,2.1c0.2,2.1,0.1,4.2-0.2,6.3
		c-0.3,1.8-0.6,4.1-1.8,5.5l-0.2,0.2c-0.2,0.3-0.2,0-0.1,0.1c0,0,3.4,0.1,1.5-0.2h-0.4c-0.7-0.1-1.3-0.1-2-0.1
		c-1.7-0.1-3.3-0.1-5-0.1c-5.7-0.1-11.4-0.1-17.1-0.1c-7.8,0-15.6,0-23.4,0c-8.7,0-17.3,0-26,0.1l-24.3,0.1l-18.8,0.1
		c-3.1,0-6.3,0-9.5,0H266l2.5,0.9V358c0-2.7-0.2-5.5,0.5-8.1c1.5-5.2,4.2-10.2,6.7-15c3-5.8,6.2-11.4,9.6-17c1.9-3.3,4-6.5,5.9-9.7
		c0.2-0.3,0.3-0.7,0.2-1.1c-0.2-1.1-0.4-2.1-0.5-3.2c-0.7-4.3-1.4-8.7-2-13c-1.6-12.1-3-24.4-2.8-36.6c0.1-4.7,0.3-9.7,1.7-14.2
		c0.4-1.5,1.2-2.9,2.2-4c0.1-0.2,0.3-0.3,0.5-0.4l0.3-0.2c0.4-0.2-0.3,0.1,0.2-0.1l1-0.4l0.5-0.2c0.1,0,0.8-0.2,0.3-0.1
		c2-0.5,4.1-0.9,6.2-1.1l0.5-0.1l0.9-0.1c0.7-0.1,1.4-0.2,2.1-0.2c1.4-0.1,2.8-0.3,4.2-0.4c6.8-0.5,12.9-0.7,19.6-0.8
		c7-0.1,13.9,0,20.9,0.3c5.9,0.2,11.1,0.5,17.1,1.2c1.1,0.1,2.2,0.3,3.2,0.4c0.1,0,0.2,0,0.4,0.1l0.6,0.1c0.5,0.1,0.9,0.2,1.4,0.3
		l1.1,0.3c0.3,0.1,0.4,0.1,0,0l0.5,0.2l0.7,0.3c0.2,0.1-0.4-0.2,0,0l0.3,0.2c0.3,0.2-0.1-0.2,0,0c0.1,0.1,0.2,0.2,0.2,0.2
		c0.2,0.2,0.3,0.4,0.5,0.7c0.3,0.5,0.5,1.1,0.7,1.7c0.5,1.8,0.8,3.6,1,5.5c0.5,5.3,0.8,10.6,0.7,15.9c0,6.3-0.3,12.6-0.6,18.9
		c-0.5,9.2-1.2,18.5-2.1,27.7c0,0.5-0.1,1-0.1,1.5C372.9,308.7,377.8,309,378,307.6z"></path><path class="st1" d="M288.5,308c9.5,0,19-0.3,28.5-0.4L360,307c3.7-0.1,7.5-0.1,11.2-0.1c1.1-0.1,2.3-0.3,3.3-0.8
		c0.3-0.1,1.7-0.7,0.7-0.7c-9.5,0-19,0.3-28.5,0.4l-42.9,0.6c-3.7,0-7.4,0.1-11.2,0.1c-1.1,0.1-2.3,0.3-3.3,0.8
		C289,307.5,287.6,308.1,288.5,308L288.5,308z"></path><path class="st1" d="M266.2,352.5c4.7,0,9.5-0.2,14.2-0.3l30.8-0.7l36.8-0.9l32.1-0.7c5.6-0.1,11.2-0.2,16.8-0.4h0.5
		c0.8,0-0.1-1.7-0.2-1.9c-0.3-0.6-1.3-2.3-2.1-2.3c-4.7,0-9.5,0.2-14.2,0.3l-30.8,0.7l-36.8,0.9l-32.1,0.8
		c-5.6,0.1-11.2,0.2-16.8,0.4h-0.5c-0.8,0,0.1,1.7,0.2,1.9C264.4,350.8,265.4,352.5,266.2,352.5L266.2,352.5z"></path><path class="st0" d="M279.6,366.9v33.4c0,2.9,5,2.6,5-0.3v-33.4C284.6,363.8,279.6,364,279.6,366.9z"></path><path class="st0" d="M367.9,366.4c-0.2,12.6,0,25.1,0.7,37.7c0.1,2.1,4.7,0.3,4.6-1.6c-0.7-12.5-0.9-25.1-0.7-37.7
		C372.5,362.8,367.9,364.5,367.9,366.4z"></path><path class="st1" d="M286.7,291.6c-1.1-8.5-1.9-16.9-2.4-25.4c-0.5-5.8-0.6-11.6-0.3-17.4c0-2.3,0.4-4.5,1.3-6.6
		c1.2-2.4,3-4.4,5.3-5.7c2.3-1.3,4.8-2.3,7.4-2.8c0.5-0.1,1-0.2,1.5-0.3s-0.1,0-0.2,0l0.4-0.1l0.5-0.1c0.4,0,0.7-0.1,1.1-0.1
		c0.9-0.1,2.2-0.6,1.9-1.6s-2.1-1.3-3-1.2c-3.7,0.3-7.4,1.3-10.8,2.8c-2.7,1.1-5.1,2.9-7,5.1c-1.7,2.1-2.8,4.7-3.1,7.5
		c-0.7,5.5-0.5,11.2-0.2,16.7c0.3,6.2,0.8,12.4,1.5,18.5c0.3,3.5,0.7,6.9,1.1,10.4c0.1,1.1,1.4,1.6,2.4,1.6
		C284.8,292.9,286.9,292.7,286.7,291.6L286.7,291.6z"></path><path class="st1" d="M356.3,230.5C356.7,230.5,355.9,230.5,356.3,230.5h1.1c1.1,0,2.2,0.1,3.2,0.2c3.4,0.4,6.7,1.4,9.8,3.1
		c3.2,1.8,5.8,4.7,7.3,8.1c0.8,2.3,1.4,4.8,1.5,7.2c0.6,7,0.6,13.9,0,20.9c-0.5,7.1-1.2,14.2-2,21.2c-0.5,3.8-1,7.5-1.5,11.3
		c0,0.2,2.3-0.2,2.5-0.2c0.4-0.1,2.3-0.3,2.4-0.8c1.5-10,2.7-20.1,3.4-30.3c0.7-7.3,0.8-14.5,0.3-21.8c-0.1-2.6-0.6-5.2-1.4-7.7
		c-1.2-3.3-3.4-6.2-6.4-8.2c-5-3.2-10.9-4.7-16.8-4.1c-1.2,0.1-2.3,0.3-3.5,0.7C355.5,230.4,355.4,230.6,356.3,230.5L356.3,230.5z"></path></g></svg>