<svg transform="scale(1)" id="cWddPnOC0X" xmlns="http://www.w3.org/2000/svg" viewBox="0 0 500 500" class="pbimage_pbimage__wrapper__image__0LEis false"><title>Folder Empty</title><defs><style> .cls-1{fill:#fff;} .cls-2{fill:#f5d94a;} .cls-3{opacity:.22;} .cls-4{fill:#231f20;}
 .cls-4{fill:#231F20;}
 .cls-2{fill:#fabe00;}
 .cls-1{fill:#FFFFFF;}</style></defs><g id="folder-back"><g><path class="cls-2" d="M409.79,460.29c18.28-45.05,36.56-90.1,54.84-135.14,3.7-9.11,7.41-18.64,4.05-25.8-1.64-3.5-5.62-6.16-10.87-7.32-9.5-2.1-13.62-9.13-11.77-18.22,1.69-8.3,.39-15.56-7.49-19.52-6.11-3.07-15.29-3.5-24.23-3.83-60.99-2.21-123.78-1.93-188,.82-13.62,.58-27.51,1.31-42.13,4.47-4.37,.95-8.9,2.15-13.08,4.16-6.51,3.13-11.31,7.82-14.65,12.31-5.66,7.62-8,15.16-10.26,22.55-15.53,50.8-31.06,101.61-46.59,152.41-.69,2.25-1.37,4.6-.36,6.32,1.3,2.22,5.12,2.97,8.8,3.53,56.26,8.63,259.21,11.81,301.58,3.34"></path><path class="cls-2" d="M414.12,459.68c17.26-42.54,34.53-85.09,51.79-127.63,2.07-5.09,4.27-10.15,6.05-15.35,1.59-4.66,2.94-9.78,2.18-14.74-.63-4.12-2.97-7.28-6.49-9.39-3.6-2.16-7.87-2.33-11.48-4.38-2.93-1.66-4.97-4.4-5.78-7.66-.93-3.78,.18-7.21,.52-10.96s.11-7.34-1.65-10.56c-1.95-3.55-5.16-5.94-8.89-7.43-9.27-3.68-20.09-3.22-29.89-3.55-11.02-.37-22.03-.66-33.05-.87-22.12-.42-44.25-.51-66.37-.3-22.53,.21-45.06,.74-67.57,1.57-11.14,.41-22.3,.77-33.42,1.65-10.94,.86-22.14,2.2-32.69,5.36-9.6,2.87-18.09,8.06-24.3,16.02-6.33,8.12-9.31,17.78-12.27,27.48-6.69,21.87-13.37,43.75-20.06,65.62-6.69,21.87-13.37,43.75-20.06,65.62-1.73,5.64-3.45,11.29-5.18,16.93-.62,2.05-1.52,4.42-.99,6.58,.51,2.06,2.38,3.28,4.24,4.01,4.53,1.78,9.94,2.06,14.76,2.64,21.12,2.51,42.43,3.62,63.67,4.61,27.67,1.29,55.36,2.03,83.05,2.41,27.01,.37,54.03,.4,81.03-.21,19.78-.45,39.73-.91,59.39-3.31,2.78-.34,5.56-.74,8.32-1.28,1.45-.29,4.63-.95,4.99-2.77s-2.66-1.75-3.67-1.54c-6.5,1.29-13.14,1.87-19.74,2.41-1.16,.09,.59-.04-.55,.04-.56,.04-1.12,.08-1.68,.12-1.16,.08-2.32,.16-3.48,.24-2.36,.15-4.72,.29-7.08,.42-5.09,.27-10.19,.49-15.28,.68-25.29,.92-50.62,1.07-75.93,.94-27.74-.15-55.48-.7-83.2-1.7-12.61-.45-25.22-1-37.82-1.7-10.88-.61-20.4-1.22-31.37-2.17-8.02-.7-16.07-1.45-24.02-2.73-1.83-.3-4.04-.55-5.63-1.61-2.1-1.41-1.35-3.93-.76-5.96,1.57-5.4,3.29-10.76,4.93-16.14,3.27-10.7,6.54-21.4,9.81-32.1,6.58-21.52,13.16-43.04,19.73-64.56,3.31-10.82,6.61-21.64,9.92-32.46,2.89-9.46,5.3-19.37,10.87-27.69,5.03-7.52,11.86-12.91,20.63-15.34,9.96-2.76,20.43-3.92,30.72-4.63,21.85-1.5,43.82-1.94,65.71-2.43,43.62-.98,87.27-.8,130.88,.67,4.87,.16,9.76,.25,14.61,.68,4.4,.39,8.95,.96,13,2.85,3.32,1.55,5.92,4.24,7.02,7.76,1.15,3.7,.66,7.39,0,11.12-1.27,7.25,1.25,13.98,7.98,17.42,3.66,1.87,7.97,1.92,11.37,4.4s4.77,6.26,4.68,10.43c-.1,4.8-1.83,9.58-3.53,14.02-1.98,5.2-4.15,10.34-6.25,15.5-4.25,10.47-8.49,20.93-12.74,31.4-8.49,20.93-16.99,41.86-25.48,62.79-4.06,10.01-8.12,20.02-12.19,30.03-.71,1.75,2.86,1.66,3.67,1.54,1.7-.24,4.27-1,4.99-2.77h0Z"></path></g><g class="cls-3"><path class="cls-4" d="M409.79,460.29c18.28-45.05,36.56-90.1,54.84-135.14,3.7-9.11,7.41-18.64,4.05-25.8-1.64-3.5-5.62-6.16-10.87-7.32-9.5-2.1-13.62-9.13-11.77-18.22,1.69-8.3,.39-15.56-7.49-19.52-6.11-3.07-15.29-3.5-24.23-3.83-60.99-2.21-123.78-1.93-188,.82-13.62,.58-27.51,1.31-42.13,4.47-4.37,.95-8.9,2.15-13.08,4.16-6.51,3.13-11.31,7.82-14.65,12.31-5.66,7.62-8,15.16-10.26,22.55-15.53,50.8-31.06,101.61-46.59,152.41-.69,2.25-1.37,4.6-.36,6.32,1.3,2.22,5.12,2.97,8.8,3.53,56.26,8.63,259.21,11.81,301.58,3.34"></path><path class="cls-4" d="M414.07,459.49c17.26-42.54,34.53-85.09,51.79-127.63,2.07-5.09,4.27-10.15,6.05-15.35,1.57-4.58,2.98-9.69,2.23-14.56-.61-3.97-2.88-7.14-6.34-9.14-3.59-2.09-7.86-2.24-11.43-4.33-3.03-1.78-5.14-4.53-5.99-7.95-.93-3.78,.08-7.25,.49-11.01,.39-3.56,.13-7.32-1.62-10.52-1.88-3.44-5.16-5.75-8.78-7.1-9.28-3.45-19.86-3.03-29.61-3.35-11.02-.37-22.04-.65-33.06-.86-22.12-.41-44.26-.5-66.38-.28-22.53,.22-45.06,.76-67.58,1.59-22.02,.82-44.98,.8-66.28,7.11-9.63,2.85-18.11,7.78-24.42,15.69-6.41,8.02-9.33,17.65-12.28,27.31-6.69,21.87-13.37,43.75-20.06,65.62-6.69,21.87-13.37,43.75-20.06,65.62-1.73,5.64-3.45,11.29-5.18,16.93-.6,1.96-1.55,4.32-1.04,6.4s2.36,3.03,4.14,3.67c4.44,1.6,9.56,1.9,14.23,2.45,21.11,2.5,42.39,3.62,63.62,4.6,27.68,1.29,55.39,2.02,83.1,2.4,26.99,.36,53.98,.39,80.97-.22,19.66-.45,39.51-.87,59.05-3.29,3.07-.38,6.14-.81,9.17-1.41,1.17-.23,4.76-.86,5.12-2.3s-2.89-.82-3.44-.71c-1.3,.26-2.6,.48-3.91,.68-.35,.05-1.79,.25-.26,.04-.33,.05-.66,.09-.99,.14-.84,.11-1.67,.22-2.51,.32-3.75,.45-7.5,.8-11.26,1.09-4.53,.36-9.07,.65-13.61,.89-5.31,.29-9.23,.45-14.71,.65-25.33,.91-50.68,1.06-76.02,.92-27.73-.15-55.46-.71-83.18-1.71-23.26-.84-46.53-1.91-69.72-3.93-7.5-.65-15.99-1.42-23.88-2.76-1.97-.34-4.18-.67-5.84-1.88-2.11-1.53-1.48-4.17-.86-6.32,1.57-5.4,3.29-10.76,4.93-16.14,3.27-10.7,6.54-21.4,9.81-32.1,6.58-21.52,13.16-43.04,19.73-64.56,3.31-10.82,6.61-21.64,9.92-32.46,2.89-9.47,5.35-19.29,10.8-27.68,4.9-7.55,11.8-13.42,20.57-15.85,9.97-2.76,20.45-3.83,30.75-4.53,21.78-1.5,43.68-1.92,65.5-2.4,43.61-.96,87.26-.77,130.86,.71,4.96,.17,9.93,.26,14.87,.72,4.38,.41,9.01,1.05,12.98,3.04,3.4,1.7,6.02,4.39,7.16,8.06,1.15,3.7,.74,7.56,.06,11.3-1.28,6.96,1.09,13.75,7.74,16.93,3.79,1.81,8.02,1.99,11.51,4.53,3.46,2.52,4.78,6.43,4.73,10.61-.05,4.89-1.75,9.68-3.48,14.2-1.98,5.2-4.15,10.34-6.25,15.5-4.25,10.47-8.49,20.93-12.74,31.4-8.49,20.93-16.99,41.86-25.48,62.79-4.06,10.01-8.12,20.02-12.19,30.03-.56,1.38,2.94,.8,3.44,.71,1.27-.23,4.52-.84,5.12-2.3h0Z"></path></g></g><g id="fly"><g><g><path class="cls-4" d="M76.31,93.01c1.95-6.46,8.99-11.38,15.53-9.72,6.54,1.65,10.22,10.78,5.81,15.88,4.72-3.43,10.11-6.17,15.92-6.77,5.8-.6,12.05,1.22,15.86,5.64,5.47,6.35,4.23,16.98-1.93,22.67-6.16,5.69-16.01,6.4-23.49,2.6-7.47-3.8-12.53-11.51-14.23-19.72-4.37,1.32-9.4,1.59-13.23-.89-3.83-2.48-5.51-8.42-2.42-11.78"></path><path class="cls-4" d="M79.22,92.7c.91-2.87,2.93-5.45,5.57-6.93,1.18-.66,2-.92,3.31-.99,.98-.05,2.35,.2,3.39,.74,4.16,2.16,7.18,8.98,3.81,13.03-.69,.83-.79,1.76,.35,2.22s2.85,.15,3.85-.58c5.51-3.98,12.22-7.28,19.18-5.67,6.41,1.48,10.95,6.54,11.3,13.17,.31,5.78-2.63,11.84-7.83,14.48-2.59,1.31-5.24,1.82-8.28,1.65-3.15-.18-6.17-1.14-8.89-2.74-6.57-3.89-10.73-10.93-12.3-18.27-.27-1.28-2.5-1.12-3.34-.87-3.67,1.08-8.36,1.48-11.35-1.43-2.15-2.09-3.75-6.38-1.5-8.98,.81-.93,.64-1.98-.62-2.33-1.25-.34-3.21,.08-4.1,1.1-3.28,3.77-2.58,9.49,1.1,12.8,4.64,4.18,11.76,3.78,17.35,2.13-1.11-.29-2.23-.58-3.34-.87,1.63,7.66,5.99,14.78,12.59,19.13,6.88,4.53,15.82,5.11,23.42,2.17,7.1-2.74,12.37-9.17,12.88-16.86,.24-3.59-.5-7.11-2.39-10.19-2.04-3.33-5.43-5.57-9.05-6.87-9.83-3.53-20.5,.59-28.54,6.39,1.4,.55,2.8,1.1,4.2,1.65,3.75-4.5,2.97-11.03-1.1-15.12-5.02-5.03-13.18-4.16-18.69-.4-3.22,2.2-5.64,5.33-6.82,9.05-.42,1.32,1.78,1.57,2.57,1.48,1.28-.13,2.84-.78,3.26-2.11h0Z"></path></g><g><path class="cls-1" d="M104.08,97.21c-2.93-18.06,10.01-37.27,27.85-41.34,4.23-.97,9.21-.96,12.29,2.09,5.12,5.09,1.24,13.81-3.4,19.34-5.15,6.15-11.21,11.77-18.59,14.9-7.38,3.12-16.28,3.43-23.17-.66-8.6-5.1-12.34-15.7-13.19-25.66-.35-4.1,1.23-9.78,5.32-9.34,1.16,.12,2.19,.79,3.13,1.49,8.59,6.39,13.24,17.68,11.65,28.27"></path><path class="cls-4" d="M106.98,96.43c-1.94-12.43,3.5-25.26,12.99-33.33,2.25-1.91,4.75-3.52,7.44-4.74,2.42-1.1,4.6-1.83,7.4-1.87,3.15-.04,6.37,1.25,7.93,4.13s1.11,6.04,.1,8.9c-1.13,3.18-3,6.06-5.18,8.62-2.47,2.9-5.14,5.65-8.08,8.08-5.26,4.34-11.49,7.51-18.46,7.11-7.03-.4-13.12-4.33-16.84-10.23-3.42-5.43-5.38-12.34-5.55-18.75-.04-1.43,.13-2.86,.56-4.23,.2-.61,.44-1.21,.77-1.77,.21-.37,.84-.83,.96-1.17l.11-.07-1.57,.54c-.21,.04-.49-.03-.44,.06,.02,.04,1.02,.35,1.17,.43,.79,.42,1.5,.99,2.19,1.55,1.3,1.05,2.51,2.23,3.61,3.49,4.4,5.08,6.99,11.78,7.27,18.48,.07,1.71,0,3.43-.24,5.12-.15,1.02,1.76,.68,2.32,.58,.67-.12,3.26-.63,3.39-1.59,1.09-7.6-.71-15.37-5.07-21.7-2.05-2.99-4.79-6.16-8.02-7.91-3.39-1.84-8.65-.59-10.95,2.51-1.89,2.55-2.05,6.04-1.72,9.08,.41,3.81,1.22,7.6,2.58,11.19,2.69,7.09,7.72,13.12,15.06,15.57,8.44,2.81,18.3,.83,25.98-3.25s14.04-9.95,18.75-16.79c3.66-5.33,6.98-14.65-.18-18.78-3.43-1.98-7.77-1.81-11.54-1.16-3.88,.68-7.71,1.99-11.21,3.79-12.73,6.56-21.75,20.01-21.74,34.5,0,1.73,.15,3.45,.41,5.16,.18,1.18,6.03-.06,5.8-1.55h0Z"></path></g></g><g class="cls-3"><path class="cls-4" d="M137.2,128.85c19.08,7.51,40.11,9.37,60.33,6.25,20.47-3.17,40.18-11.27,56.69-23.81,8.19-6.22,15.55-13.59,21.66-21.86,6.98-9.44,12.57-20.66,12.35-32.66-.18-10.11-4.85-20.65-13.87-25.82-8.54-4.89-20.3-3.77-28.1,2.05-4.39,3.28-6.76,8.27-7.62,13.59-.91,5.62-.76,11.52-.34,17.18,.83,11.34,3.58,22.53,8.02,33,8.96,21.16,24.65,38.85,44.74,50.04,10.02,5.58,20.98,9.51,32.25,11.64,5.62,1.06,11.34,1.67,17.06,1.82,5.81,.15,11.8-.02,17.52-1.13,5.49-1.06,11.72-3.27,14.87-8.24,2.43-3.84,3.12-9.47-.21-13.03-3.93-4.19-11.34-3.66-16.47-2.73-6.02,1.09-11.7,3.53-16.84,6.82-9.9,6.33-18.09,15.2-25.63,24.12-7.53,8.91-14.3,18.46-20.24,28.5-11.88,20.1-20.5,42.14-25.21,65.01-1.14,5.51-2.04,11.07-2.72,16.66-.27,2.19,5.55,1.13,5.79-.76,2.68-22.02,8.95-43.55,18.39-63.61,9.39-19.97,22.01-38.56,37.26-54.52,7.08-7.41,15.33-15.27,25.34-18.35,2.3-.71,4.64-1.17,7.06-1.24,2.51-.07,5.32,.09,7.32,1.8,3.35,2.86,2.91,8.18,.62,11.57-2.66,3.95-7.61,4.97-12.02,5.49-5.21,.61-10.5,.66-15.74,.36-10.73-.62-21.38-3.06-31.36-7.02-20.21-8.02-37.36-22.3-48.79-40.81-5.69-9.21-9.89-19.38-12.47-29.9-1.28-5.19-2.16-10.49-2.61-15.82-.46-5.4-.62-10.94,.06-16.33,.62-4.92,2.26-9.79,6.27-12.95,3.03-2.39,6.21-3.14,9.97-3.05,9.27,.21,16.48,7.18,19.69,15.49,7.98,20.65-6.62,41.9-20.98,55.67-6.82,6.54-14.49,12.15-22.75,16.74-8.25,4.58-16.97,8.06-25.96,10.47-17.91,4.8-37.31,5.3-55.61,.82-4.44-1.09-8.79-2.48-13.04-4.16-1.29-.51-2.95-.13-4.1,.57-.7,.42-1.84,1.66-.53,2.17h0Z"></path></g></g><g id="folder-front"><g><path class="cls-2" d="M409.93,465.05c-10.74-52.21-21.49-104.41-32.23-156.62-2.17-10.55-4.61-21.61-12.68-29.92-3.95-4.07-9.71-7.17-15.81-8.54-11.02-2.48-19.78-10.65-23.81-21.19-3.68-9.62-9.73-18.06-20.31-22.68-8.2-3.58-17.81-4.13-27.1-4.54-63.4-2.8-127.02-2.73-190.48,.21-13.46,.62-27.1,1.41-39.89,5.03-3.83,1.08-7.64,2.46-10.58,4.78-4.58,3.61-6.4,9.03-6.87,14.23-.79,8.82,1.74,17.56,4.26,26.13,17.28,58.9,34.57,117.79,51.85,176.69,.77,2.61,1.6,5.33,3.74,7.33,2.77,2.59,7.13,3.47,11.24,4.14,62.78,10.24,271.05,14.73,308.59,5.06"></path><path class="cls-2" d="M414.28,463.88c-9.78-47.51-19.55-95.01-29.33-142.52-2.1-10.22-3.56-20.97-7.34-30.74s-10.13-17.28-19.7-21.39c-4.23-1.82-8.88-2.32-12.98-4.45-3.78-1.97-7.07-4.65-9.77-7.94-2.82-3.44-4.49-7.2-6.21-11.24-1.71-4-3.84-7.88-6.59-11.26-6.27-7.74-15.17-12.12-24.84-13.95-11.31-2.15-23.09-2-34.56-2.41-24.18-.88-48.37-1.34-72.56-1.38-24.32-.04-48.64,.32-72.95,1.1-11.99,.39-23.99,.82-35.97,1.48-11.62,.64-23.34,1.73-34.58,4.91-5.36,1.52-10.73,3.59-14.77,7.57-3.35,3.3-5.3,7.8-6.06,12.38-1.88,11.29,2.16,22.73,5.3,33.41,6.83,23.27,13.66,46.54,20.49,69.8,6.83,23.27,13.66,46.54,20.49,69.8,3.36,11.45,6.39,23.07,10.12,34.41,1.66,5.04,4.82,8.21,9.85,9.91,3.29,1.11,6.8,1.56,10.22,2.07,21.75,3.27,43.81,4.67,65.75,5.98,29.18,1.74,58.41,2.8,87.64,3.43,28.74,.61,57.5,.82,86.24,.24,19.75-.4,39.82-.68,59.41-3.54,3.02-.44,6.05-.94,9.01-1.7,1.56-.4,4.16-1.87,3.62-3.86-.54-2.02-3.55-1.92-5.07-1.54-1.23,.31-2.47,.56-3.71,.81-1.02,.2,1.28-.21-.06,0-.31,.05-.62,.1-.93,.16-.86,.14-1.71,.27-2.57,.39-3.7,.52-7.41,.91-11.13,1.24-9.89,.88-19.82,1.36-29.75,1.72-26.81,.97-52.17,.96-78.95,.63-29.36-.36-58.72-1.21-88.04-2.61-24.3-1.16-48.63-2.57-72.82-5.21-4.43-.48-8.85-1.02-13.26-1.64-2.15-.31-4.31-.6-6.45-1-4.39-.82-8.24-2.24-9.93-6.69-2.04-5.36-3.34-11.11-4.96-16.62-1.64-5.57-3.27-11.15-4.91-16.72-3.34-11.39-6.69-22.78-10.03-34.17-6.76-23.03-13.51-46.05-20.27-69.08-3.34-11.39-6.69-22.78-10.03-34.17-3.14-10.69-7.63-22.06-6.84-33.39,.28-4.04,1.26-8.32,4-11.43,3.16-3.59,8.14-4.8,12.6-5.91,10.8-2.7,21.99-3.4,33.07-3.94,23.62-1.16,47.27-1.86,70.92-2.19,23.57-.33,47.15-.25,70.72,.22,11.84,.24,23.68,.57,35.51,1.01,5.94,.22,11.89,.44,17.83,.74,5.19,.26,10.46,.57,15.54,1.71,9.11,2.05,16.7,6.9,21.88,14.72,2.29,3.46,3.65,7.2,5.35,10.94,1.84,4.04,4.28,7.79,7.42,10.95,2.98,3,6.44,5.52,10.28,7.3,4.36,2.02,9.18,2.58,13.51,4.64,8.86,4.2,14.07,12.37,16.98,21.46,3.23,10.07,4.79,20.75,6.92,31.08,2.39,11.63,4.79,23.26,7.18,34.89,4.79,23.26,9.57,46.52,14.36,69.77,2.34,11.38,4.68,22.76,7.03,34.14,.75,3.66,9.47,1.45,8.69-2.33h0Z"></path></g><path class="cls-1" d="M321.23,330.08c2.72,9.37,5.16,18.82,7.31,28.34,1.06,4.68,2.04,9.37,2.96,14.08s1.97,9.09,2.4,13.66c.06,.62,.06,1.3-.03,2.04-.05,.38-.11,.78-.22,1.15,.13-.44-.41,1-.28,.61,.09-.27-.06,.04-.14,.14,.41-.5,.2-.13-.04,0,.26-.14,.46-.23,.74-.36-.08,.04-.7,.15-.14,.05,.6-.11-.21,0-.35,.02-.19,.02-.38,.02-.58,.03-.83,.04-.22,0-.04,0-.38,0-.75-.01-1.13-.02-4.9-.08-9.8-.17-14.7-.25-9.97-.17-19.94-.34-29.9-.52-4.98-.09-9.97-.17-14.95-.26-2.3-.04-4.64,.02-6.93-.25-.14-.02-1.05-.18-.72-.1-.56-.12-1.13-.28-1.66-.5,.26,.1-.5-.26-.62-.33-.38-.22-.74-.46-1.09-.72-.05-.04-.55-.46-.32-.25,.2,.18-.18-.18-.17-.17-.31-.3-.6-.62-.87-.96-.52-.63-.99-1.32-1.4-2.03-.66-1.14-1.31-2.89-1.76-4.4-1.16-3.87-1.71-7.91-2.41-11.88-.84-4.77-1.68-9.53-2.51-14.3-.76-4.33-1.76-8.69-2.17-13.07-.14-1.48-.13-3.08,.14-4.7,.06-.37,.15-.74,.24-1.11,.01-.06,.2-.69,.1-.38-.09,.27,.08-.21,.08-.21,.16-.39,.37-.73,.55-1.11,.02-.04,.29-.47,.07-.15-.25,.36,.25-.29,.31-.36,.1-.11,.23-.21,.33-.33,.3-.37-.15,.47-.04,.05,.02-.07,.34-.24,.4-.28-.7,.41,.06-.04,.11,0,.03,.02-1.1,.28,0,.03,.07-.02,.71-.12,.2-.05-.65,.09,1.64-.06,.75-.06,2.22,0,4.45,.38,6.66,.61,19.56,2.01,39.35,2.04,58.92,.11,2.44-.24,4.88-.51,7.32-.81,1.79-.22,4.55-1.2,4.85-3.3,.29-2.06-2.41-2.67-3.92-2.48-20.7,2.56-40.86,2.88-61.57,.93-4.97-.47-10.31-1.65-15.2-.12-4.66,1.45-8.01,4.87-8.89,9.71-.7,3.86,.04,7.87,.71,11.69,.91,5.17,1.82,10.34,2.73,15.51,.84,4.77,1.58,9.57,2.55,14.32,.75,3.68,1.84,7.37,3.9,10.55,2.48,3.83,6.41,5.81,10.85,6.44,2.43,.34,4.92,.27,7.36,.31,2.58,.04,5.15,.09,7.73,.13,10.55,.18,21.1,.36,31.65,.55,5.32,.09,10.63,.18,15.95,.28s11.84,.99,15.97-3.2c3.19-3.25,2.52-7.79,1.82-11.87-.88-5.13-1.85-10.24-2.9-15.34-2.06-10.03-4.45-20-7.15-29.88-.69-2.51-1.39-5.01-2.12-7.51-.57-1.96-3.5-1.98-5.06-1.52-1.48,.44-4.21,1.83-3.63,3.85h0Z"></path><path class="cls-1" d="M342.03,405.78c-32.01,1.9-64.06,3.09-96.12,3.53-9.13,.12-18.26,.19-27.4,.19-2.08,0-4.39,.48-6.15,1.65-.39,.26-1.16,.76-1.01,1.33s1.13,.64,1.54,.64c32.69-.02,65.38-.79,98.04-2.31,9.12-.42,18.24-.91,27.36-1.45,1.87-.11,4.46-.7,5.81-2.09,1.37-1.41-1.24-1.54-2.07-1.49h0Z"></path><path class="cls-1" d="M347.15,422.28c-17.68,.53-35.37,1.06-53.05,1.59-17.68,.53-35.37,1.06-53.05,1.59-9.96,.3-19.92,.6-29.89,.9-1.85,.06-4.48,.73-5.81,2.1-1.38,1.43,1.25,1.52,2.07,1.5,17.68-.53,35.37-1.06,53.05-1.59,17.68-.53,35.37-1.06,53.05-1.59,9.96-.3,19.92-.6,29.89-.9,1.85-.06,4.48-.73,5.81-2.1,1.38-1.43-1.25-1.52-2.07-1.5h0Z"></path></g></svg>